G04 #@! TF.GenerationSoftware,KiCad,Pcbnew,5.1.6-c6e7f7d~87~ubuntu18.04.1*
G04 #@! TF.CreationDate,2020-08-19T11:01:40-04:00*
G04 #@! TF.ProjectId,qual_ADSR_front_panel,7175616c-5f41-4445-9352-5f66726f6e74,0*
G04 #@! TF.SameCoordinates,Original*
G04 #@! TF.FileFunction,Legend,Top*
G04 #@! TF.FilePolarity,Positive*
%FSLAX46Y46*%
G04 Gerber Fmt 4.6, Leading zero omitted, Abs format (unit mm)*
G04 Created by KiCad (PCBNEW 5.1.6-c6e7f7d~87~ubuntu18.04.1) date 2020-08-19 11:01:40*
%MOMM*%
%LPD*%
G01*
G04 APERTURE LIST*
%ADD10C,0.300000*%
G04 APERTURE END LIST*
D10*
X60929523Y-76060952D02*
X60929523Y-74394285D01*
X60929523Y-74870476D02*
X61048571Y-74632380D01*
X61167619Y-74513333D01*
X61405714Y-74394285D01*
X61643809Y-74394285D01*
X63429523Y-75941904D02*
X63191428Y-76060952D01*
X62715238Y-76060952D01*
X62477142Y-75941904D01*
X62358095Y-75703809D01*
X62358095Y-74751428D01*
X62477142Y-74513333D01*
X62715238Y-74394285D01*
X63191428Y-74394285D01*
X63429523Y-74513333D01*
X63548571Y-74751428D01*
X63548571Y-74989523D01*
X62358095Y-75227619D01*
X64977142Y-76060952D02*
X64739047Y-75941904D01*
X64620000Y-75703809D01*
X64620000Y-73560952D01*
X66881904Y-75941904D02*
X66643809Y-76060952D01*
X66167619Y-76060952D01*
X65929523Y-75941904D01*
X65810476Y-75703809D01*
X65810476Y-74751428D01*
X65929523Y-74513333D01*
X66167619Y-74394285D01*
X66643809Y-74394285D01*
X66881904Y-74513333D01*
X67000952Y-74751428D01*
X67000952Y-74989523D01*
X65810476Y-75227619D01*
X69143809Y-76060952D02*
X69143809Y-74751428D01*
X69024761Y-74513333D01*
X68786666Y-74394285D01*
X68310476Y-74394285D01*
X68072380Y-74513333D01*
X69143809Y-75941904D02*
X68905714Y-76060952D01*
X68310476Y-76060952D01*
X68072380Y-75941904D01*
X67953333Y-75703809D01*
X67953333Y-75465714D01*
X68072380Y-75227619D01*
X68310476Y-75108571D01*
X68905714Y-75108571D01*
X69143809Y-74989523D01*
X70215238Y-75941904D02*
X70453333Y-76060952D01*
X70929523Y-76060952D01*
X71167619Y-75941904D01*
X71286666Y-75703809D01*
X71286666Y-75584761D01*
X71167619Y-75346666D01*
X70929523Y-75227619D01*
X70572380Y-75227619D01*
X70334285Y-75108571D01*
X70215238Y-74870476D01*
X70215238Y-74751428D01*
X70334285Y-74513333D01*
X70572380Y-74394285D01*
X70929523Y-74394285D01*
X71167619Y-74513333D01*
X73310476Y-75941904D02*
X73072380Y-76060952D01*
X72596190Y-76060952D01*
X72358095Y-75941904D01*
X72239047Y-75703809D01*
X72239047Y-74751428D01*
X72358095Y-74513333D01*
X72596190Y-74394285D01*
X73072380Y-74394285D01*
X73310476Y-74513333D01*
X73429523Y-74751428D01*
X73429523Y-74989523D01*
X72239047Y-75227619D01*
X43090000Y-61971904D02*
X43328095Y-62090952D01*
X43804285Y-62090952D01*
X44042380Y-61971904D01*
X44161428Y-61733809D01*
X44161428Y-61614761D01*
X44042380Y-61376666D01*
X43804285Y-61257619D01*
X43447142Y-61257619D01*
X43209047Y-61138571D01*
X43090000Y-60900476D01*
X43090000Y-60781428D01*
X43209047Y-60543333D01*
X43447142Y-60424285D01*
X43804285Y-60424285D01*
X44042380Y-60543333D01*
X46304285Y-60424285D02*
X46304285Y-62090952D01*
X45232857Y-60424285D02*
X45232857Y-61733809D01*
X45351904Y-61971904D01*
X45590000Y-62090952D01*
X45947142Y-62090952D01*
X46185238Y-61971904D01*
X46304285Y-61852857D01*
X47375714Y-61971904D02*
X47613809Y-62090952D01*
X48090000Y-62090952D01*
X48328095Y-61971904D01*
X48447142Y-61733809D01*
X48447142Y-61614761D01*
X48328095Y-61376666D01*
X48090000Y-61257619D01*
X47732857Y-61257619D01*
X47494761Y-61138571D01*
X47375714Y-60900476D01*
X47375714Y-60781428D01*
X47494761Y-60543333D01*
X47732857Y-60424285D01*
X48090000Y-60424285D01*
X48328095Y-60543333D01*
X49161428Y-60424285D02*
X50113809Y-60424285D01*
X49518571Y-59590952D02*
X49518571Y-61733809D01*
X49637619Y-61971904D01*
X49875714Y-62090952D01*
X50113809Y-62090952D01*
X52018571Y-62090952D02*
X52018571Y-60781428D01*
X51899523Y-60543333D01*
X51661428Y-60424285D01*
X51185238Y-60424285D01*
X50947142Y-60543333D01*
X52018571Y-61971904D02*
X51780476Y-62090952D01*
X51185238Y-62090952D01*
X50947142Y-61971904D01*
X50828095Y-61733809D01*
X50828095Y-61495714D01*
X50947142Y-61257619D01*
X51185238Y-61138571D01*
X51780476Y-61138571D01*
X52018571Y-61019523D01*
X53209047Y-62090952D02*
X53209047Y-60424285D01*
X53209047Y-59590952D02*
X53090000Y-59710000D01*
X53209047Y-59829047D01*
X53328095Y-59710000D01*
X53209047Y-59590952D01*
X53209047Y-59829047D01*
X54399523Y-60424285D02*
X54399523Y-62090952D01*
X54399523Y-60662380D02*
X54518571Y-60543333D01*
X54756666Y-60424285D01*
X55113809Y-60424285D01*
X55351904Y-60543333D01*
X55470952Y-60781428D01*
X55470952Y-62090952D01*
X27869523Y-48120952D02*
X27869523Y-45620952D01*
X27869523Y-48001904D02*
X27631428Y-48120952D01*
X27155238Y-48120952D01*
X26917142Y-48001904D01*
X26798095Y-47882857D01*
X26679047Y-47644761D01*
X26679047Y-46930476D01*
X26798095Y-46692380D01*
X26917142Y-46573333D01*
X27155238Y-46454285D01*
X27631428Y-46454285D01*
X27869523Y-46573333D01*
X30012380Y-48001904D02*
X29774285Y-48120952D01*
X29298095Y-48120952D01*
X29060000Y-48001904D01*
X28940952Y-47763809D01*
X28940952Y-46811428D01*
X29060000Y-46573333D01*
X29298095Y-46454285D01*
X29774285Y-46454285D01*
X30012380Y-46573333D01*
X30131428Y-46811428D01*
X30131428Y-47049523D01*
X28940952Y-47287619D01*
X32274285Y-48001904D02*
X32036190Y-48120952D01*
X31560000Y-48120952D01*
X31321904Y-48001904D01*
X31202857Y-47882857D01*
X31083809Y-47644761D01*
X31083809Y-46930476D01*
X31202857Y-46692380D01*
X31321904Y-46573333D01*
X31560000Y-46454285D01*
X32036190Y-46454285D01*
X32274285Y-46573333D01*
X34417142Y-48120952D02*
X34417142Y-46811428D01*
X34298095Y-46573333D01*
X34060000Y-46454285D01*
X33583809Y-46454285D01*
X33345714Y-46573333D01*
X34417142Y-48001904D02*
X34179047Y-48120952D01*
X33583809Y-48120952D01*
X33345714Y-48001904D01*
X33226666Y-47763809D01*
X33226666Y-47525714D01*
X33345714Y-47287619D01*
X33583809Y-47168571D01*
X34179047Y-47168571D01*
X34417142Y-47049523D01*
X35369523Y-46454285D02*
X35964761Y-48120952D01*
X36560000Y-46454285D02*
X35964761Y-48120952D01*
X35726666Y-48716190D01*
X35607619Y-48835238D01*
X35369523Y-48954285D01*
X9672857Y-34150952D02*
X9672857Y-32841428D01*
X9553809Y-32603333D01*
X9315714Y-32484285D01*
X8839523Y-32484285D01*
X8601428Y-32603333D01*
X9672857Y-34031904D02*
X9434761Y-34150952D01*
X8839523Y-34150952D01*
X8601428Y-34031904D01*
X8482380Y-33793809D01*
X8482380Y-33555714D01*
X8601428Y-33317619D01*
X8839523Y-33198571D01*
X9434761Y-33198571D01*
X9672857Y-33079523D01*
X10506190Y-32484285D02*
X11458571Y-32484285D01*
X10863333Y-31650952D02*
X10863333Y-33793809D01*
X10982380Y-34031904D01*
X11220476Y-34150952D01*
X11458571Y-34150952D01*
X11934761Y-32484285D02*
X12887142Y-32484285D01*
X12291904Y-31650952D02*
X12291904Y-33793809D01*
X12410952Y-34031904D01*
X12649047Y-34150952D01*
X12887142Y-34150952D01*
X14791904Y-34150952D02*
X14791904Y-32841428D01*
X14672857Y-32603333D01*
X14434761Y-32484285D01*
X13958571Y-32484285D01*
X13720476Y-32603333D01*
X14791904Y-34031904D02*
X14553809Y-34150952D01*
X13958571Y-34150952D01*
X13720476Y-34031904D01*
X13601428Y-33793809D01*
X13601428Y-33555714D01*
X13720476Y-33317619D01*
X13958571Y-33198571D01*
X14553809Y-33198571D01*
X14791904Y-33079523D01*
X17053809Y-34031904D02*
X16815714Y-34150952D01*
X16339523Y-34150952D01*
X16101428Y-34031904D01*
X15982380Y-33912857D01*
X15863333Y-33674761D01*
X15863333Y-32960476D01*
X15982380Y-32722380D01*
X16101428Y-32603333D01*
X16339523Y-32484285D01*
X16815714Y-32484285D01*
X17053809Y-32603333D01*
X18125238Y-34150952D02*
X18125238Y-31650952D01*
X18363333Y-33198571D02*
X19077619Y-34150952D01*
X19077619Y-32484285D02*
X18125238Y-33436666D01*
X62953333Y-117970952D02*
X62715238Y-117851904D01*
X62596190Y-117732857D01*
X62477142Y-117494761D01*
X62477142Y-116780476D01*
X62596190Y-116542380D01*
X62715238Y-116423333D01*
X62953333Y-116304285D01*
X63310476Y-116304285D01*
X63548571Y-116423333D01*
X63667619Y-116542380D01*
X63786666Y-116780476D01*
X63786666Y-117494761D01*
X63667619Y-117732857D01*
X63548571Y-117851904D01*
X63310476Y-117970952D01*
X62953333Y-117970952D01*
X65929523Y-116304285D02*
X65929523Y-117970952D01*
X64858095Y-116304285D02*
X64858095Y-117613809D01*
X64977142Y-117851904D01*
X65215238Y-117970952D01*
X65572380Y-117970952D01*
X65810476Y-117851904D01*
X65929523Y-117732857D01*
X66762857Y-116304285D02*
X67715238Y-116304285D01*
X67120000Y-115470952D02*
X67120000Y-117613809D01*
X67239047Y-117851904D01*
X67477142Y-117970952D01*
X67715238Y-117970952D01*
X71524761Y-116304285D02*
X71524761Y-117970952D01*
X70929523Y-115351904D02*
X70334285Y-117137619D01*
X71881904Y-117137619D01*
X45173333Y-117970952D02*
X44935238Y-117851904D01*
X44816190Y-117732857D01*
X44697142Y-117494761D01*
X44697142Y-116780476D01*
X44816190Y-116542380D01*
X44935238Y-116423333D01*
X45173333Y-116304285D01*
X45530476Y-116304285D01*
X45768571Y-116423333D01*
X45887619Y-116542380D01*
X46006666Y-116780476D01*
X46006666Y-117494761D01*
X45887619Y-117732857D01*
X45768571Y-117851904D01*
X45530476Y-117970952D01*
X45173333Y-117970952D01*
X48149523Y-116304285D02*
X48149523Y-117970952D01*
X47078095Y-116304285D02*
X47078095Y-117613809D01*
X47197142Y-117851904D01*
X47435238Y-117970952D01*
X47792380Y-117970952D01*
X48030476Y-117851904D01*
X48149523Y-117732857D01*
X48982857Y-116304285D02*
X49935238Y-116304285D01*
X49340000Y-115470952D02*
X49340000Y-117613809D01*
X49459047Y-117851904D01*
X49697142Y-117970952D01*
X49935238Y-117970952D01*
X52435238Y-115470952D02*
X53982857Y-115470952D01*
X53149523Y-116423333D01*
X53506666Y-116423333D01*
X53744761Y-116542380D01*
X53863809Y-116661428D01*
X53982857Y-116899523D01*
X53982857Y-117494761D01*
X53863809Y-117732857D01*
X53744761Y-117851904D01*
X53506666Y-117970952D01*
X52792380Y-117970952D01*
X52554285Y-117851904D01*
X52435238Y-117732857D01*
X27393333Y-117970952D02*
X27155238Y-117851904D01*
X27036190Y-117732857D01*
X26917142Y-117494761D01*
X26917142Y-116780476D01*
X27036190Y-116542380D01*
X27155238Y-116423333D01*
X27393333Y-116304285D01*
X27750476Y-116304285D01*
X27988571Y-116423333D01*
X28107619Y-116542380D01*
X28226666Y-116780476D01*
X28226666Y-117494761D01*
X28107619Y-117732857D01*
X27988571Y-117851904D01*
X27750476Y-117970952D01*
X27393333Y-117970952D01*
X30369523Y-116304285D02*
X30369523Y-117970952D01*
X29298095Y-116304285D02*
X29298095Y-117613809D01*
X29417142Y-117851904D01*
X29655238Y-117970952D01*
X30012380Y-117970952D01*
X30250476Y-117851904D01*
X30369523Y-117732857D01*
X31202857Y-116304285D02*
X32155238Y-116304285D01*
X31560000Y-115470952D02*
X31560000Y-117613809D01*
X31679047Y-117851904D01*
X31917142Y-117970952D01*
X32155238Y-117970952D01*
X34774285Y-115709047D02*
X34893333Y-115590000D01*
X35131428Y-115470952D01*
X35726666Y-115470952D01*
X35964761Y-115590000D01*
X36083809Y-115709047D01*
X36202857Y-115947142D01*
X36202857Y-116185238D01*
X36083809Y-116542380D01*
X34655238Y-117970952D01*
X36202857Y-117970952D01*
X62000952Y-103604285D02*
X62953333Y-103604285D01*
X62358095Y-102770952D02*
X62358095Y-104913809D01*
X62477142Y-105151904D01*
X62715238Y-105270952D01*
X62953333Y-105270952D01*
X63786666Y-105270952D02*
X63786666Y-103604285D01*
X63786666Y-104080476D02*
X63905714Y-103842380D01*
X64024761Y-103723333D01*
X64262857Y-103604285D01*
X64500952Y-103604285D01*
X65334285Y-105270952D02*
X65334285Y-103604285D01*
X65334285Y-102770952D02*
X65215238Y-102890000D01*
X65334285Y-103009047D01*
X65453333Y-102890000D01*
X65334285Y-102770952D01*
X65334285Y-103009047D01*
X67596190Y-103604285D02*
X67596190Y-105628095D01*
X67477142Y-105866190D01*
X67358095Y-105985238D01*
X67120000Y-106104285D01*
X66762857Y-106104285D01*
X66524761Y-105985238D01*
X67596190Y-105151904D02*
X67358095Y-105270952D01*
X66881904Y-105270952D01*
X66643809Y-105151904D01*
X66524761Y-105032857D01*
X66405714Y-104794761D01*
X66405714Y-104080476D01*
X66524761Y-103842380D01*
X66643809Y-103723333D01*
X66881904Y-103604285D01*
X67358095Y-103604285D01*
X67596190Y-103723333D01*
X71762857Y-103604285D02*
X71762857Y-105270952D01*
X71167619Y-102651904D02*
X70572380Y-104437619D01*
X72120000Y-104437619D01*
X44220952Y-103604285D02*
X45173333Y-103604285D01*
X44578095Y-102770952D02*
X44578095Y-104913809D01*
X44697142Y-105151904D01*
X44935238Y-105270952D01*
X45173333Y-105270952D01*
X46006666Y-105270952D02*
X46006666Y-103604285D01*
X46006666Y-104080476D02*
X46125714Y-103842380D01*
X46244761Y-103723333D01*
X46482857Y-103604285D01*
X46720952Y-103604285D01*
X47554285Y-105270952D02*
X47554285Y-103604285D01*
X47554285Y-102770952D02*
X47435238Y-102890000D01*
X47554285Y-103009047D01*
X47673333Y-102890000D01*
X47554285Y-102770952D01*
X47554285Y-103009047D01*
X49816190Y-103604285D02*
X49816190Y-105628095D01*
X49697142Y-105866190D01*
X49578095Y-105985238D01*
X49340000Y-106104285D01*
X48982857Y-106104285D01*
X48744761Y-105985238D01*
X49816190Y-105151904D02*
X49578095Y-105270952D01*
X49101904Y-105270952D01*
X48863809Y-105151904D01*
X48744761Y-105032857D01*
X48625714Y-104794761D01*
X48625714Y-104080476D01*
X48744761Y-103842380D01*
X48863809Y-103723333D01*
X49101904Y-103604285D01*
X49578095Y-103604285D01*
X49816190Y-103723333D01*
X52673333Y-102770952D02*
X54220952Y-102770952D01*
X53387619Y-103723333D01*
X53744761Y-103723333D01*
X53982857Y-103842380D01*
X54101904Y-103961428D01*
X54220952Y-104199523D01*
X54220952Y-104794761D01*
X54101904Y-105032857D01*
X53982857Y-105151904D01*
X53744761Y-105270952D01*
X53030476Y-105270952D01*
X52792380Y-105151904D01*
X52673333Y-105032857D01*
X26440952Y-103604285D02*
X27393333Y-103604285D01*
X26798095Y-102770952D02*
X26798095Y-104913809D01*
X26917142Y-105151904D01*
X27155238Y-105270952D01*
X27393333Y-105270952D01*
X28226666Y-105270952D02*
X28226666Y-103604285D01*
X28226666Y-104080476D02*
X28345714Y-103842380D01*
X28464761Y-103723333D01*
X28702857Y-103604285D01*
X28940952Y-103604285D01*
X29774285Y-105270952D02*
X29774285Y-103604285D01*
X29774285Y-102770952D02*
X29655238Y-102890000D01*
X29774285Y-103009047D01*
X29893333Y-102890000D01*
X29774285Y-102770952D01*
X29774285Y-103009047D01*
X32036190Y-103604285D02*
X32036190Y-105628095D01*
X31917142Y-105866190D01*
X31798095Y-105985238D01*
X31560000Y-106104285D01*
X31202857Y-106104285D01*
X30964761Y-105985238D01*
X32036190Y-105151904D02*
X31798095Y-105270952D01*
X31321904Y-105270952D01*
X31083809Y-105151904D01*
X30964761Y-105032857D01*
X30845714Y-104794761D01*
X30845714Y-104080476D01*
X30964761Y-103842380D01*
X31083809Y-103723333D01*
X31321904Y-103604285D01*
X31798095Y-103604285D01*
X32036190Y-103723333D01*
X35012380Y-103009047D02*
X35131428Y-102890000D01*
X35369523Y-102770952D01*
X35964761Y-102770952D01*
X36202857Y-102890000D01*
X36321904Y-103009047D01*
X36440952Y-103247142D01*
X36440952Y-103485238D01*
X36321904Y-103842380D01*
X34893333Y-105270952D01*
X36440952Y-105270952D01*
X62596190Y-90904285D02*
X62596190Y-92928095D01*
X62477142Y-93166190D01*
X62358095Y-93285238D01*
X62120000Y-93404285D01*
X61762857Y-93404285D01*
X61524761Y-93285238D01*
X62596190Y-92451904D02*
X62358095Y-92570952D01*
X61881904Y-92570952D01*
X61643809Y-92451904D01*
X61524761Y-92332857D01*
X61405714Y-92094761D01*
X61405714Y-91380476D01*
X61524761Y-91142380D01*
X61643809Y-91023333D01*
X61881904Y-90904285D01*
X62358095Y-90904285D01*
X62596190Y-91023333D01*
X64858095Y-92570952D02*
X64858095Y-91261428D01*
X64739047Y-91023333D01*
X64500952Y-90904285D01*
X64024761Y-90904285D01*
X63786666Y-91023333D01*
X64858095Y-92451904D02*
X64620000Y-92570952D01*
X64024761Y-92570952D01*
X63786666Y-92451904D01*
X63667619Y-92213809D01*
X63667619Y-91975714D01*
X63786666Y-91737619D01*
X64024761Y-91618571D01*
X64620000Y-91618571D01*
X64858095Y-91499523D01*
X65691428Y-90904285D02*
X66643809Y-90904285D01*
X66048571Y-90070952D02*
X66048571Y-92213809D01*
X66167619Y-92451904D01*
X66405714Y-92570952D01*
X66643809Y-92570952D01*
X68429523Y-92451904D02*
X68191428Y-92570952D01*
X67715238Y-92570952D01*
X67477142Y-92451904D01*
X67358095Y-92213809D01*
X67358095Y-91261428D01*
X67477142Y-91023333D01*
X67715238Y-90904285D01*
X68191428Y-90904285D01*
X68429523Y-91023333D01*
X68548571Y-91261428D01*
X68548571Y-91499523D01*
X67358095Y-91737619D01*
X72596190Y-90904285D02*
X72596190Y-92570952D01*
X72000952Y-89951904D02*
X71405714Y-91737619D01*
X72953333Y-91737619D01*
X44816190Y-90904285D02*
X44816190Y-92928095D01*
X44697142Y-93166190D01*
X44578095Y-93285238D01*
X44340000Y-93404285D01*
X43982857Y-93404285D01*
X43744761Y-93285238D01*
X44816190Y-92451904D02*
X44578095Y-92570952D01*
X44101904Y-92570952D01*
X43863809Y-92451904D01*
X43744761Y-92332857D01*
X43625714Y-92094761D01*
X43625714Y-91380476D01*
X43744761Y-91142380D01*
X43863809Y-91023333D01*
X44101904Y-90904285D01*
X44578095Y-90904285D01*
X44816190Y-91023333D01*
X47078095Y-92570952D02*
X47078095Y-91261428D01*
X46959047Y-91023333D01*
X46720952Y-90904285D01*
X46244761Y-90904285D01*
X46006666Y-91023333D01*
X47078095Y-92451904D02*
X46840000Y-92570952D01*
X46244761Y-92570952D01*
X46006666Y-92451904D01*
X45887619Y-92213809D01*
X45887619Y-91975714D01*
X46006666Y-91737619D01*
X46244761Y-91618571D01*
X46840000Y-91618571D01*
X47078095Y-91499523D01*
X47911428Y-90904285D02*
X48863809Y-90904285D01*
X48268571Y-90070952D02*
X48268571Y-92213809D01*
X48387619Y-92451904D01*
X48625714Y-92570952D01*
X48863809Y-92570952D01*
X50649523Y-92451904D02*
X50411428Y-92570952D01*
X49935238Y-92570952D01*
X49697142Y-92451904D01*
X49578095Y-92213809D01*
X49578095Y-91261428D01*
X49697142Y-91023333D01*
X49935238Y-90904285D01*
X50411428Y-90904285D01*
X50649523Y-91023333D01*
X50768571Y-91261428D01*
X50768571Y-91499523D01*
X49578095Y-91737619D01*
X53506666Y-90070952D02*
X55054285Y-90070952D01*
X54220952Y-91023333D01*
X54578095Y-91023333D01*
X54816190Y-91142380D01*
X54935238Y-91261428D01*
X55054285Y-91499523D01*
X55054285Y-92094761D01*
X54935238Y-92332857D01*
X54816190Y-92451904D01*
X54578095Y-92570952D01*
X53863809Y-92570952D01*
X53625714Y-92451904D01*
X53506666Y-92332857D01*
X27036190Y-90904285D02*
X27036190Y-92928095D01*
X26917142Y-93166190D01*
X26798095Y-93285238D01*
X26560000Y-93404285D01*
X26202857Y-93404285D01*
X25964761Y-93285238D01*
X27036190Y-92451904D02*
X26798095Y-92570952D01*
X26321904Y-92570952D01*
X26083809Y-92451904D01*
X25964761Y-92332857D01*
X25845714Y-92094761D01*
X25845714Y-91380476D01*
X25964761Y-91142380D01*
X26083809Y-91023333D01*
X26321904Y-90904285D01*
X26798095Y-90904285D01*
X27036190Y-91023333D01*
X29298095Y-92570952D02*
X29298095Y-91261428D01*
X29179047Y-91023333D01*
X28940952Y-90904285D01*
X28464761Y-90904285D01*
X28226666Y-91023333D01*
X29298095Y-92451904D02*
X29060000Y-92570952D01*
X28464761Y-92570952D01*
X28226666Y-92451904D01*
X28107619Y-92213809D01*
X28107619Y-91975714D01*
X28226666Y-91737619D01*
X28464761Y-91618571D01*
X29060000Y-91618571D01*
X29298095Y-91499523D01*
X30131428Y-90904285D02*
X31083809Y-90904285D01*
X30488571Y-90070952D02*
X30488571Y-92213809D01*
X30607619Y-92451904D01*
X30845714Y-92570952D01*
X31083809Y-92570952D01*
X32869523Y-92451904D02*
X32631428Y-92570952D01*
X32155238Y-92570952D01*
X31917142Y-92451904D01*
X31798095Y-92213809D01*
X31798095Y-91261428D01*
X31917142Y-91023333D01*
X32155238Y-90904285D01*
X32631428Y-90904285D01*
X32869523Y-91023333D01*
X32988571Y-91261428D01*
X32988571Y-91499523D01*
X31798095Y-91737619D01*
X35845714Y-90309047D02*
X35964761Y-90190000D01*
X36202857Y-90070952D01*
X36798095Y-90070952D01*
X37036190Y-90190000D01*
X37155238Y-90309047D01*
X37274285Y-90547142D01*
X37274285Y-90785238D01*
X37155238Y-91142380D01*
X35726666Y-92570952D01*
X37274285Y-92570952D01*
X9613333Y-117970952D02*
X9375238Y-117851904D01*
X9256190Y-117732857D01*
X9137142Y-117494761D01*
X9137142Y-116780476D01*
X9256190Y-116542380D01*
X9375238Y-116423333D01*
X9613333Y-116304285D01*
X9970476Y-116304285D01*
X10208571Y-116423333D01*
X10327619Y-116542380D01*
X10446666Y-116780476D01*
X10446666Y-117494761D01*
X10327619Y-117732857D01*
X10208571Y-117851904D01*
X9970476Y-117970952D01*
X9613333Y-117970952D01*
X12589523Y-116304285D02*
X12589523Y-117970952D01*
X11518095Y-116304285D02*
X11518095Y-117613809D01*
X11637142Y-117851904D01*
X11875238Y-117970952D01*
X12232380Y-117970952D01*
X12470476Y-117851904D01*
X12589523Y-117732857D01*
X13422857Y-116304285D02*
X14375238Y-116304285D01*
X13780000Y-115470952D02*
X13780000Y-117613809D01*
X13899047Y-117851904D01*
X14137142Y-117970952D01*
X14375238Y-117970952D01*
X18422857Y-117970952D02*
X16994285Y-117970952D01*
X17708571Y-117970952D02*
X17708571Y-115470952D01*
X17470476Y-115828095D01*
X17232380Y-116066190D01*
X16994285Y-116185238D01*
X8660952Y-103604285D02*
X9613333Y-103604285D01*
X9018095Y-102770952D02*
X9018095Y-104913809D01*
X9137142Y-105151904D01*
X9375238Y-105270952D01*
X9613333Y-105270952D01*
X10446666Y-105270952D02*
X10446666Y-103604285D01*
X10446666Y-104080476D02*
X10565714Y-103842380D01*
X10684761Y-103723333D01*
X10922857Y-103604285D01*
X11160952Y-103604285D01*
X11994285Y-105270952D02*
X11994285Y-103604285D01*
X11994285Y-102770952D02*
X11875238Y-102890000D01*
X11994285Y-103009047D01*
X12113333Y-102890000D01*
X11994285Y-102770952D01*
X11994285Y-103009047D01*
X14256190Y-103604285D02*
X14256190Y-105628095D01*
X14137142Y-105866190D01*
X14018095Y-105985238D01*
X13779999Y-106104285D01*
X13422857Y-106104285D01*
X13184761Y-105985238D01*
X14256190Y-105151904D02*
X14018095Y-105270952D01*
X13541904Y-105270952D01*
X13303809Y-105151904D01*
X13184761Y-105032857D01*
X13065714Y-104794761D01*
X13065714Y-104080476D01*
X13184761Y-103842380D01*
X13303809Y-103723333D01*
X13541904Y-103604285D01*
X14018095Y-103604285D01*
X14256190Y-103723333D01*
X18660952Y-105270952D02*
X17232380Y-105270952D01*
X17946666Y-105270952D02*
X17946666Y-102770952D01*
X17708571Y-103128095D01*
X17470476Y-103366190D01*
X17232380Y-103485238D01*
X9256190Y-90904285D02*
X9256190Y-92928095D01*
X9137142Y-93166190D01*
X9018095Y-93285238D01*
X8780000Y-93404285D01*
X8422857Y-93404285D01*
X8184761Y-93285238D01*
X9256190Y-92451904D02*
X9018095Y-92570952D01*
X8541904Y-92570952D01*
X8303809Y-92451904D01*
X8184761Y-92332857D01*
X8065714Y-92094761D01*
X8065714Y-91380476D01*
X8184761Y-91142380D01*
X8303809Y-91023333D01*
X8541904Y-90904285D01*
X9018095Y-90904285D01*
X9256190Y-91023333D01*
X11518095Y-92570952D02*
X11518095Y-91261428D01*
X11399047Y-91023333D01*
X11160952Y-90904285D01*
X10684761Y-90904285D01*
X10446666Y-91023333D01*
X11518095Y-92451904D02*
X11280000Y-92570952D01*
X10684761Y-92570952D01*
X10446666Y-92451904D01*
X10327619Y-92213809D01*
X10327619Y-91975714D01*
X10446666Y-91737619D01*
X10684761Y-91618571D01*
X11280000Y-91618571D01*
X11518095Y-91499523D01*
X12351428Y-90904285D02*
X13303809Y-90904285D01*
X12708571Y-90070952D02*
X12708571Y-92213809D01*
X12827619Y-92451904D01*
X13065714Y-92570952D01*
X13303809Y-92570952D01*
X15089523Y-92451904D02*
X14851428Y-92570952D01*
X14375238Y-92570952D01*
X14137142Y-92451904D01*
X14018095Y-92213809D01*
X14018095Y-91261428D01*
X14137142Y-91023333D01*
X14375238Y-90904285D01*
X14851428Y-90904285D01*
X15089523Y-91023333D01*
X15208571Y-91261428D01*
X15208571Y-91499523D01*
X14018095Y-91737619D01*
X19494285Y-92570952D02*
X18065714Y-92570952D01*
X18780000Y-92570952D02*
X18780000Y-90070952D01*
X18541904Y-90428095D01*
X18303809Y-90666190D01*
X18065714Y-90785238D01*
X30664285Y-7992857D02*
X30378571Y-7850000D01*
X30092857Y-7564285D01*
X29664285Y-7135714D01*
X29378571Y-6992857D01*
X29092857Y-6992857D01*
X29235714Y-7707142D02*
X28950000Y-7564285D01*
X28664285Y-7278571D01*
X28521428Y-6707142D01*
X28521428Y-5707142D01*
X28664285Y-5135714D01*
X28950000Y-4850000D01*
X29235714Y-4707142D01*
X29807142Y-4707142D01*
X30092857Y-4850000D01*
X30378571Y-5135714D01*
X30521428Y-5707142D01*
X30521428Y-6707142D01*
X30378571Y-7278571D01*
X30092857Y-7564285D01*
X29807142Y-7707142D01*
X29235714Y-7707142D01*
X33092857Y-5707142D02*
X33092857Y-7707142D01*
X31807142Y-5707142D02*
X31807142Y-7278571D01*
X31950000Y-7564285D01*
X32235714Y-7707142D01*
X32664285Y-7707142D01*
X32950000Y-7564285D01*
X33092857Y-7421428D01*
X35807142Y-7707142D02*
X35807142Y-6135714D01*
X35664285Y-5850000D01*
X35378571Y-5707142D01*
X34807142Y-5707142D01*
X34521428Y-5850000D01*
X35807142Y-7564285D02*
X35521428Y-7707142D01*
X34807142Y-7707142D01*
X34521428Y-7564285D01*
X34378571Y-7278571D01*
X34378571Y-6992857D01*
X34521428Y-6707142D01*
X34807142Y-6564285D01*
X35521428Y-6564285D01*
X35807142Y-6421428D01*
X38521428Y-7707142D02*
X38521428Y-4707142D01*
X38521428Y-7564285D02*
X38235714Y-7707142D01*
X37664285Y-7707142D01*
X37378571Y-7564285D01*
X37235714Y-7421428D01*
X37092857Y-7135714D01*
X37092857Y-6278571D01*
X37235714Y-5992857D01*
X37378571Y-5850000D01*
X37664285Y-5707142D01*
X38235714Y-5707142D01*
X38521428Y-5850000D01*
X42092857Y-6850000D02*
X43521428Y-6850000D01*
X41807142Y-7707142D02*
X42807142Y-4707142D01*
X43807142Y-7707142D01*
X44807142Y-7707142D02*
X44807142Y-4707142D01*
X45521428Y-4707142D01*
X45950000Y-4850000D01*
X46235714Y-5135714D01*
X46378571Y-5421428D01*
X46521428Y-5992857D01*
X46521428Y-6421428D01*
X46378571Y-6992857D01*
X46235714Y-7278571D01*
X45950000Y-7564285D01*
X45521428Y-7707142D01*
X44807142Y-7707142D01*
X47664285Y-7564285D02*
X48092857Y-7707142D01*
X48807142Y-7707142D01*
X49092857Y-7564285D01*
X49235714Y-7421428D01*
X49378571Y-7135714D01*
X49378571Y-6850000D01*
X49235714Y-6564285D01*
X49092857Y-6421428D01*
X48807142Y-6278571D01*
X48235714Y-6135714D01*
X47950000Y-5992857D01*
X47807142Y-5850000D01*
X47664285Y-5564285D01*
X47664285Y-5278571D01*
X47807142Y-4992857D01*
X47950000Y-4850000D01*
X48235714Y-4707142D01*
X48950000Y-4707142D01*
X49378571Y-4850000D01*
X52378571Y-7707142D02*
X51378571Y-6278571D01*
X50664285Y-7707142D02*
X50664285Y-4707142D01*
X51807142Y-4707142D01*
X52092857Y-4850000D01*
X52235714Y-4992857D01*
X52378571Y-5278571D01*
X52378571Y-5707142D01*
X52235714Y-5992857D01*
X52092857Y-6135714D01*
X51807142Y-6278571D01*
X50664285Y-6278571D01*
M02*
