G04 #@! TF.GenerationSoftware,KiCad,Pcbnew,5.1.6-c6e7f7d~87~ubuntu18.04.1*
G04 #@! TF.CreationDate,2020-08-19T10:21:35-04:00*
G04 #@! TF.ProjectId,quad_adsr,71756164-5f61-4647-9372-2e6b69636164,rev?*
G04 #@! TF.SameCoordinates,Original*
G04 #@! TF.FileFunction,Paste,Bot*
G04 #@! TF.FilePolarity,Positive*
%FSLAX46Y46*%
G04 Gerber Fmt 4.6, Leading zero omitted, Abs format (unit mm)*
G04 Created by KiCad (PCBNEW 5.1.6-c6e7f7d~87~ubuntu18.04.1) date 2020-08-19 10:21:35*
%MOMM*%
%LPD*%
G01*
G04 APERTURE LIST*
%ADD10R,0.900000X0.800000*%
%ADD11R,0.900000X1.200000*%
%ADD12R,1.500000X2.000000*%
%ADD13R,3.800000X2.000000*%
%ADD14R,0.800000X0.900000*%
%ADD15R,1.400000X1.200000*%
G04 APERTURE END LIST*
D10*
X133953000Y-118872000D03*
X131953000Y-117922000D03*
X131953000Y-119822000D03*
G36*
G01*
X81742060Y-61498840D02*
X81397060Y-61498840D01*
G75*
G02*
X81249560Y-61351340I0J147500D01*
G01*
X81249560Y-61056340D01*
G75*
G02*
X81397060Y-60908840I147500J0D01*
G01*
X81742060Y-60908840D01*
G75*
G02*
X81889560Y-61056340I0J-147500D01*
G01*
X81889560Y-61351340D01*
G75*
G02*
X81742060Y-61498840I-147500J0D01*
G01*
G37*
G36*
G01*
X81742060Y-62468840D02*
X81397060Y-62468840D01*
G75*
G02*
X81249560Y-62321340I0J147500D01*
G01*
X81249560Y-62026340D01*
G75*
G02*
X81397060Y-61878840I147500J0D01*
G01*
X81742060Y-61878840D01*
G75*
G02*
X81889560Y-62026340I0J-147500D01*
G01*
X81889560Y-62321340D01*
G75*
G02*
X81742060Y-62468840I-147500J0D01*
G01*
G37*
G36*
G01*
X82841960Y-61200160D02*
X83141960Y-61200160D01*
G75*
G02*
X83291960Y-61350160I0J-150000D01*
G01*
X83291960Y-63000160D01*
G75*
G02*
X83141960Y-63150160I-150000J0D01*
G01*
X82841960Y-63150160D01*
G75*
G02*
X82691960Y-63000160I0J150000D01*
G01*
X82691960Y-61350160D01*
G75*
G02*
X82841960Y-61200160I150000J0D01*
G01*
G37*
G36*
G01*
X84111960Y-61200160D02*
X84411960Y-61200160D01*
G75*
G02*
X84561960Y-61350160I0J-150000D01*
G01*
X84561960Y-63000160D01*
G75*
G02*
X84411960Y-63150160I-150000J0D01*
G01*
X84111960Y-63150160D01*
G75*
G02*
X83961960Y-63000160I0J150000D01*
G01*
X83961960Y-61350160D01*
G75*
G02*
X84111960Y-61200160I150000J0D01*
G01*
G37*
G36*
G01*
X85381960Y-61200160D02*
X85681960Y-61200160D01*
G75*
G02*
X85831960Y-61350160I0J-150000D01*
G01*
X85831960Y-63000160D01*
G75*
G02*
X85681960Y-63150160I-150000J0D01*
G01*
X85381960Y-63150160D01*
G75*
G02*
X85231960Y-63000160I0J150000D01*
G01*
X85231960Y-61350160D01*
G75*
G02*
X85381960Y-61200160I150000J0D01*
G01*
G37*
G36*
G01*
X86651960Y-61200160D02*
X86951960Y-61200160D01*
G75*
G02*
X87101960Y-61350160I0J-150000D01*
G01*
X87101960Y-63000160D01*
G75*
G02*
X86951960Y-63150160I-150000J0D01*
G01*
X86651960Y-63150160D01*
G75*
G02*
X86501960Y-63000160I0J150000D01*
G01*
X86501960Y-61350160D01*
G75*
G02*
X86651960Y-61200160I150000J0D01*
G01*
G37*
G36*
G01*
X86651960Y-56250160D02*
X86951960Y-56250160D01*
G75*
G02*
X87101960Y-56400160I0J-150000D01*
G01*
X87101960Y-58050160D01*
G75*
G02*
X86951960Y-58200160I-150000J0D01*
G01*
X86651960Y-58200160D01*
G75*
G02*
X86501960Y-58050160I0J150000D01*
G01*
X86501960Y-56400160D01*
G75*
G02*
X86651960Y-56250160I150000J0D01*
G01*
G37*
G36*
G01*
X85381960Y-56250160D02*
X85681960Y-56250160D01*
G75*
G02*
X85831960Y-56400160I0J-150000D01*
G01*
X85831960Y-58050160D01*
G75*
G02*
X85681960Y-58200160I-150000J0D01*
G01*
X85381960Y-58200160D01*
G75*
G02*
X85231960Y-58050160I0J150000D01*
G01*
X85231960Y-56400160D01*
G75*
G02*
X85381960Y-56250160I150000J0D01*
G01*
G37*
G36*
G01*
X84111960Y-56250160D02*
X84411960Y-56250160D01*
G75*
G02*
X84561960Y-56400160I0J-150000D01*
G01*
X84561960Y-58050160D01*
G75*
G02*
X84411960Y-58200160I-150000J0D01*
G01*
X84111960Y-58200160D01*
G75*
G02*
X83961960Y-58050160I0J150000D01*
G01*
X83961960Y-56400160D01*
G75*
G02*
X84111960Y-56250160I150000J0D01*
G01*
G37*
G36*
G01*
X82841960Y-56250160D02*
X83141960Y-56250160D01*
G75*
G02*
X83291960Y-56400160I0J-150000D01*
G01*
X83291960Y-58050160D01*
G75*
G02*
X83141960Y-58200160I-150000J0D01*
G01*
X82841960Y-58200160D01*
G75*
G02*
X82691960Y-58050160I0J150000D01*
G01*
X82691960Y-56400160D01*
G75*
G02*
X82841960Y-56250160I150000J0D01*
G01*
G37*
G36*
G01*
X88201790Y-60497100D02*
X88714290Y-60497100D01*
G75*
G02*
X88933040Y-60715850I0J-218750D01*
G01*
X88933040Y-61153350D01*
G75*
G02*
X88714290Y-61372100I-218750J0D01*
G01*
X88201790Y-61372100D01*
G75*
G02*
X87983040Y-61153350I0J218750D01*
G01*
X87983040Y-60715850D01*
G75*
G02*
X88201790Y-60497100I218750J0D01*
G01*
G37*
G36*
G01*
X88201790Y-58922100D02*
X88714290Y-58922100D01*
G75*
G02*
X88933040Y-59140850I0J-218750D01*
G01*
X88933040Y-59578350D01*
G75*
G02*
X88714290Y-59797100I-218750J0D01*
G01*
X88201790Y-59797100D01*
G75*
G02*
X87983040Y-59578350I0J218750D01*
G01*
X87983040Y-59140850D01*
G75*
G02*
X88201790Y-58922100I218750J0D01*
G01*
G37*
G36*
G01*
X80222740Y-73621610D02*
X80222740Y-73109110D01*
G75*
G02*
X80441490Y-72890360I218750J0D01*
G01*
X80878990Y-72890360D01*
G75*
G02*
X81097740Y-73109110I0J-218750D01*
G01*
X81097740Y-73621610D01*
G75*
G02*
X80878990Y-73840360I-218750J0D01*
G01*
X80441490Y-73840360D01*
G75*
G02*
X80222740Y-73621610I0J218750D01*
G01*
G37*
G36*
G01*
X78647740Y-73621610D02*
X78647740Y-73109110D01*
G75*
G02*
X78866490Y-72890360I218750J0D01*
G01*
X79303990Y-72890360D01*
G75*
G02*
X79522740Y-73109110I0J-218750D01*
G01*
X79522740Y-73621610D01*
G75*
G02*
X79303990Y-73840360I-218750J0D01*
G01*
X78866490Y-73840360D01*
G75*
G02*
X78647740Y-73621610I0J218750D01*
G01*
G37*
D11*
X135227600Y-136906000D03*
X131927600Y-136906000D03*
X135278400Y-126746000D03*
X131978400Y-126746000D03*
X117396800Y-136906000D03*
X114096800Y-136906000D03*
X117447600Y-126746000D03*
X114147600Y-126746000D03*
X99616800Y-136906000D03*
X96316800Y-136906000D03*
X99616800Y-126746000D03*
X96316800Y-126746000D03*
X81836800Y-136956800D03*
X78536800Y-136956800D03*
X81940400Y-126746000D03*
X78640400Y-126746000D03*
G36*
G01*
X132968840Y-87112600D02*
X134218840Y-87112600D01*
G75*
G02*
X134468840Y-87362600I0J-250000D01*
G01*
X134468840Y-88112600D01*
G75*
G02*
X134218840Y-88362600I-250000J0D01*
G01*
X132968840Y-88362600D01*
G75*
G02*
X132718840Y-88112600I0J250000D01*
G01*
X132718840Y-87362600D01*
G75*
G02*
X132968840Y-87112600I250000J0D01*
G01*
G37*
G36*
G01*
X132968840Y-84312600D02*
X134218840Y-84312600D01*
G75*
G02*
X134468840Y-84562600I0J-250000D01*
G01*
X134468840Y-85312600D01*
G75*
G02*
X134218840Y-85562600I-250000J0D01*
G01*
X132968840Y-85562600D01*
G75*
G02*
X132718840Y-85312600I0J250000D01*
G01*
X132718840Y-84562600D01*
G75*
G02*
X132968840Y-84312600I250000J0D01*
G01*
G37*
G36*
G01*
X139589000Y-74031000D02*
X139589000Y-72781000D01*
G75*
G02*
X139839000Y-72531000I250000J0D01*
G01*
X140589000Y-72531000D01*
G75*
G02*
X140839000Y-72781000I0J-250000D01*
G01*
X140839000Y-74031000D01*
G75*
G02*
X140589000Y-74281000I-250000J0D01*
G01*
X139839000Y-74281000D01*
G75*
G02*
X139589000Y-74031000I0J250000D01*
G01*
G37*
G36*
G01*
X136789000Y-74031000D02*
X136789000Y-72781000D01*
G75*
G02*
X137039000Y-72531000I250000J0D01*
G01*
X137789000Y-72531000D01*
G75*
G02*
X138039000Y-72781000I0J-250000D01*
G01*
X138039000Y-74031000D01*
G75*
G02*
X137789000Y-74281000I-250000J0D01*
G01*
X137039000Y-74281000D01*
G75*
G02*
X136789000Y-74031000I0J250000D01*
G01*
G37*
G36*
G01*
X81651118Y-75275607D02*
X81407166Y-75519558D01*
G75*
G02*
X81198570Y-75519558I-104298J104298D01*
G01*
X80989974Y-75310962D01*
G75*
G02*
X80989974Y-75102366I104298J104298D01*
G01*
X81233926Y-74858414D01*
G75*
G02*
X81442522Y-74858414I104298J-104298D01*
G01*
X81651118Y-75067010D01*
G75*
G02*
X81651118Y-75275606I-104298J-104298D01*
G01*
G37*
G36*
G01*
X82337012Y-75961501D02*
X82093060Y-76205452D01*
G75*
G02*
X81884464Y-76205452I-104298J104298D01*
G01*
X81675868Y-75996856D01*
G75*
G02*
X81675868Y-75788260I104298J104298D01*
G01*
X81919820Y-75544308D01*
G75*
G02*
X82128416Y-75544308I104298J-104298D01*
G01*
X82337012Y-75752904D01*
G75*
G02*
X82337012Y-75961500I-104298J-104298D01*
G01*
G37*
G36*
G01*
X87493060Y-91566640D02*
X87838060Y-91566640D01*
G75*
G02*
X87985560Y-91714140I0J-147500D01*
G01*
X87985560Y-92009140D01*
G75*
G02*
X87838060Y-92156640I-147500J0D01*
G01*
X87493060Y-92156640D01*
G75*
G02*
X87345560Y-92009140I0J147500D01*
G01*
X87345560Y-91714140D01*
G75*
G02*
X87493060Y-91566640I147500J0D01*
G01*
G37*
G36*
G01*
X87493060Y-90596640D02*
X87838060Y-90596640D01*
G75*
G02*
X87985560Y-90744140I0J-147500D01*
G01*
X87985560Y-91039140D01*
G75*
G02*
X87838060Y-91186640I-147500J0D01*
G01*
X87493060Y-91186640D01*
G75*
G02*
X87345560Y-91039140I0J147500D01*
G01*
X87345560Y-90744140D01*
G75*
G02*
X87493060Y-90596640I147500J0D01*
G01*
G37*
G36*
G01*
X82840180Y-95974190D02*
X82840180Y-96486690D01*
G75*
G02*
X82621430Y-96705440I-218750J0D01*
G01*
X82183930Y-96705440D01*
G75*
G02*
X81965180Y-96486690I0J218750D01*
G01*
X81965180Y-95974190D01*
G75*
G02*
X82183930Y-95755440I218750J0D01*
G01*
X82621430Y-95755440D01*
G75*
G02*
X82840180Y-95974190I0J-218750D01*
G01*
G37*
G36*
G01*
X84415180Y-95974190D02*
X84415180Y-96486690D01*
G75*
G02*
X84196430Y-96705440I-218750J0D01*
G01*
X83758930Y-96705440D01*
G75*
G02*
X83540180Y-96486690I0J218750D01*
G01*
X83540180Y-95974190D01*
G75*
G02*
X83758930Y-95755440I218750J0D01*
G01*
X84196430Y-95755440D01*
G75*
G02*
X84415180Y-95974190I0J-218750D01*
G01*
G37*
G36*
G01*
X140746700Y-98287200D02*
X141091700Y-98287200D01*
G75*
G02*
X141239200Y-98434700I0J-147500D01*
G01*
X141239200Y-98729700D01*
G75*
G02*
X141091700Y-98877200I-147500J0D01*
G01*
X140746700Y-98877200D01*
G75*
G02*
X140599200Y-98729700I0J147500D01*
G01*
X140599200Y-98434700D01*
G75*
G02*
X140746700Y-98287200I147500J0D01*
G01*
G37*
G36*
G01*
X140746700Y-97317200D02*
X141091700Y-97317200D01*
G75*
G02*
X141239200Y-97464700I0J-147500D01*
G01*
X141239200Y-97759700D01*
G75*
G02*
X141091700Y-97907200I-147500J0D01*
G01*
X140746700Y-97907200D01*
G75*
G02*
X140599200Y-97759700I0J147500D01*
G01*
X140599200Y-97464700D01*
G75*
G02*
X140746700Y-97317200I147500J0D01*
G01*
G37*
G36*
G01*
X140126500Y-97907200D02*
X139781500Y-97907200D01*
G75*
G02*
X139634000Y-97759700I0J147500D01*
G01*
X139634000Y-97464700D01*
G75*
G02*
X139781500Y-97317200I147500J0D01*
G01*
X140126500Y-97317200D01*
G75*
G02*
X140274000Y-97464700I0J-147500D01*
G01*
X140274000Y-97759700D01*
G75*
G02*
X140126500Y-97907200I-147500J0D01*
G01*
G37*
G36*
G01*
X140126500Y-98877200D02*
X139781500Y-98877200D01*
G75*
G02*
X139634000Y-98729700I0J147500D01*
G01*
X139634000Y-98434700D01*
G75*
G02*
X139781500Y-98287200I147500J0D01*
G01*
X140126500Y-98287200D01*
G75*
G02*
X140274000Y-98434700I0J-147500D01*
G01*
X140274000Y-98729700D01*
G75*
G02*
X140126500Y-98877200I-147500J0D01*
G01*
G37*
G36*
G01*
X136062500Y-106467000D02*
X135717500Y-106467000D01*
G75*
G02*
X135570000Y-106319500I0J147500D01*
G01*
X135570000Y-106024500D01*
G75*
G02*
X135717500Y-105877000I147500J0D01*
G01*
X136062500Y-105877000D01*
G75*
G02*
X136210000Y-106024500I0J-147500D01*
G01*
X136210000Y-106319500D01*
G75*
G02*
X136062500Y-106467000I-147500J0D01*
G01*
G37*
G36*
G01*
X136062500Y-107437000D02*
X135717500Y-107437000D01*
G75*
G02*
X135570000Y-107289500I0J147500D01*
G01*
X135570000Y-106994500D01*
G75*
G02*
X135717500Y-106847000I147500J0D01*
G01*
X136062500Y-106847000D01*
G75*
G02*
X136210000Y-106994500I0J-147500D01*
G01*
X136210000Y-107289500D01*
G75*
G02*
X136062500Y-107437000I-147500J0D01*
G01*
G37*
G36*
G01*
X136733500Y-106847000D02*
X137078500Y-106847000D01*
G75*
G02*
X137226000Y-106994500I0J-147500D01*
G01*
X137226000Y-107289500D01*
G75*
G02*
X137078500Y-107437000I-147500J0D01*
G01*
X136733500Y-107437000D01*
G75*
G02*
X136586000Y-107289500I0J147500D01*
G01*
X136586000Y-106994500D01*
G75*
G02*
X136733500Y-106847000I147500J0D01*
G01*
G37*
G36*
G01*
X136733500Y-105877000D02*
X137078500Y-105877000D01*
G75*
G02*
X137226000Y-106024500I0J-147500D01*
G01*
X137226000Y-106319500D01*
G75*
G02*
X137078500Y-106467000I-147500J0D01*
G01*
X136733500Y-106467000D01*
G75*
G02*
X136586000Y-106319500I0J147500D01*
G01*
X136586000Y-106024500D01*
G75*
G02*
X136733500Y-105877000I147500J0D01*
G01*
G37*
G36*
G01*
X139781500Y-106870000D02*
X140126500Y-106870000D01*
G75*
G02*
X140274000Y-107017500I0J-147500D01*
G01*
X140274000Y-107312500D01*
G75*
G02*
X140126500Y-107460000I-147500J0D01*
G01*
X139781500Y-107460000D01*
G75*
G02*
X139634000Y-107312500I0J147500D01*
G01*
X139634000Y-107017500D01*
G75*
G02*
X139781500Y-106870000I147500J0D01*
G01*
G37*
G36*
G01*
X139781500Y-105900000D02*
X140126500Y-105900000D01*
G75*
G02*
X140274000Y-106047500I0J-147500D01*
G01*
X140274000Y-106342500D01*
G75*
G02*
X140126500Y-106490000I-147500J0D01*
G01*
X139781500Y-106490000D01*
G75*
G02*
X139634000Y-106342500I0J147500D01*
G01*
X139634000Y-106047500D01*
G75*
G02*
X139781500Y-105900000I147500J0D01*
G01*
G37*
G36*
G01*
X141142500Y-106490000D02*
X140797500Y-106490000D01*
G75*
G02*
X140650000Y-106342500I0J147500D01*
G01*
X140650000Y-106047500D01*
G75*
G02*
X140797500Y-105900000I147500J0D01*
G01*
X141142500Y-105900000D01*
G75*
G02*
X141290000Y-106047500I0J-147500D01*
G01*
X141290000Y-106342500D01*
G75*
G02*
X141142500Y-106490000I-147500J0D01*
G01*
G37*
G36*
G01*
X141142500Y-107460000D02*
X140797500Y-107460000D01*
G75*
G02*
X140650000Y-107312500I0J147500D01*
G01*
X140650000Y-107017500D01*
G75*
G02*
X140797500Y-106870000I147500J0D01*
G01*
X141142500Y-106870000D01*
G75*
G02*
X141290000Y-107017500I0J-147500D01*
G01*
X141290000Y-107312500D01*
G75*
G02*
X141142500Y-107460000I-147500J0D01*
G01*
G37*
G36*
G01*
X122992100Y-84317200D02*
X123337100Y-84317200D01*
G75*
G02*
X123484600Y-84464700I0J-147500D01*
G01*
X123484600Y-84759700D01*
G75*
G02*
X123337100Y-84907200I-147500J0D01*
G01*
X122992100Y-84907200D01*
G75*
G02*
X122844600Y-84759700I0J147500D01*
G01*
X122844600Y-84464700D01*
G75*
G02*
X122992100Y-84317200I147500J0D01*
G01*
G37*
G36*
G01*
X122992100Y-83347200D02*
X123337100Y-83347200D01*
G75*
G02*
X123484600Y-83494700I0J-147500D01*
G01*
X123484600Y-83789700D01*
G75*
G02*
X123337100Y-83937200I-147500J0D01*
G01*
X122992100Y-83937200D01*
G75*
G02*
X122844600Y-83789700I0J147500D01*
G01*
X122844600Y-83494700D01*
G75*
G02*
X122992100Y-83347200I147500J0D01*
G01*
G37*
G36*
G01*
X121976100Y-84317200D02*
X122321100Y-84317200D01*
G75*
G02*
X122468600Y-84464700I0J-147500D01*
G01*
X122468600Y-84759700D01*
G75*
G02*
X122321100Y-84907200I-147500J0D01*
G01*
X121976100Y-84907200D01*
G75*
G02*
X121828600Y-84759700I0J147500D01*
G01*
X121828600Y-84464700D01*
G75*
G02*
X121976100Y-84317200I147500J0D01*
G01*
G37*
G36*
G01*
X121976100Y-83347200D02*
X122321100Y-83347200D01*
G75*
G02*
X122468600Y-83494700I0J-147500D01*
G01*
X122468600Y-83789700D01*
G75*
G02*
X122321100Y-83937200I-147500J0D01*
G01*
X121976100Y-83937200D01*
G75*
G02*
X121828600Y-83789700I0J147500D01*
G01*
X121828600Y-83494700D01*
G75*
G02*
X121976100Y-83347200I147500J0D01*
G01*
G37*
G36*
G01*
X118282500Y-92543000D02*
X117937500Y-92543000D01*
G75*
G02*
X117790000Y-92395500I0J147500D01*
G01*
X117790000Y-92100500D01*
G75*
G02*
X117937500Y-91953000I147500J0D01*
G01*
X118282500Y-91953000D01*
G75*
G02*
X118430000Y-92100500I0J-147500D01*
G01*
X118430000Y-92395500D01*
G75*
G02*
X118282500Y-92543000I-147500J0D01*
G01*
G37*
G36*
G01*
X118282500Y-93513000D02*
X117937500Y-93513000D01*
G75*
G02*
X117790000Y-93365500I0J147500D01*
G01*
X117790000Y-93070500D01*
G75*
G02*
X117937500Y-92923000I147500J0D01*
G01*
X118282500Y-92923000D01*
G75*
G02*
X118430000Y-93070500I0J-147500D01*
G01*
X118430000Y-93365500D01*
G75*
G02*
X118282500Y-93513000I-147500J0D01*
G01*
G37*
G36*
G01*
X118953500Y-92923000D02*
X119298500Y-92923000D01*
G75*
G02*
X119446000Y-93070500I0J-147500D01*
G01*
X119446000Y-93365500D01*
G75*
G02*
X119298500Y-93513000I-147500J0D01*
G01*
X118953500Y-93513000D01*
G75*
G02*
X118806000Y-93365500I0J147500D01*
G01*
X118806000Y-93070500D01*
G75*
G02*
X118953500Y-92923000I147500J0D01*
G01*
G37*
G36*
G01*
X118953500Y-91953000D02*
X119298500Y-91953000D01*
G75*
G02*
X119446000Y-92100500I0J-147500D01*
G01*
X119446000Y-92395500D01*
G75*
G02*
X119298500Y-92543000I-147500J0D01*
G01*
X118953500Y-92543000D01*
G75*
G02*
X118806000Y-92395500I0J147500D01*
G01*
X118806000Y-92100500D01*
G75*
G02*
X118953500Y-91953000I147500J0D01*
G01*
G37*
G36*
G01*
X121950700Y-92877000D02*
X122295700Y-92877000D01*
G75*
G02*
X122443200Y-93024500I0J-147500D01*
G01*
X122443200Y-93319500D01*
G75*
G02*
X122295700Y-93467000I-147500J0D01*
G01*
X121950700Y-93467000D01*
G75*
G02*
X121803200Y-93319500I0J147500D01*
G01*
X121803200Y-93024500D01*
G75*
G02*
X121950700Y-92877000I147500J0D01*
G01*
G37*
G36*
G01*
X121950700Y-91907000D02*
X122295700Y-91907000D01*
G75*
G02*
X122443200Y-92054500I0J-147500D01*
G01*
X122443200Y-92349500D01*
G75*
G02*
X122295700Y-92497000I-147500J0D01*
G01*
X121950700Y-92497000D01*
G75*
G02*
X121803200Y-92349500I0J147500D01*
G01*
X121803200Y-92054500D01*
G75*
G02*
X121950700Y-91907000I147500J0D01*
G01*
G37*
G36*
G01*
X123311700Y-92497000D02*
X122966700Y-92497000D01*
G75*
G02*
X122819200Y-92349500I0J147500D01*
G01*
X122819200Y-92054500D01*
G75*
G02*
X122966700Y-91907000I147500J0D01*
G01*
X123311700Y-91907000D01*
G75*
G02*
X123459200Y-92054500I0J-147500D01*
G01*
X123459200Y-92349500D01*
G75*
G02*
X123311700Y-92497000I-147500J0D01*
G01*
G37*
G36*
G01*
X123311700Y-93467000D02*
X122966700Y-93467000D01*
G75*
G02*
X122819200Y-93319500I0J147500D01*
G01*
X122819200Y-93024500D01*
G75*
G02*
X122966700Y-92877000I147500J0D01*
G01*
X123311700Y-92877000D01*
G75*
G02*
X123459200Y-93024500I0J-147500D01*
G01*
X123459200Y-93319500D01*
G75*
G02*
X123311700Y-93467000I-147500J0D01*
G01*
G37*
G36*
G01*
X108793500Y-67477000D02*
X109138500Y-67477000D01*
G75*
G02*
X109286000Y-67624500I0J-147500D01*
G01*
X109286000Y-67919500D01*
G75*
G02*
X109138500Y-68067000I-147500J0D01*
G01*
X108793500Y-68067000D01*
G75*
G02*
X108646000Y-67919500I0J147500D01*
G01*
X108646000Y-67624500D01*
G75*
G02*
X108793500Y-67477000I147500J0D01*
G01*
G37*
G36*
G01*
X108793500Y-66507000D02*
X109138500Y-66507000D01*
G75*
G02*
X109286000Y-66654500I0J-147500D01*
G01*
X109286000Y-66949500D01*
G75*
G02*
X109138500Y-67097000I-147500J0D01*
G01*
X108793500Y-67097000D01*
G75*
G02*
X108646000Y-66949500I0J147500D01*
G01*
X108646000Y-66654500D01*
G75*
G02*
X108793500Y-66507000I147500J0D01*
G01*
G37*
G36*
G01*
X107868500Y-67097000D02*
X107523500Y-67097000D01*
G75*
G02*
X107376000Y-66949500I0J147500D01*
G01*
X107376000Y-66654500D01*
G75*
G02*
X107523500Y-66507000I147500J0D01*
G01*
X107868500Y-66507000D01*
G75*
G02*
X108016000Y-66654500I0J-147500D01*
G01*
X108016000Y-66949500D01*
G75*
G02*
X107868500Y-67097000I-147500J0D01*
G01*
G37*
G36*
G01*
X107868500Y-68067000D02*
X107523500Y-68067000D01*
G75*
G02*
X107376000Y-67919500I0J147500D01*
G01*
X107376000Y-67624500D01*
G75*
G02*
X107523500Y-67477000I147500J0D01*
G01*
X107868500Y-67477000D01*
G75*
G02*
X108016000Y-67624500I0J-147500D01*
G01*
X108016000Y-67919500D01*
G75*
G02*
X107868500Y-68067000I-147500J0D01*
G01*
G37*
G36*
G01*
X100502500Y-78527000D02*
X100157500Y-78527000D01*
G75*
G02*
X100010000Y-78379500I0J147500D01*
G01*
X100010000Y-78084500D01*
G75*
G02*
X100157500Y-77937000I147500J0D01*
G01*
X100502500Y-77937000D01*
G75*
G02*
X100650000Y-78084500I0J-147500D01*
G01*
X100650000Y-78379500D01*
G75*
G02*
X100502500Y-78527000I-147500J0D01*
G01*
G37*
G36*
G01*
X100502500Y-79497000D02*
X100157500Y-79497000D01*
G75*
G02*
X100010000Y-79349500I0J147500D01*
G01*
X100010000Y-79054500D01*
G75*
G02*
X100157500Y-78907000I147500J0D01*
G01*
X100502500Y-78907000D01*
G75*
G02*
X100650000Y-79054500I0J-147500D01*
G01*
X100650000Y-79349500D01*
G75*
G02*
X100502500Y-79497000I-147500J0D01*
G01*
G37*
G36*
G01*
X101173500Y-78907000D02*
X101518500Y-78907000D01*
G75*
G02*
X101666000Y-79054500I0J-147500D01*
G01*
X101666000Y-79349500D01*
G75*
G02*
X101518500Y-79497000I-147500J0D01*
G01*
X101173500Y-79497000D01*
G75*
G02*
X101026000Y-79349500I0J147500D01*
G01*
X101026000Y-79054500D01*
G75*
G02*
X101173500Y-78907000I147500J0D01*
G01*
G37*
G36*
G01*
X101173500Y-77937000D02*
X101518500Y-77937000D01*
G75*
G02*
X101666000Y-78084500I0J-147500D01*
G01*
X101666000Y-78379500D01*
G75*
G02*
X101518500Y-78527000I-147500J0D01*
G01*
X101173500Y-78527000D01*
G75*
G02*
X101026000Y-78379500I0J147500D01*
G01*
X101026000Y-78084500D01*
G75*
G02*
X101173500Y-77937000I147500J0D01*
G01*
G37*
G36*
G01*
X104170700Y-78907000D02*
X104515700Y-78907000D01*
G75*
G02*
X104663200Y-79054500I0J-147500D01*
G01*
X104663200Y-79349500D01*
G75*
G02*
X104515700Y-79497000I-147500J0D01*
G01*
X104170700Y-79497000D01*
G75*
G02*
X104023200Y-79349500I0J147500D01*
G01*
X104023200Y-79054500D01*
G75*
G02*
X104170700Y-78907000I147500J0D01*
G01*
G37*
G36*
G01*
X104170700Y-77937000D02*
X104515700Y-77937000D01*
G75*
G02*
X104663200Y-78084500I0J-147500D01*
G01*
X104663200Y-78379500D01*
G75*
G02*
X104515700Y-78527000I-147500J0D01*
G01*
X104170700Y-78527000D01*
G75*
G02*
X104023200Y-78379500I0J147500D01*
G01*
X104023200Y-78084500D01*
G75*
G02*
X104170700Y-77937000I147500J0D01*
G01*
G37*
G36*
G01*
X105531700Y-78527000D02*
X105186700Y-78527000D01*
G75*
G02*
X105039200Y-78379500I0J147500D01*
G01*
X105039200Y-78084500D01*
G75*
G02*
X105186700Y-77937000I147500J0D01*
G01*
X105531700Y-77937000D01*
G75*
G02*
X105679200Y-78084500I0J-147500D01*
G01*
X105679200Y-78379500D01*
G75*
G02*
X105531700Y-78527000I-147500J0D01*
G01*
G37*
G36*
G01*
X105531700Y-79497000D02*
X105186700Y-79497000D01*
G75*
G02*
X105039200Y-79349500I0J147500D01*
G01*
X105039200Y-79054500D01*
G75*
G02*
X105186700Y-78907000I147500J0D01*
G01*
X105531700Y-78907000D01*
G75*
G02*
X105679200Y-79054500I0J-147500D01*
G01*
X105679200Y-79349500D01*
G75*
G02*
X105531700Y-79497000I-147500J0D01*
G01*
G37*
G36*
G01*
X87432100Y-55107200D02*
X87777100Y-55107200D01*
G75*
G02*
X87924600Y-55254700I0J-147500D01*
G01*
X87924600Y-55549700D01*
G75*
G02*
X87777100Y-55697200I-147500J0D01*
G01*
X87432100Y-55697200D01*
G75*
G02*
X87284600Y-55549700I0J147500D01*
G01*
X87284600Y-55254700D01*
G75*
G02*
X87432100Y-55107200I147500J0D01*
G01*
G37*
G36*
G01*
X87432100Y-54137200D02*
X87777100Y-54137200D01*
G75*
G02*
X87924600Y-54284700I0J-147500D01*
G01*
X87924600Y-54579700D01*
G75*
G02*
X87777100Y-54727200I-147500J0D01*
G01*
X87432100Y-54727200D01*
G75*
G02*
X87284600Y-54579700I0J147500D01*
G01*
X87284600Y-54284700D01*
G75*
G02*
X87432100Y-54137200I147500J0D01*
G01*
G37*
G36*
G01*
X86416100Y-55107200D02*
X86761100Y-55107200D01*
G75*
G02*
X86908600Y-55254700I0J-147500D01*
G01*
X86908600Y-55549700D01*
G75*
G02*
X86761100Y-55697200I-147500J0D01*
G01*
X86416100Y-55697200D01*
G75*
G02*
X86268600Y-55549700I0J147500D01*
G01*
X86268600Y-55254700D01*
G75*
G02*
X86416100Y-55107200I147500J0D01*
G01*
G37*
G36*
G01*
X86416100Y-54137200D02*
X86761100Y-54137200D01*
G75*
G02*
X86908600Y-54284700I0J-147500D01*
G01*
X86908600Y-54579700D01*
G75*
G02*
X86761100Y-54727200I-147500J0D01*
G01*
X86416100Y-54727200D01*
G75*
G02*
X86268600Y-54579700I0J147500D01*
G01*
X86268600Y-54284700D01*
G75*
G02*
X86416100Y-54137200I147500J0D01*
G01*
G37*
G36*
G01*
X82722500Y-64857000D02*
X82377500Y-64857000D01*
G75*
G02*
X82230000Y-64709500I0J147500D01*
G01*
X82230000Y-64414500D01*
G75*
G02*
X82377500Y-64267000I147500J0D01*
G01*
X82722500Y-64267000D01*
G75*
G02*
X82870000Y-64414500I0J-147500D01*
G01*
X82870000Y-64709500D01*
G75*
G02*
X82722500Y-64857000I-147500J0D01*
G01*
G37*
G36*
G01*
X82722500Y-65827000D02*
X82377500Y-65827000D01*
G75*
G02*
X82230000Y-65679500I0J147500D01*
G01*
X82230000Y-65384500D01*
G75*
G02*
X82377500Y-65237000I147500J0D01*
G01*
X82722500Y-65237000D01*
G75*
G02*
X82870000Y-65384500I0J-147500D01*
G01*
X82870000Y-65679500D01*
G75*
G02*
X82722500Y-65827000I-147500J0D01*
G01*
G37*
G36*
G01*
X83393500Y-65237000D02*
X83738500Y-65237000D01*
G75*
G02*
X83886000Y-65384500I0J-147500D01*
G01*
X83886000Y-65679500D01*
G75*
G02*
X83738500Y-65827000I-147500J0D01*
G01*
X83393500Y-65827000D01*
G75*
G02*
X83246000Y-65679500I0J147500D01*
G01*
X83246000Y-65384500D01*
G75*
G02*
X83393500Y-65237000I147500J0D01*
G01*
G37*
G36*
G01*
X83393500Y-64267000D02*
X83738500Y-64267000D01*
G75*
G02*
X83886000Y-64414500I0J-147500D01*
G01*
X83886000Y-64709500D01*
G75*
G02*
X83738500Y-64857000I-147500J0D01*
G01*
X83393500Y-64857000D01*
G75*
G02*
X83246000Y-64709500I0J147500D01*
G01*
X83246000Y-64414500D01*
G75*
G02*
X83393500Y-64267000I147500J0D01*
G01*
G37*
G36*
G01*
X86390700Y-65237000D02*
X86735700Y-65237000D01*
G75*
G02*
X86883200Y-65384500I0J-147500D01*
G01*
X86883200Y-65679500D01*
G75*
G02*
X86735700Y-65827000I-147500J0D01*
G01*
X86390700Y-65827000D01*
G75*
G02*
X86243200Y-65679500I0J147500D01*
G01*
X86243200Y-65384500D01*
G75*
G02*
X86390700Y-65237000I147500J0D01*
G01*
G37*
G36*
G01*
X86390700Y-64267000D02*
X86735700Y-64267000D01*
G75*
G02*
X86883200Y-64414500I0J-147500D01*
G01*
X86883200Y-64709500D01*
G75*
G02*
X86735700Y-64857000I-147500J0D01*
G01*
X86390700Y-64857000D01*
G75*
G02*
X86243200Y-64709500I0J147500D01*
G01*
X86243200Y-64414500D01*
G75*
G02*
X86390700Y-64267000I147500J0D01*
G01*
G37*
G36*
G01*
X87751700Y-64857000D02*
X87406700Y-64857000D01*
G75*
G02*
X87259200Y-64709500I0J147500D01*
G01*
X87259200Y-64414500D01*
G75*
G02*
X87406700Y-64267000I147500J0D01*
G01*
X87751700Y-64267000D01*
G75*
G02*
X87899200Y-64414500I0J-147500D01*
G01*
X87899200Y-64709500D01*
G75*
G02*
X87751700Y-64857000I-147500J0D01*
G01*
G37*
G36*
G01*
X87751700Y-65827000D02*
X87406700Y-65827000D01*
G75*
G02*
X87259200Y-65679500I0J147500D01*
G01*
X87259200Y-65384500D01*
G75*
G02*
X87406700Y-65237000I147500J0D01*
G01*
X87751700Y-65237000D01*
G75*
G02*
X87899200Y-65384500I0J-147500D01*
G01*
X87899200Y-65679500D01*
G75*
G02*
X87751700Y-65827000I-147500J0D01*
G01*
G37*
G36*
G01*
X78191621Y-78282428D02*
X78435572Y-78526380D01*
G75*
G02*
X78435572Y-78734976I-104298J-104298D01*
G01*
X78226976Y-78943572D01*
G75*
G02*
X78018380Y-78943572I-104298J104298D01*
G01*
X77774428Y-78699620D01*
G75*
G02*
X77774428Y-78491024I104298J104298D01*
G01*
X77983024Y-78282428D01*
G75*
G02*
X78191620Y-78282428I104298J-104298D01*
G01*
G37*
G36*
G01*
X78877515Y-77596534D02*
X79121466Y-77840486D01*
G75*
G02*
X79121466Y-78049082I-104298J-104298D01*
G01*
X78912870Y-78257678D01*
G75*
G02*
X78704274Y-78257678I-104298J104298D01*
G01*
X78460322Y-78013726D01*
G75*
G02*
X78460322Y-77805130I104298J104298D01*
G01*
X78668918Y-77596534D01*
G75*
G02*
X78877514Y-77596534I104298J-104298D01*
G01*
G37*
G36*
G01*
X78940874Y-79031775D02*
X79184825Y-79275727D01*
G75*
G02*
X79184825Y-79484323I-104298J-104298D01*
G01*
X78976229Y-79692919D01*
G75*
G02*
X78767633Y-79692919I-104298J104298D01*
G01*
X78523681Y-79448967D01*
G75*
G02*
X78523681Y-79240371I104298J104298D01*
G01*
X78732277Y-79031775D01*
G75*
G02*
X78940873Y-79031775I104298J-104298D01*
G01*
G37*
G36*
G01*
X79626768Y-78345881D02*
X79870719Y-78589833D01*
G75*
G02*
X79870719Y-78798429I-104298J-104298D01*
G01*
X79662123Y-79007025D01*
G75*
G02*
X79453527Y-79007025I-104298J104298D01*
G01*
X79209575Y-78763073D01*
G75*
G02*
X79209575Y-78554477I104298J104298D01*
G01*
X79418171Y-78345881D01*
G75*
G02*
X79626767Y-78345881I104298J-104298D01*
G01*
G37*
G36*
G01*
X79304100Y-90129000D02*
X79649100Y-90129000D01*
G75*
G02*
X79796600Y-90276500I0J-147500D01*
G01*
X79796600Y-90571500D01*
G75*
G02*
X79649100Y-90719000I-147500J0D01*
G01*
X79304100Y-90719000D01*
G75*
G02*
X79156600Y-90571500I0J147500D01*
G01*
X79156600Y-90276500D01*
G75*
G02*
X79304100Y-90129000I147500J0D01*
G01*
G37*
G36*
G01*
X79304100Y-89159000D02*
X79649100Y-89159000D01*
G75*
G02*
X79796600Y-89306500I0J-147500D01*
G01*
X79796600Y-89601500D01*
G75*
G02*
X79649100Y-89749000I-147500J0D01*
G01*
X79304100Y-89749000D01*
G75*
G02*
X79156600Y-89601500I0J147500D01*
G01*
X79156600Y-89306500D01*
G75*
G02*
X79304100Y-89159000I147500J0D01*
G01*
G37*
G36*
G01*
X88330397Y-89127327D02*
X87340447Y-88137377D01*
G75*
G02*
X87340447Y-88031311I53033J53033D01*
G01*
X87446513Y-87925245D01*
G75*
G02*
X87552579Y-87925245I53033J-53033D01*
G01*
X88542529Y-88915195D01*
G75*
G02*
X88542529Y-89021261I-53033J-53033D01*
G01*
X88436463Y-89127327D01*
G75*
G02*
X88330397Y-89127327I-53033J53033D01*
G01*
G37*
G36*
G01*
X88683950Y-88773774D02*
X87694000Y-87783824D01*
G75*
G02*
X87694000Y-87677758I53033J53033D01*
G01*
X87800066Y-87571692D01*
G75*
G02*
X87906132Y-87571692I53033J-53033D01*
G01*
X88896082Y-88561642D01*
G75*
G02*
X88896082Y-88667708I-53033J-53033D01*
G01*
X88790016Y-88773774D01*
G75*
G02*
X88683950Y-88773774I-53033J53033D01*
G01*
G37*
G36*
G01*
X89037503Y-88420221D02*
X88047553Y-87430271D01*
G75*
G02*
X88047553Y-87324205I53033J53033D01*
G01*
X88153619Y-87218139D01*
G75*
G02*
X88259685Y-87218139I53033J-53033D01*
G01*
X89249635Y-88208089D01*
G75*
G02*
X89249635Y-88314155I-53033J-53033D01*
G01*
X89143569Y-88420221D01*
G75*
G02*
X89037503Y-88420221I-53033J53033D01*
G01*
G37*
G36*
G01*
X89391057Y-88066667D02*
X88401107Y-87076717D01*
G75*
G02*
X88401107Y-86970651I53033J53033D01*
G01*
X88507173Y-86864585D01*
G75*
G02*
X88613239Y-86864585I53033J-53033D01*
G01*
X89603189Y-87854535D01*
G75*
G02*
X89603189Y-87960601I-53033J-53033D01*
G01*
X89497123Y-88066667D01*
G75*
G02*
X89391057Y-88066667I-53033J53033D01*
G01*
G37*
G36*
G01*
X89744610Y-87713114D02*
X88754660Y-86723164D01*
G75*
G02*
X88754660Y-86617098I53033J53033D01*
G01*
X88860726Y-86511032D01*
G75*
G02*
X88966792Y-86511032I53033J-53033D01*
G01*
X89956742Y-87500982D01*
G75*
G02*
X89956742Y-87607048I-53033J-53033D01*
G01*
X89850676Y-87713114D01*
G75*
G02*
X89744610Y-87713114I-53033J53033D01*
G01*
G37*
G36*
G01*
X90098164Y-87359560D02*
X89108214Y-86369610D01*
G75*
G02*
X89108214Y-86263544I53033J53033D01*
G01*
X89214280Y-86157478D01*
G75*
G02*
X89320346Y-86157478I53033J-53033D01*
G01*
X90310296Y-87147428D01*
G75*
G02*
X90310296Y-87253494I-53033J-53033D01*
G01*
X90204230Y-87359560D01*
G75*
G02*
X90098164Y-87359560I-53033J53033D01*
G01*
G37*
G36*
G01*
X90451717Y-87006007D02*
X89461767Y-86016057D01*
G75*
G02*
X89461767Y-85909991I53033J53033D01*
G01*
X89567833Y-85803925D01*
G75*
G02*
X89673899Y-85803925I53033J-53033D01*
G01*
X90663849Y-86793875D01*
G75*
G02*
X90663849Y-86899941I-53033J-53033D01*
G01*
X90557783Y-87006007D01*
G75*
G02*
X90451717Y-87006007I-53033J53033D01*
G01*
G37*
G36*
G01*
X90805270Y-86652454D02*
X89815320Y-85662504D01*
G75*
G02*
X89815320Y-85556438I53033J53033D01*
G01*
X89921386Y-85450372D01*
G75*
G02*
X90027452Y-85450372I53033J-53033D01*
G01*
X91017402Y-86440322D01*
G75*
G02*
X91017402Y-86546388I-53033J-53033D01*
G01*
X90911336Y-86652454D01*
G75*
G02*
X90805270Y-86652454I-53033J53033D01*
G01*
G37*
G36*
G01*
X91158824Y-86298900D02*
X90168874Y-85308950D01*
G75*
G02*
X90168874Y-85202884I53033J53033D01*
G01*
X90274940Y-85096818D01*
G75*
G02*
X90381006Y-85096818I53033J-53033D01*
G01*
X91370956Y-86086768D01*
G75*
G02*
X91370956Y-86192834I-53033J-53033D01*
G01*
X91264890Y-86298900D01*
G75*
G02*
X91158824Y-86298900I-53033J53033D01*
G01*
G37*
G36*
G01*
X91512377Y-85945347D02*
X90522427Y-84955397D01*
G75*
G02*
X90522427Y-84849331I53033J53033D01*
G01*
X90628493Y-84743265D01*
G75*
G02*
X90734559Y-84743265I53033J-53033D01*
G01*
X91724509Y-85733215D01*
G75*
G02*
X91724509Y-85839281I-53033J-53033D01*
G01*
X91618443Y-85945347D01*
G75*
G02*
X91512377Y-85945347I-53033J53033D01*
G01*
G37*
G36*
G01*
X91865930Y-85591794D02*
X90875980Y-84601844D01*
G75*
G02*
X90875980Y-84495778I53033J53033D01*
G01*
X90982046Y-84389712D01*
G75*
G02*
X91088112Y-84389712I53033J-53033D01*
G01*
X92078062Y-85379662D01*
G75*
G02*
X92078062Y-85485728I-53033J-53033D01*
G01*
X91971996Y-85591794D01*
G75*
G02*
X91865930Y-85591794I-53033J53033D01*
G01*
G37*
G36*
G01*
X92219484Y-85238240D02*
X91229534Y-84248290D01*
G75*
G02*
X91229534Y-84142224I53033J53033D01*
G01*
X91335600Y-84036158D01*
G75*
G02*
X91441666Y-84036158I53033J-53033D01*
G01*
X92431616Y-85026108D01*
G75*
G02*
X92431616Y-85132174I-53033J-53033D01*
G01*
X92325550Y-85238240D01*
G75*
G02*
X92219484Y-85238240I-53033J53033D01*
G01*
G37*
G36*
G01*
X92573037Y-84884687D02*
X91583087Y-83894737D01*
G75*
G02*
X91583087Y-83788671I53033J53033D01*
G01*
X91689153Y-83682605D01*
G75*
G02*
X91795219Y-83682605I53033J-53033D01*
G01*
X92785169Y-84672555D01*
G75*
G02*
X92785169Y-84778621I-53033J-53033D01*
G01*
X92679103Y-84884687D01*
G75*
G02*
X92573037Y-84884687I-53033J53033D01*
G01*
G37*
G36*
G01*
X92926591Y-84531133D02*
X91936641Y-83541183D01*
G75*
G02*
X91936641Y-83435117I53033J53033D01*
G01*
X92042707Y-83329051D01*
G75*
G02*
X92148773Y-83329051I53033J-53033D01*
G01*
X93138723Y-84319001D01*
G75*
G02*
X93138723Y-84425067I-53033J-53033D01*
G01*
X93032657Y-84531133D01*
G75*
G02*
X92926591Y-84531133I-53033J53033D01*
G01*
G37*
G36*
G01*
X93280144Y-84177580D02*
X92290194Y-83187630D01*
G75*
G02*
X92290194Y-83081564I53033J53033D01*
G01*
X92396260Y-82975498D01*
G75*
G02*
X92502326Y-82975498I53033J-53033D01*
G01*
X93492276Y-83965448D01*
G75*
G02*
X93492276Y-84071514I-53033J-53033D01*
G01*
X93386210Y-84177580D01*
G75*
G02*
X93280144Y-84177580I-53033J53033D01*
G01*
G37*
G36*
G01*
X93633697Y-83824027D02*
X92643747Y-82834077D01*
G75*
G02*
X92643747Y-82728011I53033J53033D01*
G01*
X92749813Y-82621945D01*
G75*
G02*
X92855879Y-82621945I53033J-53033D01*
G01*
X93845829Y-83611895D01*
G75*
G02*
X93845829Y-83717961I-53033J-53033D01*
G01*
X93739763Y-83824027D01*
G75*
G02*
X93633697Y-83824027I-53033J53033D01*
G01*
G37*
G36*
G01*
X92749813Y-81101665D02*
X92643747Y-80995599D01*
G75*
G02*
X92643747Y-80889533I53033J53033D01*
G01*
X93633697Y-79899583D01*
G75*
G02*
X93739763Y-79899583I53033J-53033D01*
G01*
X93845829Y-80005649D01*
G75*
G02*
X93845829Y-80111715I-53033J-53033D01*
G01*
X92855879Y-81101665D01*
G75*
G02*
X92749813Y-81101665I-53033J53033D01*
G01*
G37*
G36*
G01*
X92396260Y-80748112D02*
X92290194Y-80642046D01*
G75*
G02*
X92290194Y-80535980I53033J53033D01*
G01*
X93280144Y-79546030D01*
G75*
G02*
X93386210Y-79546030I53033J-53033D01*
G01*
X93492276Y-79652096D01*
G75*
G02*
X93492276Y-79758162I-53033J-53033D01*
G01*
X92502326Y-80748112D01*
G75*
G02*
X92396260Y-80748112I-53033J53033D01*
G01*
G37*
G36*
G01*
X92042707Y-80394559D02*
X91936641Y-80288493D01*
G75*
G02*
X91936641Y-80182427I53033J53033D01*
G01*
X92926591Y-79192477D01*
G75*
G02*
X93032657Y-79192477I53033J-53033D01*
G01*
X93138723Y-79298543D01*
G75*
G02*
X93138723Y-79404609I-53033J-53033D01*
G01*
X92148773Y-80394559D01*
G75*
G02*
X92042707Y-80394559I-53033J53033D01*
G01*
G37*
G36*
G01*
X91689153Y-80041005D02*
X91583087Y-79934939D01*
G75*
G02*
X91583087Y-79828873I53033J53033D01*
G01*
X92573037Y-78838923D01*
G75*
G02*
X92679103Y-78838923I53033J-53033D01*
G01*
X92785169Y-78944989D01*
G75*
G02*
X92785169Y-79051055I-53033J-53033D01*
G01*
X91795219Y-80041005D01*
G75*
G02*
X91689153Y-80041005I-53033J53033D01*
G01*
G37*
G36*
G01*
X91335600Y-79687452D02*
X91229534Y-79581386D01*
G75*
G02*
X91229534Y-79475320I53033J53033D01*
G01*
X92219484Y-78485370D01*
G75*
G02*
X92325550Y-78485370I53033J-53033D01*
G01*
X92431616Y-78591436D01*
G75*
G02*
X92431616Y-78697502I-53033J-53033D01*
G01*
X91441666Y-79687452D01*
G75*
G02*
X91335600Y-79687452I-53033J53033D01*
G01*
G37*
G36*
G01*
X90982046Y-79333898D02*
X90875980Y-79227832D01*
G75*
G02*
X90875980Y-79121766I53033J53033D01*
G01*
X91865930Y-78131816D01*
G75*
G02*
X91971996Y-78131816I53033J-53033D01*
G01*
X92078062Y-78237882D01*
G75*
G02*
X92078062Y-78343948I-53033J-53033D01*
G01*
X91088112Y-79333898D01*
G75*
G02*
X90982046Y-79333898I-53033J53033D01*
G01*
G37*
G36*
G01*
X90628493Y-78980345D02*
X90522427Y-78874279D01*
G75*
G02*
X90522427Y-78768213I53033J53033D01*
G01*
X91512377Y-77778263D01*
G75*
G02*
X91618443Y-77778263I53033J-53033D01*
G01*
X91724509Y-77884329D01*
G75*
G02*
X91724509Y-77990395I-53033J-53033D01*
G01*
X90734559Y-78980345D01*
G75*
G02*
X90628493Y-78980345I-53033J53033D01*
G01*
G37*
G36*
G01*
X90274940Y-78626792D02*
X90168874Y-78520726D01*
G75*
G02*
X90168874Y-78414660I53033J53033D01*
G01*
X91158824Y-77424710D01*
G75*
G02*
X91264890Y-77424710I53033J-53033D01*
G01*
X91370956Y-77530776D01*
G75*
G02*
X91370956Y-77636842I-53033J-53033D01*
G01*
X90381006Y-78626792D01*
G75*
G02*
X90274940Y-78626792I-53033J53033D01*
G01*
G37*
G36*
G01*
X89921386Y-78273238D02*
X89815320Y-78167172D01*
G75*
G02*
X89815320Y-78061106I53033J53033D01*
G01*
X90805270Y-77071156D01*
G75*
G02*
X90911336Y-77071156I53033J-53033D01*
G01*
X91017402Y-77177222D01*
G75*
G02*
X91017402Y-77283288I-53033J-53033D01*
G01*
X90027452Y-78273238D01*
G75*
G02*
X89921386Y-78273238I-53033J53033D01*
G01*
G37*
G36*
G01*
X89567833Y-77919685D02*
X89461767Y-77813619D01*
G75*
G02*
X89461767Y-77707553I53033J53033D01*
G01*
X90451717Y-76717603D01*
G75*
G02*
X90557783Y-76717603I53033J-53033D01*
G01*
X90663849Y-76823669D01*
G75*
G02*
X90663849Y-76929735I-53033J-53033D01*
G01*
X89673899Y-77919685D01*
G75*
G02*
X89567833Y-77919685I-53033J53033D01*
G01*
G37*
G36*
G01*
X89214280Y-77566132D02*
X89108214Y-77460066D01*
G75*
G02*
X89108214Y-77354000I53033J53033D01*
G01*
X90098164Y-76364050D01*
G75*
G02*
X90204230Y-76364050I53033J-53033D01*
G01*
X90310296Y-76470116D01*
G75*
G02*
X90310296Y-76576182I-53033J-53033D01*
G01*
X89320346Y-77566132D01*
G75*
G02*
X89214280Y-77566132I-53033J53033D01*
G01*
G37*
G36*
G01*
X88860726Y-77212578D02*
X88754660Y-77106512D01*
G75*
G02*
X88754660Y-77000446I53033J53033D01*
G01*
X89744610Y-76010496D01*
G75*
G02*
X89850676Y-76010496I53033J-53033D01*
G01*
X89956742Y-76116562D01*
G75*
G02*
X89956742Y-76222628I-53033J-53033D01*
G01*
X88966792Y-77212578D01*
G75*
G02*
X88860726Y-77212578I-53033J53033D01*
G01*
G37*
G36*
G01*
X88507173Y-76859025D02*
X88401107Y-76752959D01*
G75*
G02*
X88401107Y-76646893I53033J53033D01*
G01*
X89391057Y-75656943D01*
G75*
G02*
X89497123Y-75656943I53033J-53033D01*
G01*
X89603189Y-75763009D01*
G75*
G02*
X89603189Y-75869075I-53033J-53033D01*
G01*
X88613239Y-76859025D01*
G75*
G02*
X88507173Y-76859025I-53033J53033D01*
G01*
G37*
G36*
G01*
X88153619Y-76505471D02*
X88047553Y-76399405D01*
G75*
G02*
X88047553Y-76293339I53033J53033D01*
G01*
X89037503Y-75303389D01*
G75*
G02*
X89143569Y-75303389I53033J-53033D01*
G01*
X89249635Y-75409455D01*
G75*
G02*
X89249635Y-75515521I-53033J-53033D01*
G01*
X88259685Y-76505471D01*
G75*
G02*
X88153619Y-76505471I-53033J53033D01*
G01*
G37*
G36*
G01*
X87800066Y-76151918D02*
X87694000Y-76045852D01*
G75*
G02*
X87694000Y-75939786I53033J53033D01*
G01*
X88683950Y-74949836D01*
G75*
G02*
X88790016Y-74949836I53033J-53033D01*
G01*
X88896082Y-75055902D01*
G75*
G02*
X88896082Y-75161968I-53033J-53033D01*
G01*
X87906132Y-76151918D01*
G75*
G02*
X87800066Y-76151918I-53033J53033D01*
G01*
G37*
G36*
G01*
X87446513Y-75798365D02*
X87340447Y-75692299D01*
G75*
G02*
X87340447Y-75586233I53033J53033D01*
G01*
X88330397Y-74596283D01*
G75*
G02*
X88436463Y-74596283I53033J-53033D01*
G01*
X88542529Y-74702349D01*
G75*
G02*
X88542529Y-74808415I-53033J-53033D01*
G01*
X87552579Y-75798365D01*
G75*
G02*
X87446513Y-75798365I-53033J53033D01*
G01*
G37*
G36*
G01*
X85608035Y-75798365D02*
X84618085Y-74808415D01*
G75*
G02*
X84618085Y-74702349I53033J53033D01*
G01*
X84724151Y-74596283D01*
G75*
G02*
X84830217Y-74596283I53033J-53033D01*
G01*
X85820167Y-75586233D01*
G75*
G02*
X85820167Y-75692299I-53033J-53033D01*
G01*
X85714101Y-75798365D01*
G75*
G02*
X85608035Y-75798365I-53033J53033D01*
G01*
G37*
G36*
G01*
X85254482Y-76151918D02*
X84264532Y-75161968D01*
G75*
G02*
X84264532Y-75055902I53033J53033D01*
G01*
X84370598Y-74949836D01*
G75*
G02*
X84476664Y-74949836I53033J-53033D01*
G01*
X85466614Y-75939786D01*
G75*
G02*
X85466614Y-76045852I-53033J-53033D01*
G01*
X85360548Y-76151918D01*
G75*
G02*
X85254482Y-76151918I-53033J53033D01*
G01*
G37*
G36*
G01*
X84900929Y-76505471D02*
X83910979Y-75515521D01*
G75*
G02*
X83910979Y-75409455I53033J53033D01*
G01*
X84017045Y-75303389D01*
G75*
G02*
X84123111Y-75303389I53033J-53033D01*
G01*
X85113061Y-76293339D01*
G75*
G02*
X85113061Y-76399405I-53033J-53033D01*
G01*
X85006995Y-76505471D01*
G75*
G02*
X84900929Y-76505471I-53033J53033D01*
G01*
G37*
G36*
G01*
X84547375Y-76859025D02*
X83557425Y-75869075D01*
G75*
G02*
X83557425Y-75763009I53033J53033D01*
G01*
X83663491Y-75656943D01*
G75*
G02*
X83769557Y-75656943I53033J-53033D01*
G01*
X84759507Y-76646893D01*
G75*
G02*
X84759507Y-76752959I-53033J-53033D01*
G01*
X84653441Y-76859025D01*
G75*
G02*
X84547375Y-76859025I-53033J53033D01*
G01*
G37*
G36*
G01*
X84193822Y-77212578D02*
X83203872Y-76222628D01*
G75*
G02*
X83203872Y-76116562I53033J53033D01*
G01*
X83309938Y-76010496D01*
G75*
G02*
X83416004Y-76010496I53033J-53033D01*
G01*
X84405954Y-77000446D01*
G75*
G02*
X84405954Y-77106512I-53033J-53033D01*
G01*
X84299888Y-77212578D01*
G75*
G02*
X84193822Y-77212578I-53033J53033D01*
G01*
G37*
G36*
G01*
X83840268Y-77566132D02*
X82850318Y-76576182D01*
G75*
G02*
X82850318Y-76470116I53033J53033D01*
G01*
X82956384Y-76364050D01*
G75*
G02*
X83062450Y-76364050I53033J-53033D01*
G01*
X84052400Y-77354000D01*
G75*
G02*
X84052400Y-77460066I-53033J-53033D01*
G01*
X83946334Y-77566132D01*
G75*
G02*
X83840268Y-77566132I-53033J53033D01*
G01*
G37*
G36*
G01*
X83486715Y-77919685D02*
X82496765Y-76929735D01*
G75*
G02*
X82496765Y-76823669I53033J53033D01*
G01*
X82602831Y-76717603D01*
G75*
G02*
X82708897Y-76717603I53033J-53033D01*
G01*
X83698847Y-77707553D01*
G75*
G02*
X83698847Y-77813619I-53033J-53033D01*
G01*
X83592781Y-77919685D01*
G75*
G02*
X83486715Y-77919685I-53033J53033D01*
G01*
G37*
G36*
G01*
X83133162Y-78273238D02*
X82143212Y-77283288D01*
G75*
G02*
X82143212Y-77177222I53033J53033D01*
G01*
X82249278Y-77071156D01*
G75*
G02*
X82355344Y-77071156I53033J-53033D01*
G01*
X83345294Y-78061106D01*
G75*
G02*
X83345294Y-78167172I-53033J-53033D01*
G01*
X83239228Y-78273238D01*
G75*
G02*
X83133162Y-78273238I-53033J53033D01*
G01*
G37*
G36*
G01*
X82779608Y-78626792D02*
X81789658Y-77636842D01*
G75*
G02*
X81789658Y-77530776I53033J53033D01*
G01*
X81895724Y-77424710D01*
G75*
G02*
X82001790Y-77424710I53033J-53033D01*
G01*
X82991740Y-78414660D01*
G75*
G02*
X82991740Y-78520726I-53033J-53033D01*
G01*
X82885674Y-78626792D01*
G75*
G02*
X82779608Y-78626792I-53033J53033D01*
G01*
G37*
G36*
G01*
X82426055Y-78980345D02*
X81436105Y-77990395D01*
G75*
G02*
X81436105Y-77884329I53033J53033D01*
G01*
X81542171Y-77778263D01*
G75*
G02*
X81648237Y-77778263I53033J-53033D01*
G01*
X82638187Y-78768213D01*
G75*
G02*
X82638187Y-78874279I-53033J-53033D01*
G01*
X82532121Y-78980345D01*
G75*
G02*
X82426055Y-78980345I-53033J53033D01*
G01*
G37*
G36*
G01*
X82072502Y-79333898D02*
X81082552Y-78343948D01*
G75*
G02*
X81082552Y-78237882I53033J53033D01*
G01*
X81188618Y-78131816D01*
G75*
G02*
X81294684Y-78131816I53033J-53033D01*
G01*
X82284634Y-79121766D01*
G75*
G02*
X82284634Y-79227832I-53033J-53033D01*
G01*
X82178568Y-79333898D01*
G75*
G02*
X82072502Y-79333898I-53033J53033D01*
G01*
G37*
G36*
G01*
X81718948Y-79687452D02*
X80728998Y-78697502D01*
G75*
G02*
X80728998Y-78591436I53033J53033D01*
G01*
X80835064Y-78485370D01*
G75*
G02*
X80941130Y-78485370I53033J-53033D01*
G01*
X81931080Y-79475320D01*
G75*
G02*
X81931080Y-79581386I-53033J-53033D01*
G01*
X81825014Y-79687452D01*
G75*
G02*
X81718948Y-79687452I-53033J53033D01*
G01*
G37*
G36*
G01*
X81365395Y-80041005D02*
X80375445Y-79051055D01*
G75*
G02*
X80375445Y-78944989I53033J53033D01*
G01*
X80481511Y-78838923D01*
G75*
G02*
X80587577Y-78838923I53033J-53033D01*
G01*
X81577527Y-79828873D01*
G75*
G02*
X81577527Y-79934939I-53033J-53033D01*
G01*
X81471461Y-80041005D01*
G75*
G02*
X81365395Y-80041005I-53033J53033D01*
G01*
G37*
G36*
G01*
X81011841Y-80394559D02*
X80021891Y-79404609D01*
G75*
G02*
X80021891Y-79298543I53033J53033D01*
G01*
X80127957Y-79192477D01*
G75*
G02*
X80234023Y-79192477I53033J-53033D01*
G01*
X81223973Y-80182427D01*
G75*
G02*
X81223973Y-80288493I-53033J-53033D01*
G01*
X81117907Y-80394559D01*
G75*
G02*
X81011841Y-80394559I-53033J53033D01*
G01*
G37*
G36*
G01*
X80658288Y-80748112D02*
X79668338Y-79758162D01*
G75*
G02*
X79668338Y-79652096I53033J53033D01*
G01*
X79774404Y-79546030D01*
G75*
G02*
X79880470Y-79546030I53033J-53033D01*
G01*
X80870420Y-80535980D01*
G75*
G02*
X80870420Y-80642046I-53033J-53033D01*
G01*
X80764354Y-80748112D01*
G75*
G02*
X80658288Y-80748112I-53033J53033D01*
G01*
G37*
G36*
G01*
X80304735Y-81101665D02*
X79314785Y-80111715D01*
G75*
G02*
X79314785Y-80005649I53033J53033D01*
G01*
X79420851Y-79899583D01*
G75*
G02*
X79526917Y-79899583I53033J-53033D01*
G01*
X80516867Y-80889533D01*
G75*
G02*
X80516867Y-80995599I-53033J-53033D01*
G01*
X80410801Y-81101665D01*
G75*
G02*
X80304735Y-81101665I-53033J53033D01*
G01*
G37*
G36*
G01*
X79420851Y-83824027D02*
X79314785Y-83717961D01*
G75*
G02*
X79314785Y-83611895I53033J53033D01*
G01*
X80304735Y-82621945D01*
G75*
G02*
X80410801Y-82621945I53033J-53033D01*
G01*
X80516867Y-82728011D01*
G75*
G02*
X80516867Y-82834077I-53033J-53033D01*
G01*
X79526917Y-83824027D01*
G75*
G02*
X79420851Y-83824027I-53033J53033D01*
G01*
G37*
G36*
G01*
X79774404Y-84177580D02*
X79668338Y-84071514D01*
G75*
G02*
X79668338Y-83965448I53033J53033D01*
G01*
X80658288Y-82975498D01*
G75*
G02*
X80764354Y-82975498I53033J-53033D01*
G01*
X80870420Y-83081564D01*
G75*
G02*
X80870420Y-83187630I-53033J-53033D01*
G01*
X79880470Y-84177580D01*
G75*
G02*
X79774404Y-84177580I-53033J53033D01*
G01*
G37*
G36*
G01*
X80127957Y-84531133D02*
X80021891Y-84425067D01*
G75*
G02*
X80021891Y-84319001I53033J53033D01*
G01*
X81011841Y-83329051D01*
G75*
G02*
X81117907Y-83329051I53033J-53033D01*
G01*
X81223973Y-83435117D01*
G75*
G02*
X81223973Y-83541183I-53033J-53033D01*
G01*
X80234023Y-84531133D01*
G75*
G02*
X80127957Y-84531133I-53033J53033D01*
G01*
G37*
G36*
G01*
X80481511Y-84884687D02*
X80375445Y-84778621D01*
G75*
G02*
X80375445Y-84672555I53033J53033D01*
G01*
X81365395Y-83682605D01*
G75*
G02*
X81471461Y-83682605I53033J-53033D01*
G01*
X81577527Y-83788671D01*
G75*
G02*
X81577527Y-83894737I-53033J-53033D01*
G01*
X80587577Y-84884687D01*
G75*
G02*
X80481511Y-84884687I-53033J53033D01*
G01*
G37*
G36*
G01*
X80835064Y-85238240D02*
X80728998Y-85132174D01*
G75*
G02*
X80728998Y-85026108I53033J53033D01*
G01*
X81718948Y-84036158D01*
G75*
G02*
X81825014Y-84036158I53033J-53033D01*
G01*
X81931080Y-84142224D01*
G75*
G02*
X81931080Y-84248290I-53033J-53033D01*
G01*
X80941130Y-85238240D01*
G75*
G02*
X80835064Y-85238240I-53033J53033D01*
G01*
G37*
G36*
G01*
X81188618Y-85591794D02*
X81082552Y-85485728D01*
G75*
G02*
X81082552Y-85379662I53033J53033D01*
G01*
X82072502Y-84389712D01*
G75*
G02*
X82178568Y-84389712I53033J-53033D01*
G01*
X82284634Y-84495778D01*
G75*
G02*
X82284634Y-84601844I-53033J-53033D01*
G01*
X81294684Y-85591794D01*
G75*
G02*
X81188618Y-85591794I-53033J53033D01*
G01*
G37*
G36*
G01*
X81542171Y-85945347D02*
X81436105Y-85839281D01*
G75*
G02*
X81436105Y-85733215I53033J53033D01*
G01*
X82426055Y-84743265D01*
G75*
G02*
X82532121Y-84743265I53033J-53033D01*
G01*
X82638187Y-84849331D01*
G75*
G02*
X82638187Y-84955397I-53033J-53033D01*
G01*
X81648237Y-85945347D01*
G75*
G02*
X81542171Y-85945347I-53033J53033D01*
G01*
G37*
G36*
G01*
X81895724Y-86298900D02*
X81789658Y-86192834D01*
G75*
G02*
X81789658Y-86086768I53033J53033D01*
G01*
X82779608Y-85096818D01*
G75*
G02*
X82885674Y-85096818I53033J-53033D01*
G01*
X82991740Y-85202884D01*
G75*
G02*
X82991740Y-85308950I-53033J-53033D01*
G01*
X82001790Y-86298900D01*
G75*
G02*
X81895724Y-86298900I-53033J53033D01*
G01*
G37*
G36*
G01*
X82249278Y-86652454D02*
X82143212Y-86546388D01*
G75*
G02*
X82143212Y-86440322I53033J53033D01*
G01*
X83133162Y-85450372D01*
G75*
G02*
X83239228Y-85450372I53033J-53033D01*
G01*
X83345294Y-85556438D01*
G75*
G02*
X83345294Y-85662504I-53033J-53033D01*
G01*
X82355344Y-86652454D01*
G75*
G02*
X82249278Y-86652454I-53033J53033D01*
G01*
G37*
G36*
G01*
X82602831Y-87006007D02*
X82496765Y-86899941D01*
G75*
G02*
X82496765Y-86793875I53033J53033D01*
G01*
X83486715Y-85803925D01*
G75*
G02*
X83592781Y-85803925I53033J-53033D01*
G01*
X83698847Y-85909991D01*
G75*
G02*
X83698847Y-86016057I-53033J-53033D01*
G01*
X82708897Y-87006007D01*
G75*
G02*
X82602831Y-87006007I-53033J53033D01*
G01*
G37*
G36*
G01*
X82956384Y-87359560D02*
X82850318Y-87253494D01*
G75*
G02*
X82850318Y-87147428I53033J53033D01*
G01*
X83840268Y-86157478D01*
G75*
G02*
X83946334Y-86157478I53033J-53033D01*
G01*
X84052400Y-86263544D01*
G75*
G02*
X84052400Y-86369610I-53033J-53033D01*
G01*
X83062450Y-87359560D01*
G75*
G02*
X82956384Y-87359560I-53033J53033D01*
G01*
G37*
G36*
G01*
X83309938Y-87713114D02*
X83203872Y-87607048D01*
G75*
G02*
X83203872Y-87500982I53033J53033D01*
G01*
X84193822Y-86511032D01*
G75*
G02*
X84299888Y-86511032I53033J-53033D01*
G01*
X84405954Y-86617098D01*
G75*
G02*
X84405954Y-86723164I-53033J-53033D01*
G01*
X83416004Y-87713114D01*
G75*
G02*
X83309938Y-87713114I-53033J53033D01*
G01*
G37*
G36*
G01*
X83663491Y-88066667D02*
X83557425Y-87960601D01*
G75*
G02*
X83557425Y-87854535I53033J53033D01*
G01*
X84547375Y-86864585D01*
G75*
G02*
X84653441Y-86864585I53033J-53033D01*
G01*
X84759507Y-86970651D01*
G75*
G02*
X84759507Y-87076717I-53033J-53033D01*
G01*
X83769557Y-88066667D01*
G75*
G02*
X83663491Y-88066667I-53033J53033D01*
G01*
G37*
G36*
G01*
X84017045Y-88420221D02*
X83910979Y-88314155D01*
G75*
G02*
X83910979Y-88208089I53033J53033D01*
G01*
X84900929Y-87218139D01*
G75*
G02*
X85006995Y-87218139I53033J-53033D01*
G01*
X85113061Y-87324205D01*
G75*
G02*
X85113061Y-87430271I-53033J-53033D01*
G01*
X84123111Y-88420221D01*
G75*
G02*
X84017045Y-88420221I-53033J53033D01*
G01*
G37*
G36*
G01*
X84370598Y-88773774D02*
X84264532Y-88667708D01*
G75*
G02*
X84264532Y-88561642I53033J53033D01*
G01*
X85254482Y-87571692D01*
G75*
G02*
X85360548Y-87571692I53033J-53033D01*
G01*
X85466614Y-87677758D01*
G75*
G02*
X85466614Y-87783824I-53033J-53033D01*
G01*
X84476664Y-88773774D01*
G75*
G02*
X84370598Y-88773774I-53033J53033D01*
G01*
G37*
G36*
G01*
X84724151Y-89127327D02*
X84618085Y-89021261D01*
G75*
G02*
X84618085Y-88915195I53033J53033D01*
G01*
X85608035Y-87925245D01*
G75*
G02*
X85714101Y-87925245I53033J-53033D01*
G01*
X85820167Y-88031311D01*
G75*
G02*
X85820167Y-88137377I-53033J-53033D01*
G01*
X84830217Y-89127327D01*
G75*
G02*
X84724151Y-89127327I-53033J53033D01*
G01*
G37*
G36*
G01*
X105908200Y-105712400D02*
X105908200Y-105412400D01*
G75*
G02*
X106058200Y-105262400I150000J0D01*
G01*
X107708200Y-105262400D01*
G75*
G02*
X107858200Y-105412400I0J-150000D01*
G01*
X107858200Y-105712400D01*
G75*
G02*
X107708200Y-105862400I-150000J0D01*
G01*
X106058200Y-105862400D01*
G75*
G02*
X105908200Y-105712400I0J150000D01*
G01*
G37*
G36*
G01*
X105908200Y-104442400D02*
X105908200Y-104142400D01*
G75*
G02*
X106058200Y-103992400I150000J0D01*
G01*
X107708200Y-103992400D01*
G75*
G02*
X107858200Y-104142400I0J-150000D01*
G01*
X107858200Y-104442400D01*
G75*
G02*
X107708200Y-104592400I-150000J0D01*
G01*
X106058200Y-104592400D01*
G75*
G02*
X105908200Y-104442400I0J150000D01*
G01*
G37*
G36*
G01*
X105908200Y-103172400D02*
X105908200Y-102872400D01*
G75*
G02*
X106058200Y-102722400I150000J0D01*
G01*
X107708200Y-102722400D01*
G75*
G02*
X107858200Y-102872400I0J-150000D01*
G01*
X107858200Y-103172400D01*
G75*
G02*
X107708200Y-103322400I-150000J0D01*
G01*
X106058200Y-103322400D01*
G75*
G02*
X105908200Y-103172400I0J150000D01*
G01*
G37*
G36*
G01*
X105908200Y-101902400D02*
X105908200Y-101602400D01*
G75*
G02*
X106058200Y-101452400I150000J0D01*
G01*
X107708200Y-101452400D01*
G75*
G02*
X107858200Y-101602400I0J-150000D01*
G01*
X107858200Y-101902400D01*
G75*
G02*
X107708200Y-102052400I-150000J0D01*
G01*
X106058200Y-102052400D01*
G75*
G02*
X105908200Y-101902400I0J150000D01*
G01*
G37*
G36*
G01*
X100958200Y-101902400D02*
X100958200Y-101602400D01*
G75*
G02*
X101108200Y-101452400I150000J0D01*
G01*
X102758200Y-101452400D01*
G75*
G02*
X102908200Y-101602400I0J-150000D01*
G01*
X102908200Y-101902400D01*
G75*
G02*
X102758200Y-102052400I-150000J0D01*
G01*
X101108200Y-102052400D01*
G75*
G02*
X100958200Y-101902400I0J150000D01*
G01*
G37*
G36*
G01*
X100958200Y-103172400D02*
X100958200Y-102872400D01*
G75*
G02*
X101108200Y-102722400I150000J0D01*
G01*
X102758200Y-102722400D01*
G75*
G02*
X102908200Y-102872400I0J-150000D01*
G01*
X102908200Y-103172400D01*
G75*
G02*
X102758200Y-103322400I-150000J0D01*
G01*
X101108200Y-103322400D01*
G75*
G02*
X100958200Y-103172400I0J150000D01*
G01*
G37*
G36*
G01*
X100958200Y-104442400D02*
X100958200Y-104142400D01*
G75*
G02*
X101108200Y-103992400I150000J0D01*
G01*
X102758200Y-103992400D01*
G75*
G02*
X102908200Y-104142400I0J-150000D01*
G01*
X102908200Y-104442400D01*
G75*
G02*
X102758200Y-104592400I-150000J0D01*
G01*
X101108200Y-104592400D01*
G75*
G02*
X100958200Y-104442400I0J150000D01*
G01*
G37*
G36*
G01*
X100958200Y-105712400D02*
X100958200Y-105412400D01*
G75*
G02*
X101108200Y-105262400I150000J0D01*
G01*
X102758200Y-105262400D01*
G75*
G02*
X102908200Y-105412400I0J-150000D01*
G01*
X102908200Y-105712400D01*
G75*
G02*
X102758200Y-105862400I-150000J0D01*
G01*
X101108200Y-105862400D01*
G75*
G02*
X100958200Y-105712400I0J150000D01*
G01*
G37*
G36*
G01*
X107494200Y-95730200D02*
X107494200Y-95430200D01*
G75*
G02*
X107644200Y-95280200I150000J0D01*
G01*
X109294200Y-95280200D01*
G75*
G02*
X109444200Y-95430200I0J-150000D01*
G01*
X109444200Y-95730200D01*
G75*
G02*
X109294200Y-95880200I-150000J0D01*
G01*
X107644200Y-95880200D01*
G75*
G02*
X107494200Y-95730200I0J150000D01*
G01*
G37*
G36*
G01*
X107494200Y-94460200D02*
X107494200Y-94160200D01*
G75*
G02*
X107644200Y-94010200I150000J0D01*
G01*
X109294200Y-94010200D01*
G75*
G02*
X109444200Y-94160200I0J-150000D01*
G01*
X109444200Y-94460200D01*
G75*
G02*
X109294200Y-94610200I-150000J0D01*
G01*
X107644200Y-94610200D01*
G75*
G02*
X107494200Y-94460200I0J150000D01*
G01*
G37*
G36*
G01*
X107494200Y-93190200D02*
X107494200Y-92890200D01*
G75*
G02*
X107644200Y-92740200I150000J0D01*
G01*
X109294200Y-92740200D01*
G75*
G02*
X109444200Y-92890200I0J-150000D01*
G01*
X109444200Y-93190200D01*
G75*
G02*
X109294200Y-93340200I-150000J0D01*
G01*
X107644200Y-93340200D01*
G75*
G02*
X107494200Y-93190200I0J150000D01*
G01*
G37*
G36*
G01*
X107494200Y-91920200D02*
X107494200Y-91620200D01*
G75*
G02*
X107644200Y-91470200I150000J0D01*
G01*
X109294200Y-91470200D01*
G75*
G02*
X109444200Y-91620200I0J-150000D01*
G01*
X109444200Y-91920200D01*
G75*
G02*
X109294200Y-92070200I-150000J0D01*
G01*
X107644200Y-92070200D01*
G75*
G02*
X107494200Y-91920200I0J150000D01*
G01*
G37*
G36*
G01*
X102544200Y-91920200D02*
X102544200Y-91620200D01*
G75*
G02*
X102694200Y-91470200I150000J0D01*
G01*
X104344200Y-91470200D01*
G75*
G02*
X104494200Y-91620200I0J-150000D01*
G01*
X104494200Y-91920200D01*
G75*
G02*
X104344200Y-92070200I-150000J0D01*
G01*
X102694200Y-92070200D01*
G75*
G02*
X102544200Y-91920200I0J150000D01*
G01*
G37*
G36*
G01*
X102544200Y-93190200D02*
X102544200Y-92890200D01*
G75*
G02*
X102694200Y-92740200I150000J0D01*
G01*
X104344200Y-92740200D01*
G75*
G02*
X104494200Y-92890200I0J-150000D01*
G01*
X104494200Y-93190200D01*
G75*
G02*
X104344200Y-93340200I-150000J0D01*
G01*
X102694200Y-93340200D01*
G75*
G02*
X102544200Y-93190200I0J150000D01*
G01*
G37*
G36*
G01*
X102544200Y-94460200D02*
X102544200Y-94160200D01*
G75*
G02*
X102694200Y-94010200I150000J0D01*
G01*
X104344200Y-94010200D01*
G75*
G02*
X104494200Y-94160200I0J-150000D01*
G01*
X104494200Y-94460200D01*
G75*
G02*
X104344200Y-94610200I-150000J0D01*
G01*
X102694200Y-94610200D01*
G75*
G02*
X102544200Y-94460200I0J150000D01*
G01*
G37*
G36*
G01*
X102544200Y-95730200D02*
X102544200Y-95430200D01*
G75*
G02*
X102694200Y-95280200I150000J0D01*
G01*
X104344200Y-95280200D01*
G75*
G02*
X104494200Y-95430200I0J-150000D01*
G01*
X104494200Y-95730200D01*
G75*
G02*
X104344200Y-95880200I-150000J0D01*
G01*
X102694200Y-95880200D01*
G75*
G02*
X102544200Y-95730200I0J150000D01*
G01*
G37*
G36*
G01*
X98985200Y-95755600D02*
X98985200Y-95455600D01*
G75*
G02*
X99135200Y-95305600I150000J0D01*
G01*
X100785200Y-95305600D01*
G75*
G02*
X100935200Y-95455600I0J-150000D01*
G01*
X100935200Y-95755600D01*
G75*
G02*
X100785200Y-95905600I-150000J0D01*
G01*
X99135200Y-95905600D01*
G75*
G02*
X98985200Y-95755600I0J150000D01*
G01*
G37*
G36*
G01*
X98985200Y-94485600D02*
X98985200Y-94185600D01*
G75*
G02*
X99135200Y-94035600I150000J0D01*
G01*
X100785200Y-94035600D01*
G75*
G02*
X100935200Y-94185600I0J-150000D01*
G01*
X100935200Y-94485600D01*
G75*
G02*
X100785200Y-94635600I-150000J0D01*
G01*
X99135200Y-94635600D01*
G75*
G02*
X98985200Y-94485600I0J150000D01*
G01*
G37*
G36*
G01*
X98985200Y-93215600D02*
X98985200Y-92915600D01*
G75*
G02*
X99135200Y-92765600I150000J0D01*
G01*
X100785200Y-92765600D01*
G75*
G02*
X100935200Y-92915600I0J-150000D01*
G01*
X100935200Y-93215600D01*
G75*
G02*
X100785200Y-93365600I-150000J0D01*
G01*
X99135200Y-93365600D01*
G75*
G02*
X98985200Y-93215600I0J150000D01*
G01*
G37*
G36*
G01*
X98985200Y-91945600D02*
X98985200Y-91645600D01*
G75*
G02*
X99135200Y-91495600I150000J0D01*
G01*
X100785200Y-91495600D01*
G75*
G02*
X100935200Y-91645600I0J-150000D01*
G01*
X100935200Y-91945600D01*
G75*
G02*
X100785200Y-92095600I-150000J0D01*
G01*
X99135200Y-92095600D01*
G75*
G02*
X98985200Y-91945600I0J150000D01*
G01*
G37*
G36*
G01*
X94035200Y-91945600D02*
X94035200Y-91645600D01*
G75*
G02*
X94185200Y-91495600I150000J0D01*
G01*
X95835200Y-91495600D01*
G75*
G02*
X95985200Y-91645600I0J-150000D01*
G01*
X95985200Y-91945600D01*
G75*
G02*
X95835200Y-92095600I-150000J0D01*
G01*
X94185200Y-92095600D01*
G75*
G02*
X94035200Y-91945600I0J150000D01*
G01*
G37*
G36*
G01*
X94035200Y-93215600D02*
X94035200Y-92915600D01*
G75*
G02*
X94185200Y-92765600I150000J0D01*
G01*
X95835200Y-92765600D01*
G75*
G02*
X95985200Y-92915600I0J-150000D01*
G01*
X95985200Y-93215600D01*
G75*
G02*
X95835200Y-93365600I-150000J0D01*
G01*
X94185200Y-93365600D01*
G75*
G02*
X94035200Y-93215600I0J150000D01*
G01*
G37*
G36*
G01*
X94035200Y-94485600D02*
X94035200Y-94185600D01*
G75*
G02*
X94185200Y-94035600I150000J0D01*
G01*
X95835200Y-94035600D01*
G75*
G02*
X95985200Y-94185600I0J-150000D01*
G01*
X95985200Y-94485600D01*
G75*
G02*
X95835200Y-94635600I-150000J0D01*
G01*
X94185200Y-94635600D01*
G75*
G02*
X94035200Y-94485600I0J150000D01*
G01*
G37*
G36*
G01*
X94035200Y-95755600D02*
X94035200Y-95455600D01*
G75*
G02*
X94185200Y-95305600I150000J0D01*
G01*
X95835200Y-95305600D01*
G75*
G02*
X95985200Y-95455600I0J-150000D01*
G01*
X95985200Y-95755600D01*
G75*
G02*
X95835200Y-95905600I-150000J0D01*
G01*
X94185200Y-95905600D01*
G75*
G02*
X94035200Y-95755600I0J150000D01*
G01*
G37*
G36*
G01*
X87795000Y-105687000D02*
X87795000Y-105387000D01*
G75*
G02*
X87945000Y-105237000I150000J0D01*
G01*
X89595000Y-105237000D01*
G75*
G02*
X89745000Y-105387000I0J-150000D01*
G01*
X89745000Y-105687000D01*
G75*
G02*
X89595000Y-105837000I-150000J0D01*
G01*
X87945000Y-105837000D01*
G75*
G02*
X87795000Y-105687000I0J150000D01*
G01*
G37*
G36*
G01*
X87795000Y-104417000D02*
X87795000Y-104117000D01*
G75*
G02*
X87945000Y-103967000I150000J0D01*
G01*
X89595000Y-103967000D01*
G75*
G02*
X89745000Y-104117000I0J-150000D01*
G01*
X89745000Y-104417000D01*
G75*
G02*
X89595000Y-104567000I-150000J0D01*
G01*
X87945000Y-104567000D01*
G75*
G02*
X87795000Y-104417000I0J150000D01*
G01*
G37*
G36*
G01*
X87795000Y-103147000D02*
X87795000Y-102847000D01*
G75*
G02*
X87945000Y-102697000I150000J0D01*
G01*
X89595000Y-102697000D01*
G75*
G02*
X89745000Y-102847000I0J-150000D01*
G01*
X89745000Y-103147000D01*
G75*
G02*
X89595000Y-103297000I-150000J0D01*
G01*
X87945000Y-103297000D01*
G75*
G02*
X87795000Y-103147000I0J150000D01*
G01*
G37*
G36*
G01*
X87795000Y-101877000D02*
X87795000Y-101577000D01*
G75*
G02*
X87945000Y-101427000I150000J0D01*
G01*
X89595000Y-101427000D01*
G75*
G02*
X89745000Y-101577000I0J-150000D01*
G01*
X89745000Y-101877000D01*
G75*
G02*
X89595000Y-102027000I-150000J0D01*
G01*
X87945000Y-102027000D01*
G75*
G02*
X87795000Y-101877000I0J150000D01*
G01*
G37*
G36*
G01*
X82845000Y-101877000D02*
X82845000Y-101577000D01*
G75*
G02*
X82995000Y-101427000I150000J0D01*
G01*
X84645000Y-101427000D01*
G75*
G02*
X84795000Y-101577000I0J-150000D01*
G01*
X84795000Y-101877000D01*
G75*
G02*
X84645000Y-102027000I-150000J0D01*
G01*
X82995000Y-102027000D01*
G75*
G02*
X82845000Y-101877000I0J150000D01*
G01*
G37*
G36*
G01*
X82845000Y-103147000D02*
X82845000Y-102847000D01*
G75*
G02*
X82995000Y-102697000I150000J0D01*
G01*
X84645000Y-102697000D01*
G75*
G02*
X84795000Y-102847000I0J-150000D01*
G01*
X84795000Y-103147000D01*
G75*
G02*
X84645000Y-103297000I-150000J0D01*
G01*
X82995000Y-103297000D01*
G75*
G02*
X82845000Y-103147000I0J150000D01*
G01*
G37*
G36*
G01*
X82845000Y-104417000D02*
X82845000Y-104117000D01*
G75*
G02*
X82995000Y-103967000I150000J0D01*
G01*
X84645000Y-103967000D01*
G75*
G02*
X84795000Y-104117000I0J-150000D01*
G01*
X84795000Y-104417000D01*
G75*
G02*
X84645000Y-104567000I-150000J0D01*
G01*
X82995000Y-104567000D01*
G75*
G02*
X82845000Y-104417000I0J150000D01*
G01*
G37*
G36*
G01*
X82845000Y-105687000D02*
X82845000Y-105387000D01*
G75*
G02*
X82995000Y-105237000I150000J0D01*
G01*
X84645000Y-105237000D01*
G75*
G02*
X84795000Y-105387000I0J-150000D01*
G01*
X84795000Y-105687000D01*
G75*
G02*
X84645000Y-105837000I-150000J0D01*
G01*
X82995000Y-105837000D01*
G75*
G02*
X82845000Y-105687000I0J150000D01*
G01*
G37*
D12*
X126269720Y-75350840D03*
X130869720Y-75350840D03*
X128569720Y-75350840D03*
D13*
X128569720Y-81650840D03*
G36*
G01*
X127632600Y-101306500D02*
X127332600Y-101306500D01*
G75*
G02*
X127182600Y-101156500I0J150000D01*
G01*
X127182600Y-99506500D01*
G75*
G02*
X127332600Y-99356500I150000J0D01*
G01*
X127632600Y-99356500D01*
G75*
G02*
X127782600Y-99506500I0J-150000D01*
G01*
X127782600Y-101156500D01*
G75*
G02*
X127632600Y-101306500I-150000J0D01*
G01*
G37*
G36*
G01*
X126362600Y-101306500D02*
X126062600Y-101306500D01*
G75*
G02*
X125912600Y-101156500I0J150000D01*
G01*
X125912600Y-99506500D01*
G75*
G02*
X126062600Y-99356500I150000J0D01*
G01*
X126362600Y-99356500D01*
G75*
G02*
X126512600Y-99506500I0J-150000D01*
G01*
X126512600Y-101156500D01*
G75*
G02*
X126362600Y-101306500I-150000J0D01*
G01*
G37*
G36*
G01*
X125092600Y-101306500D02*
X124792600Y-101306500D01*
G75*
G02*
X124642600Y-101156500I0J150000D01*
G01*
X124642600Y-99506500D01*
G75*
G02*
X124792600Y-99356500I150000J0D01*
G01*
X125092600Y-99356500D01*
G75*
G02*
X125242600Y-99506500I0J-150000D01*
G01*
X125242600Y-101156500D01*
G75*
G02*
X125092600Y-101306500I-150000J0D01*
G01*
G37*
G36*
G01*
X123822600Y-101306500D02*
X123522600Y-101306500D01*
G75*
G02*
X123372600Y-101156500I0J150000D01*
G01*
X123372600Y-99506500D01*
G75*
G02*
X123522600Y-99356500I150000J0D01*
G01*
X123822600Y-99356500D01*
G75*
G02*
X123972600Y-99506500I0J-150000D01*
G01*
X123972600Y-101156500D01*
G75*
G02*
X123822600Y-101306500I-150000J0D01*
G01*
G37*
G36*
G01*
X122552600Y-101306500D02*
X122252600Y-101306500D01*
G75*
G02*
X122102600Y-101156500I0J150000D01*
G01*
X122102600Y-99506500D01*
G75*
G02*
X122252600Y-99356500I150000J0D01*
G01*
X122552600Y-99356500D01*
G75*
G02*
X122702600Y-99506500I0J-150000D01*
G01*
X122702600Y-101156500D01*
G75*
G02*
X122552600Y-101306500I-150000J0D01*
G01*
G37*
G36*
G01*
X121282600Y-101306500D02*
X120982600Y-101306500D01*
G75*
G02*
X120832600Y-101156500I0J150000D01*
G01*
X120832600Y-99506500D01*
G75*
G02*
X120982600Y-99356500I150000J0D01*
G01*
X121282600Y-99356500D01*
G75*
G02*
X121432600Y-99506500I0J-150000D01*
G01*
X121432600Y-101156500D01*
G75*
G02*
X121282600Y-101306500I-150000J0D01*
G01*
G37*
G36*
G01*
X120012600Y-101306500D02*
X119712600Y-101306500D01*
G75*
G02*
X119562600Y-101156500I0J150000D01*
G01*
X119562600Y-99506500D01*
G75*
G02*
X119712600Y-99356500I150000J0D01*
G01*
X120012600Y-99356500D01*
G75*
G02*
X120162600Y-99506500I0J-150000D01*
G01*
X120162600Y-101156500D01*
G75*
G02*
X120012600Y-101306500I-150000J0D01*
G01*
G37*
G36*
G01*
X118742600Y-101306500D02*
X118442600Y-101306500D01*
G75*
G02*
X118292600Y-101156500I0J150000D01*
G01*
X118292600Y-99506500D01*
G75*
G02*
X118442600Y-99356500I150000J0D01*
G01*
X118742600Y-99356500D01*
G75*
G02*
X118892600Y-99506500I0J-150000D01*
G01*
X118892600Y-101156500D01*
G75*
G02*
X118742600Y-101306500I-150000J0D01*
G01*
G37*
G36*
G01*
X118742600Y-106256500D02*
X118442600Y-106256500D01*
G75*
G02*
X118292600Y-106106500I0J150000D01*
G01*
X118292600Y-104456500D01*
G75*
G02*
X118442600Y-104306500I150000J0D01*
G01*
X118742600Y-104306500D01*
G75*
G02*
X118892600Y-104456500I0J-150000D01*
G01*
X118892600Y-106106500D01*
G75*
G02*
X118742600Y-106256500I-150000J0D01*
G01*
G37*
G36*
G01*
X120012600Y-106256500D02*
X119712600Y-106256500D01*
G75*
G02*
X119562600Y-106106500I0J150000D01*
G01*
X119562600Y-104456500D01*
G75*
G02*
X119712600Y-104306500I150000J0D01*
G01*
X120012600Y-104306500D01*
G75*
G02*
X120162600Y-104456500I0J-150000D01*
G01*
X120162600Y-106106500D01*
G75*
G02*
X120012600Y-106256500I-150000J0D01*
G01*
G37*
G36*
G01*
X121282600Y-106256500D02*
X120982600Y-106256500D01*
G75*
G02*
X120832600Y-106106500I0J150000D01*
G01*
X120832600Y-104456500D01*
G75*
G02*
X120982600Y-104306500I150000J0D01*
G01*
X121282600Y-104306500D01*
G75*
G02*
X121432600Y-104456500I0J-150000D01*
G01*
X121432600Y-106106500D01*
G75*
G02*
X121282600Y-106256500I-150000J0D01*
G01*
G37*
G36*
G01*
X122552600Y-106256500D02*
X122252600Y-106256500D01*
G75*
G02*
X122102600Y-106106500I0J150000D01*
G01*
X122102600Y-104456500D01*
G75*
G02*
X122252600Y-104306500I150000J0D01*
G01*
X122552600Y-104306500D01*
G75*
G02*
X122702600Y-104456500I0J-150000D01*
G01*
X122702600Y-106106500D01*
G75*
G02*
X122552600Y-106256500I-150000J0D01*
G01*
G37*
G36*
G01*
X123822600Y-106256500D02*
X123522600Y-106256500D01*
G75*
G02*
X123372600Y-106106500I0J150000D01*
G01*
X123372600Y-104456500D01*
G75*
G02*
X123522600Y-104306500I150000J0D01*
G01*
X123822600Y-104306500D01*
G75*
G02*
X123972600Y-104456500I0J-150000D01*
G01*
X123972600Y-106106500D01*
G75*
G02*
X123822600Y-106256500I-150000J0D01*
G01*
G37*
G36*
G01*
X125092600Y-106256500D02*
X124792600Y-106256500D01*
G75*
G02*
X124642600Y-106106500I0J150000D01*
G01*
X124642600Y-104456500D01*
G75*
G02*
X124792600Y-104306500I150000J0D01*
G01*
X125092600Y-104306500D01*
G75*
G02*
X125242600Y-104456500I0J-150000D01*
G01*
X125242600Y-106106500D01*
G75*
G02*
X125092600Y-106256500I-150000J0D01*
G01*
G37*
G36*
G01*
X126362600Y-106256500D02*
X126062600Y-106256500D01*
G75*
G02*
X125912600Y-106106500I0J150000D01*
G01*
X125912600Y-104456500D01*
G75*
G02*
X126062600Y-104306500I150000J0D01*
G01*
X126362600Y-104306500D01*
G75*
G02*
X126512600Y-104456500I0J-150000D01*
G01*
X126512600Y-106106500D01*
G75*
G02*
X126362600Y-106256500I-150000J0D01*
G01*
G37*
G36*
G01*
X127632600Y-106256500D02*
X127332600Y-106256500D01*
G75*
G02*
X127182600Y-106106500I0J150000D01*
G01*
X127182600Y-104456500D01*
G75*
G02*
X127332600Y-104306500I150000J0D01*
G01*
X127632600Y-104306500D01*
G75*
G02*
X127782600Y-104456500I0J-150000D01*
G01*
X127782600Y-106106500D01*
G75*
G02*
X127632600Y-106256500I-150000J0D01*
G01*
G37*
G36*
G01*
X99796700Y-55196600D02*
X99796700Y-55496600D01*
G75*
G02*
X99646700Y-55646600I-150000J0D01*
G01*
X97996700Y-55646600D01*
G75*
G02*
X97846700Y-55496600I0J150000D01*
G01*
X97846700Y-55196600D01*
G75*
G02*
X97996700Y-55046600I150000J0D01*
G01*
X99646700Y-55046600D01*
G75*
G02*
X99796700Y-55196600I0J-150000D01*
G01*
G37*
G36*
G01*
X99796700Y-56466600D02*
X99796700Y-56766600D01*
G75*
G02*
X99646700Y-56916600I-150000J0D01*
G01*
X97996700Y-56916600D01*
G75*
G02*
X97846700Y-56766600I0J150000D01*
G01*
X97846700Y-56466600D01*
G75*
G02*
X97996700Y-56316600I150000J0D01*
G01*
X99646700Y-56316600D01*
G75*
G02*
X99796700Y-56466600I0J-150000D01*
G01*
G37*
G36*
G01*
X99796700Y-57736600D02*
X99796700Y-58036600D01*
G75*
G02*
X99646700Y-58186600I-150000J0D01*
G01*
X97996700Y-58186600D01*
G75*
G02*
X97846700Y-58036600I0J150000D01*
G01*
X97846700Y-57736600D01*
G75*
G02*
X97996700Y-57586600I150000J0D01*
G01*
X99646700Y-57586600D01*
G75*
G02*
X99796700Y-57736600I0J-150000D01*
G01*
G37*
G36*
G01*
X99796700Y-59006600D02*
X99796700Y-59306600D01*
G75*
G02*
X99646700Y-59456600I-150000J0D01*
G01*
X97996700Y-59456600D01*
G75*
G02*
X97846700Y-59306600I0J150000D01*
G01*
X97846700Y-59006600D01*
G75*
G02*
X97996700Y-58856600I150000J0D01*
G01*
X99646700Y-58856600D01*
G75*
G02*
X99796700Y-59006600I0J-150000D01*
G01*
G37*
G36*
G01*
X99796700Y-60276600D02*
X99796700Y-60576600D01*
G75*
G02*
X99646700Y-60726600I-150000J0D01*
G01*
X97996700Y-60726600D01*
G75*
G02*
X97846700Y-60576600I0J150000D01*
G01*
X97846700Y-60276600D01*
G75*
G02*
X97996700Y-60126600I150000J0D01*
G01*
X99646700Y-60126600D01*
G75*
G02*
X99796700Y-60276600I0J-150000D01*
G01*
G37*
G36*
G01*
X99796700Y-61546600D02*
X99796700Y-61846600D01*
G75*
G02*
X99646700Y-61996600I-150000J0D01*
G01*
X97996700Y-61996600D01*
G75*
G02*
X97846700Y-61846600I0J150000D01*
G01*
X97846700Y-61546600D01*
G75*
G02*
X97996700Y-61396600I150000J0D01*
G01*
X99646700Y-61396600D01*
G75*
G02*
X99796700Y-61546600I0J-150000D01*
G01*
G37*
G36*
G01*
X99796700Y-62816600D02*
X99796700Y-63116600D01*
G75*
G02*
X99646700Y-63266600I-150000J0D01*
G01*
X97996700Y-63266600D01*
G75*
G02*
X97846700Y-63116600I0J150000D01*
G01*
X97846700Y-62816600D01*
G75*
G02*
X97996700Y-62666600I150000J0D01*
G01*
X99646700Y-62666600D01*
G75*
G02*
X99796700Y-62816600I0J-150000D01*
G01*
G37*
G36*
G01*
X99796700Y-64086600D02*
X99796700Y-64386600D01*
G75*
G02*
X99646700Y-64536600I-150000J0D01*
G01*
X97996700Y-64536600D01*
G75*
G02*
X97846700Y-64386600I0J150000D01*
G01*
X97846700Y-64086600D01*
G75*
G02*
X97996700Y-63936600I150000J0D01*
G01*
X99646700Y-63936600D01*
G75*
G02*
X99796700Y-64086600I0J-150000D01*
G01*
G37*
G36*
G01*
X104746700Y-64086600D02*
X104746700Y-64386600D01*
G75*
G02*
X104596700Y-64536600I-150000J0D01*
G01*
X102946700Y-64536600D01*
G75*
G02*
X102796700Y-64386600I0J150000D01*
G01*
X102796700Y-64086600D01*
G75*
G02*
X102946700Y-63936600I150000J0D01*
G01*
X104596700Y-63936600D01*
G75*
G02*
X104746700Y-64086600I0J-150000D01*
G01*
G37*
G36*
G01*
X104746700Y-62816600D02*
X104746700Y-63116600D01*
G75*
G02*
X104596700Y-63266600I-150000J0D01*
G01*
X102946700Y-63266600D01*
G75*
G02*
X102796700Y-63116600I0J150000D01*
G01*
X102796700Y-62816600D01*
G75*
G02*
X102946700Y-62666600I150000J0D01*
G01*
X104596700Y-62666600D01*
G75*
G02*
X104746700Y-62816600I0J-150000D01*
G01*
G37*
G36*
G01*
X104746700Y-61546600D02*
X104746700Y-61846600D01*
G75*
G02*
X104596700Y-61996600I-150000J0D01*
G01*
X102946700Y-61996600D01*
G75*
G02*
X102796700Y-61846600I0J150000D01*
G01*
X102796700Y-61546600D01*
G75*
G02*
X102946700Y-61396600I150000J0D01*
G01*
X104596700Y-61396600D01*
G75*
G02*
X104746700Y-61546600I0J-150000D01*
G01*
G37*
G36*
G01*
X104746700Y-60276600D02*
X104746700Y-60576600D01*
G75*
G02*
X104596700Y-60726600I-150000J0D01*
G01*
X102946700Y-60726600D01*
G75*
G02*
X102796700Y-60576600I0J150000D01*
G01*
X102796700Y-60276600D01*
G75*
G02*
X102946700Y-60126600I150000J0D01*
G01*
X104596700Y-60126600D01*
G75*
G02*
X104746700Y-60276600I0J-150000D01*
G01*
G37*
G36*
G01*
X104746700Y-59006600D02*
X104746700Y-59306600D01*
G75*
G02*
X104596700Y-59456600I-150000J0D01*
G01*
X102946700Y-59456600D01*
G75*
G02*
X102796700Y-59306600I0J150000D01*
G01*
X102796700Y-59006600D01*
G75*
G02*
X102946700Y-58856600I150000J0D01*
G01*
X104596700Y-58856600D01*
G75*
G02*
X104746700Y-59006600I0J-150000D01*
G01*
G37*
G36*
G01*
X104746700Y-57736600D02*
X104746700Y-58036600D01*
G75*
G02*
X104596700Y-58186600I-150000J0D01*
G01*
X102946700Y-58186600D01*
G75*
G02*
X102796700Y-58036600I0J150000D01*
G01*
X102796700Y-57736600D01*
G75*
G02*
X102946700Y-57586600I150000J0D01*
G01*
X104596700Y-57586600D01*
G75*
G02*
X104746700Y-57736600I0J-150000D01*
G01*
G37*
G36*
G01*
X104746700Y-56466600D02*
X104746700Y-56766600D01*
G75*
G02*
X104596700Y-56916600I-150000J0D01*
G01*
X102946700Y-56916600D01*
G75*
G02*
X102796700Y-56766600I0J150000D01*
G01*
X102796700Y-56466600D01*
G75*
G02*
X102946700Y-56316600I150000J0D01*
G01*
X104596700Y-56316600D01*
G75*
G02*
X104746700Y-56466600I0J-150000D01*
G01*
G37*
G36*
G01*
X104746700Y-55196600D02*
X104746700Y-55496600D01*
G75*
G02*
X104596700Y-55646600I-150000J0D01*
G01*
X102946700Y-55646600D01*
G75*
G02*
X102796700Y-55496600I0J150000D01*
G01*
X102796700Y-55196600D01*
G75*
G02*
X102946700Y-55046600I150000J0D01*
G01*
X104596700Y-55046600D01*
G75*
G02*
X104746700Y-55196600I0J-150000D01*
G01*
G37*
G36*
G01*
X80446460Y-96481610D02*
X80446460Y-95969110D01*
G75*
G02*
X80665210Y-95750360I218750J0D01*
G01*
X81102710Y-95750360D01*
G75*
G02*
X81321460Y-95969110I0J-218750D01*
G01*
X81321460Y-96481610D01*
G75*
G02*
X81102710Y-96700360I-218750J0D01*
G01*
X80665210Y-96700360D01*
G75*
G02*
X80446460Y-96481610I0J218750D01*
G01*
G37*
G36*
G01*
X78871460Y-96481610D02*
X78871460Y-95969110D01*
G75*
G02*
X79090210Y-95750360I218750J0D01*
G01*
X79527710Y-95750360D01*
G75*
G02*
X79746460Y-95969110I0J-218750D01*
G01*
X79746460Y-96481610D01*
G75*
G02*
X79527710Y-96700360I-218750J0D01*
G01*
X79090210Y-96700360D01*
G75*
G02*
X78871460Y-96481610I0J218750D01*
G01*
G37*
G36*
G01*
X109196850Y-104704500D02*
X108684350Y-104704500D01*
G75*
G02*
X108465600Y-104485750I0J218750D01*
G01*
X108465600Y-104048250D01*
G75*
G02*
X108684350Y-103829500I218750J0D01*
G01*
X109196850Y-103829500D01*
G75*
G02*
X109415600Y-104048250I0J-218750D01*
G01*
X109415600Y-104485750D01*
G75*
G02*
X109196850Y-104704500I-218750J0D01*
G01*
G37*
G36*
G01*
X109196850Y-106279500D02*
X108684350Y-106279500D01*
G75*
G02*
X108465600Y-106060750I0J218750D01*
G01*
X108465600Y-105623250D01*
G75*
G02*
X108684350Y-105404500I218750J0D01*
G01*
X109196850Y-105404500D01*
G75*
G02*
X109415600Y-105623250I0J-218750D01*
G01*
X109415600Y-106060750D01*
G75*
G02*
X109196850Y-106279500I-218750J0D01*
G01*
G37*
G36*
G01*
X91086650Y-104729900D02*
X90574150Y-104729900D01*
G75*
G02*
X90355400Y-104511150I0J218750D01*
G01*
X90355400Y-104073650D01*
G75*
G02*
X90574150Y-103854900I218750J0D01*
G01*
X91086650Y-103854900D01*
G75*
G02*
X91305400Y-104073650I0J-218750D01*
G01*
X91305400Y-104511150D01*
G75*
G02*
X91086650Y-104729900I-218750J0D01*
G01*
G37*
G36*
G01*
X91086650Y-106304900D02*
X90574150Y-106304900D01*
G75*
G02*
X90355400Y-106086150I0J218750D01*
G01*
X90355400Y-105648650D01*
G75*
G02*
X90574150Y-105429900I218750J0D01*
G01*
X91086650Y-105429900D01*
G75*
G02*
X91305400Y-105648650I0J-218750D01*
G01*
X91305400Y-106086150D01*
G75*
G02*
X91086650Y-106304900I-218750J0D01*
G01*
G37*
G36*
G01*
X112240350Y-105404500D02*
X112752850Y-105404500D01*
G75*
G02*
X112971600Y-105623250I0J-218750D01*
G01*
X112971600Y-106060750D01*
G75*
G02*
X112752850Y-106279500I-218750J0D01*
G01*
X112240350Y-106279500D01*
G75*
G02*
X112021600Y-106060750I0J218750D01*
G01*
X112021600Y-105623250D01*
G75*
G02*
X112240350Y-105404500I218750J0D01*
G01*
G37*
G36*
G01*
X112240350Y-103829500D02*
X112752850Y-103829500D01*
G75*
G02*
X112971600Y-104048250I0J-218750D01*
G01*
X112971600Y-104485750D01*
G75*
G02*
X112752850Y-104704500I-218750J0D01*
G01*
X112240350Y-104704500D01*
G75*
G02*
X112021600Y-104485750I0J218750D01*
G01*
X112021600Y-104048250D01*
G75*
G02*
X112240350Y-103829500I218750J0D01*
G01*
G37*
G36*
G01*
X94130150Y-105404500D02*
X94642650Y-105404500D01*
G75*
G02*
X94861400Y-105623250I0J-218750D01*
G01*
X94861400Y-106060750D01*
G75*
G02*
X94642650Y-106279500I-218750J0D01*
G01*
X94130150Y-106279500D01*
G75*
G02*
X93911400Y-106060750I0J218750D01*
G01*
X93911400Y-105623250D01*
G75*
G02*
X94130150Y-105404500I218750J0D01*
G01*
G37*
G36*
G01*
X94130150Y-103829500D02*
X94642650Y-103829500D01*
G75*
G02*
X94861400Y-104048250I0J-218750D01*
G01*
X94861400Y-104485750D01*
G75*
G02*
X94642650Y-104704500I-218750J0D01*
G01*
X94130150Y-104704500D01*
G75*
G02*
X93911400Y-104485750I0J218750D01*
G01*
X93911400Y-104048250D01*
G75*
G02*
X94130150Y-103829500I218750J0D01*
G01*
G37*
G36*
G01*
X92580750Y-102356300D02*
X93093250Y-102356300D01*
G75*
G02*
X93312000Y-102575050I0J-218750D01*
G01*
X93312000Y-103012550D01*
G75*
G02*
X93093250Y-103231300I-218750J0D01*
G01*
X92580750Y-103231300D01*
G75*
G02*
X92362000Y-103012550I0J218750D01*
G01*
X92362000Y-102575050D01*
G75*
G02*
X92580750Y-102356300I218750J0D01*
G01*
G37*
G36*
G01*
X92580750Y-100781300D02*
X93093250Y-100781300D01*
G75*
G02*
X93312000Y-101000050I0J-218750D01*
G01*
X93312000Y-101437550D01*
G75*
G02*
X93093250Y-101656300I-218750J0D01*
G01*
X92580750Y-101656300D01*
G75*
G02*
X92362000Y-101437550I0J218750D01*
G01*
X92362000Y-101000050D01*
G75*
G02*
X92580750Y-100781300I218750J0D01*
G01*
G37*
G36*
G01*
X110690950Y-102330900D02*
X111203450Y-102330900D01*
G75*
G02*
X111422200Y-102549650I0J-218750D01*
G01*
X111422200Y-102987150D01*
G75*
G02*
X111203450Y-103205900I-218750J0D01*
G01*
X110690950Y-103205900D01*
G75*
G02*
X110472200Y-102987150I0J218750D01*
G01*
X110472200Y-102549650D01*
G75*
G02*
X110690950Y-102330900I218750J0D01*
G01*
G37*
G36*
G01*
X110690950Y-100755900D02*
X111203450Y-100755900D01*
G75*
G02*
X111422200Y-100974650I0J-218750D01*
G01*
X111422200Y-101412150D01*
G75*
G02*
X111203450Y-101630900I-218750J0D01*
G01*
X110690950Y-101630900D01*
G75*
G02*
X110472200Y-101412150I0J218750D01*
G01*
X110472200Y-100974650D01*
G75*
G02*
X110690950Y-100755900I218750J0D01*
G01*
G37*
G36*
G01*
X94642650Y-101656300D02*
X94130150Y-101656300D01*
G75*
G02*
X93911400Y-101437550I0J218750D01*
G01*
X93911400Y-101000050D01*
G75*
G02*
X94130150Y-100781300I218750J0D01*
G01*
X94642650Y-100781300D01*
G75*
G02*
X94861400Y-101000050I0J-218750D01*
G01*
X94861400Y-101437550D01*
G75*
G02*
X94642650Y-101656300I-218750J0D01*
G01*
G37*
G36*
G01*
X94642650Y-103231300D02*
X94130150Y-103231300D01*
G75*
G02*
X93911400Y-103012550I0J218750D01*
G01*
X93911400Y-102575050D01*
G75*
G02*
X94130150Y-102356300I218750J0D01*
G01*
X94642650Y-102356300D01*
G75*
G02*
X94861400Y-102575050I0J-218750D01*
G01*
X94861400Y-103012550D01*
G75*
G02*
X94642650Y-103231300I-218750J0D01*
G01*
G37*
G36*
G01*
X112752850Y-101630900D02*
X112240350Y-101630900D01*
G75*
G02*
X112021600Y-101412150I0J218750D01*
G01*
X112021600Y-100974650D01*
G75*
G02*
X112240350Y-100755900I218750J0D01*
G01*
X112752850Y-100755900D01*
G75*
G02*
X112971600Y-100974650I0J-218750D01*
G01*
X112971600Y-101412150D01*
G75*
G02*
X112752850Y-101630900I-218750J0D01*
G01*
G37*
G36*
G01*
X112752850Y-103205900D02*
X112240350Y-103205900D01*
G75*
G02*
X112021600Y-102987150I0J218750D01*
G01*
X112021600Y-102549650D01*
G75*
G02*
X112240350Y-102330900I218750J0D01*
G01*
X112752850Y-102330900D01*
G75*
G02*
X112971600Y-102549650I0J-218750D01*
G01*
X112971600Y-102987150D01*
G75*
G02*
X112752850Y-103205900I-218750J0D01*
G01*
G37*
G36*
G01*
X100154450Y-104729900D02*
X99641950Y-104729900D01*
G75*
G02*
X99423200Y-104511150I0J218750D01*
G01*
X99423200Y-104073650D01*
G75*
G02*
X99641950Y-103854900I218750J0D01*
G01*
X100154450Y-103854900D01*
G75*
G02*
X100373200Y-104073650I0J-218750D01*
G01*
X100373200Y-104511150D01*
G75*
G02*
X100154450Y-104729900I-218750J0D01*
G01*
G37*
G36*
G01*
X100154450Y-106304900D02*
X99641950Y-106304900D01*
G75*
G02*
X99423200Y-106086150I0J218750D01*
G01*
X99423200Y-105648650D01*
G75*
G02*
X99641950Y-105429900I218750J0D01*
G01*
X100154450Y-105429900D01*
G75*
G02*
X100373200Y-105648650I0J-218750D01*
G01*
X100373200Y-106086150D01*
G75*
G02*
X100154450Y-106304900I-218750J0D01*
G01*
G37*
G36*
G01*
X82044250Y-104704500D02*
X81531750Y-104704500D01*
G75*
G02*
X81313000Y-104485750I0J218750D01*
G01*
X81313000Y-104048250D01*
G75*
G02*
X81531750Y-103829500I218750J0D01*
G01*
X82044250Y-103829500D01*
G75*
G02*
X82263000Y-104048250I0J-218750D01*
G01*
X82263000Y-104485750D01*
G75*
G02*
X82044250Y-104704500I-218750J0D01*
G01*
G37*
G36*
G01*
X82044250Y-106279500D02*
X81531750Y-106279500D01*
G75*
G02*
X81313000Y-106060750I0J218750D01*
G01*
X81313000Y-105623250D01*
G75*
G02*
X81531750Y-105404500I218750J0D01*
G01*
X82044250Y-105404500D01*
G75*
G02*
X82263000Y-105623250I0J-218750D01*
G01*
X82263000Y-106060750D01*
G75*
G02*
X82044250Y-106279500I-218750J0D01*
G01*
G37*
G36*
G01*
X96085950Y-105429900D02*
X96598450Y-105429900D01*
G75*
G02*
X96817200Y-105648650I0J-218750D01*
G01*
X96817200Y-106086150D01*
G75*
G02*
X96598450Y-106304900I-218750J0D01*
G01*
X96085950Y-106304900D01*
G75*
G02*
X95867200Y-106086150I0J218750D01*
G01*
X95867200Y-105648650D01*
G75*
G02*
X96085950Y-105429900I218750J0D01*
G01*
G37*
G36*
G01*
X96085950Y-103854900D02*
X96598450Y-103854900D01*
G75*
G02*
X96817200Y-104073650I0J-218750D01*
G01*
X96817200Y-104511150D01*
G75*
G02*
X96598450Y-104729900I-218750J0D01*
G01*
X96085950Y-104729900D01*
G75*
G02*
X95867200Y-104511150I0J218750D01*
G01*
X95867200Y-104073650D01*
G75*
G02*
X96085950Y-103854900I218750J0D01*
G01*
G37*
G36*
G01*
X77924950Y-105404500D02*
X78437450Y-105404500D01*
G75*
G02*
X78656200Y-105623250I0J-218750D01*
G01*
X78656200Y-106060750D01*
G75*
G02*
X78437450Y-106279500I-218750J0D01*
G01*
X77924950Y-106279500D01*
G75*
G02*
X77706200Y-106060750I0J218750D01*
G01*
X77706200Y-105623250D01*
G75*
G02*
X77924950Y-105404500I218750J0D01*
G01*
G37*
G36*
G01*
X77924950Y-103829500D02*
X78437450Y-103829500D01*
G75*
G02*
X78656200Y-104048250I0J-218750D01*
G01*
X78656200Y-104485750D01*
G75*
G02*
X78437450Y-104704500I-218750J0D01*
G01*
X77924950Y-104704500D01*
G75*
G02*
X77706200Y-104485750I0J218750D01*
G01*
X77706200Y-104048250D01*
G75*
G02*
X77924950Y-103829500I218750J0D01*
G01*
G37*
G36*
G01*
X79474350Y-102330900D02*
X79986850Y-102330900D01*
G75*
G02*
X80205600Y-102549650I0J-218750D01*
G01*
X80205600Y-102987150D01*
G75*
G02*
X79986850Y-103205900I-218750J0D01*
G01*
X79474350Y-103205900D01*
G75*
G02*
X79255600Y-102987150I0J218750D01*
G01*
X79255600Y-102549650D01*
G75*
G02*
X79474350Y-102330900I218750J0D01*
G01*
G37*
G36*
G01*
X79474350Y-100755900D02*
X79986850Y-100755900D01*
G75*
G02*
X80205600Y-100974650I0J-218750D01*
G01*
X80205600Y-101412150D01*
G75*
G02*
X79986850Y-101630900I-218750J0D01*
G01*
X79474350Y-101630900D01*
G75*
G02*
X79255600Y-101412150I0J218750D01*
G01*
X79255600Y-100974650D01*
G75*
G02*
X79474350Y-100755900I218750J0D01*
G01*
G37*
G36*
G01*
X97635350Y-102381700D02*
X98147850Y-102381700D01*
G75*
G02*
X98366600Y-102600450I0J-218750D01*
G01*
X98366600Y-103037950D01*
G75*
G02*
X98147850Y-103256700I-218750J0D01*
G01*
X97635350Y-103256700D01*
G75*
G02*
X97416600Y-103037950I0J218750D01*
G01*
X97416600Y-102600450D01*
G75*
G02*
X97635350Y-102381700I218750J0D01*
G01*
G37*
G36*
G01*
X97635350Y-100806700D02*
X98147850Y-100806700D01*
G75*
G02*
X98366600Y-101025450I0J-218750D01*
G01*
X98366600Y-101462950D01*
G75*
G02*
X98147850Y-101681700I-218750J0D01*
G01*
X97635350Y-101681700D01*
G75*
G02*
X97416600Y-101462950I0J218750D01*
G01*
X97416600Y-101025450D01*
G75*
G02*
X97635350Y-100806700I218750J0D01*
G01*
G37*
G36*
G01*
X78412050Y-101630900D02*
X77899550Y-101630900D01*
G75*
G02*
X77680800Y-101412150I0J218750D01*
G01*
X77680800Y-100974650D01*
G75*
G02*
X77899550Y-100755900I218750J0D01*
G01*
X78412050Y-100755900D01*
G75*
G02*
X78630800Y-100974650I0J-218750D01*
G01*
X78630800Y-101412150D01*
G75*
G02*
X78412050Y-101630900I-218750J0D01*
G01*
G37*
G36*
G01*
X78412050Y-103205900D02*
X77899550Y-103205900D01*
G75*
G02*
X77680800Y-102987150I0J218750D01*
G01*
X77680800Y-102549650D01*
G75*
G02*
X77899550Y-102330900I218750J0D01*
G01*
X78412050Y-102330900D01*
G75*
G02*
X78630800Y-102549650I0J-218750D01*
G01*
X78630800Y-102987150D01*
G75*
G02*
X78412050Y-103205900I-218750J0D01*
G01*
G37*
G36*
G01*
X96598450Y-101681700D02*
X96085950Y-101681700D01*
G75*
G02*
X95867200Y-101462950I0J218750D01*
G01*
X95867200Y-101025450D01*
G75*
G02*
X96085950Y-100806700I218750J0D01*
G01*
X96598450Y-100806700D01*
G75*
G02*
X96817200Y-101025450I0J-218750D01*
G01*
X96817200Y-101462950D01*
G75*
G02*
X96598450Y-101681700I-218750J0D01*
G01*
G37*
G36*
G01*
X96598450Y-103256700D02*
X96085950Y-103256700D01*
G75*
G02*
X95867200Y-103037950I0J218750D01*
G01*
X95867200Y-102600450D01*
G75*
G02*
X96085950Y-102381700I218750J0D01*
G01*
X96598450Y-102381700D01*
G75*
G02*
X96817200Y-102600450I0J-218750D01*
G01*
X96817200Y-103037950D01*
G75*
G02*
X96598450Y-103256700I-218750J0D01*
G01*
G37*
G36*
G01*
X135765250Y-130422000D02*
X135252750Y-130422000D01*
G75*
G02*
X135034000Y-130203250I0J218750D01*
G01*
X135034000Y-129765750D01*
G75*
G02*
X135252750Y-129547000I218750J0D01*
G01*
X135765250Y-129547000D01*
G75*
G02*
X135984000Y-129765750I0J-218750D01*
G01*
X135984000Y-130203250D01*
G75*
G02*
X135765250Y-130422000I-218750J0D01*
G01*
G37*
G36*
G01*
X135765250Y-131997000D02*
X135252750Y-131997000D01*
G75*
G02*
X135034000Y-131778250I0J218750D01*
G01*
X135034000Y-131340750D01*
G75*
G02*
X135252750Y-131122000I218750J0D01*
G01*
X135765250Y-131122000D01*
G75*
G02*
X135984000Y-131340750I0J-218750D01*
G01*
X135984000Y-131778250D01*
G75*
G02*
X135765250Y-131997000I-218750J0D01*
G01*
G37*
G36*
G01*
X133103000Y-132844250D02*
X133103000Y-132331750D01*
G75*
G02*
X133321750Y-132113000I218750J0D01*
G01*
X133759250Y-132113000D01*
G75*
G02*
X133978000Y-132331750I0J-218750D01*
G01*
X133978000Y-132844250D01*
G75*
G02*
X133759250Y-133063000I-218750J0D01*
G01*
X133321750Y-133063000D01*
G75*
G02*
X133103000Y-132844250I0J218750D01*
G01*
G37*
G36*
G01*
X131528000Y-132844250D02*
X131528000Y-132331750D01*
G75*
G02*
X131746750Y-132113000I218750J0D01*
G01*
X132184250Y-132113000D01*
G75*
G02*
X132403000Y-132331750I0J-218750D01*
G01*
X132403000Y-132844250D01*
G75*
G02*
X132184250Y-133063000I-218750J0D01*
G01*
X131746750Y-133063000D01*
G75*
G02*
X131528000Y-132844250I0J218750D01*
G01*
G37*
G36*
G01*
X135765250Y-120338000D02*
X135252750Y-120338000D01*
G75*
G02*
X135034000Y-120119250I0J218750D01*
G01*
X135034000Y-119681750D01*
G75*
G02*
X135252750Y-119463000I218750J0D01*
G01*
X135765250Y-119463000D01*
G75*
G02*
X135984000Y-119681750I0J-218750D01*
G01*
X135984000Y-120119250D01*
G75*
G02*
X135765250Y-120338000I-218750J0D01*
G01*
G37*
G36*
G01*
X135765250Y-121913000D02*
X135252750Y-121913000D01*
G75*
G02*
X135034000Y-121694250I0J218750D01*
G01*
X135034000Y-121256750D01*
G75*
G02*
X135252750Y-121038000I218750J0D01*
G01*
X135765250Y-121038000D01*
G75*
G02*
X135984000Y-121256750I0J-218750D01*
G01*
X135984000Y-121694250D01*
G75*
G02*
X135765250Y-121913000I-218750J0D01*
G01*
G37*
G36*
G01*
X133090500Y-124716250D02*
X133090500Y-124203750D01*
G75*
G02*
X133309250Y-123985000I218750J0D01*
G01*
X133746750Y-123985000D01*
G75*
G02*
X133965500Y-124203750I0J-218750D01*
G01*
X133965500Y-124716250D01*
G75*
G02*
X133746750Y-124935000I-218750J0D01*
G01*
X133309250Y-124935000D01*
G75*
G02*
X133090500Y-124716250I0J218750D01*
G01*
G37*
G36*
G01*
X131515500Y-124716250D02*
X131515500Y-124203750D01*
G75*
G02*
X131734250Y-123985000I218750J0D01*
G01*
X132171750Y-123985000D01*
G75*
G02*
X132390500Y-124203750I0J-218750D01*
G01*
X132390500Y-124716250D01*
G75*
G02*
X132171750Y-124935000I-218750J0D01*
G01*
X131734250Y-124935000D01*
G75*
G02*
X131515500Y-124716250I0J218750D01*
G01*
G37*
G36*
G01*
X117921750Y-130460000D02*
X117409250Y-130460000D01*
G75*
G02*
X117190500Y-130241250I0J218750D01*
G01*
X117190500Y-129803750D01*
G75*
G02*
X117409250Y-129585000I218750J0D01*
G01*
X117921750Y-129585000D01*
G75*
G02*
X118140500Y-129803750I0J-218750D01*
G01*
X118140500Y-130241250D01*
G75*
G02*
X117921750Y-130460000I-218750J0D01*
G01*
G37*
G36*
G01*
X117921750Y-132035000D02*
X117409250Y-132035000D01*
G75*
G02*
X117190500Y-131816250I0J218750D01*
G01*
X117190500Y-131378750D01*
G75*
G02*
X117409250Y-131160000I218750J0D01*
G01*
X117921750Y-131160000D01*
G75*
G02*
X118140500Y-131378750I0J-218750D01*
G01*
X118140500Y-131816250D01*
G75*
G02*
X117921750Y-132035000I-218750J0D01*
G01*
G37*
G36*
G01*
X115247000Y-132907750D02*
X115247000Y-132395250D01*
G75*
G02*
X115465750Y-132176500I218750J0D01*
G01*
X115903250Y-132176500D01*
G75*
G02*
X116122000Y-132395250I0J-218750D01*
G01*
X116122000Y-132907750D01*
G75*
G02*
X115903250Y-133126500I-218750J0D01*
G01*
X115465750Y-133126500D01*
G75*
G02*
X115247000Y-132907750I0J218750D01*
G01*
G37*
G36*
G01*
X113672000Y-132907750D02*
X113672000Y-132395250D01*
G75*
G02*
X113890750Y-132176500I218750J0D01*
G01*
X114328250Y-132176500D01*
G75*
G02*
X114547000Y-132395250I0J-218750D01*
G01*
X114547000Y-132907750D01*
G75*
G02*
X114328250Y-133126500I-218750J0D01*
G01*
X113890750Y-133126500D01*
G75*
G02*
X113672000Y-132907750I0J218750D01*
G01*
G37*
G36*
G01*
X117985250Y-120401500D02*
X117472750Y-120401500D01*
G75*
G02*
X117254000Y-120182750I0J218750D01*
G01*
X117254000Y-119745250D01*
G75*
G02*
X117472750Y-119526500I218750J0D01*
G01*
X117985250Y-119526500D01*
G75*
G02*
X118204000Y-119745250I0J-218750D01*
G01*
X118204000Y-120182750D01*
G75*
G02*
X117985250Y-120401500I-218750J0D01*
G01*
G37*
G36*
G01*
X117985250Y-121976500D02*
X117472750Y-121976500D01*
G75*
G02*
X117254000Y-121757750I0J218750D01*
G01*
X117254000Y-121320250D01*
G75*
G02*
X117472750Y-121101500I218750J0D01*
G01*
X117985250Y-121101500D01*
G75*
G02*
X118204000Y-121320250I0J-218750D01*
G01*
X118204000Y-121757750D01*
G75*
G02*
X117985250Y-121976500I-218750J0D01*
G01*
G37*
G36*
G01*
X115310500Y-124716250D02*
X115310500Y-124203750D01*
G75*
G02*
X115529250Y-123985000I218750J0D01*
G01*
X115966750Y-123985000D01*
G75*
G02*
X116185500Y-124203750I0J-218750D01*
G01*
X116185500Y-124716250D01*
G75*
G02*
X115966750Y-124935000I-218750J0D01*
G01*
X115529250Y-124935000D01*
G75*
G02*
X115310500Y-124716250I0J218750D01*
G01*
G37*
G36*
G01*
X113735500Y-124716250D02*
X113735500Y-124203750D01*
G75*
G02*
X113954250Y-123985000I218750J0D01*
G01*
X114391750Y-123985000D01*
G75*
G02*
X114610500Y-124203750I0J-218750D01*
G01*
X114610500Y-124716250D01*
G75*
G02*
X114391750Y-124935000I-218750J0D01*
G01*
X113954250Y-124935000D01*
G75*
G02*
X113735500Y-124716250I0J218750D01*
G01*
G37*
G36*
G01*
X100141750Y-130561500D02*
X99629250Y-130561500D01*
G75*
G02*
X99410500Y-130342750I0J218750D01*
G01*
X99410500Y-129905250D01*
G75*
G02*
X99629250Y-129686500I218750J0D01*
G01*
X100141750Y-129686500D01*
G75*
G02*
X100360500Y-129905250I0J-218750D01*
G01*
X100360500Y-130342750D01*
G75*
G02*
X100141750Y-130561500I-218750J0D01*
G01*
G37*
G36*
G01*
X100141750Y-132136500D02*
X99629250Y-132136500D01*
G75*
G02*
X99410500Y-131917750I0J218750D01*
G01*
X99410500Y-131480250D01*
G75*
G02*
X99629250Y-131261500I218750J0D01*
G01*
X100141750Y-131261500D01*
G75*
G02*
X100360500Y-131480250I0J-218750D01*
G01*
X100360500Y-131917750D01*
G75*
G02*
X100141750Y-132136500I-218750J0D01*
G01*
G37*
G36*
G01*
X97467000Y-132971250D02*
X97467000Y-132458750D01*
G75*
G02*
X97685750Y-132240000I218750J0D01*
G01*
X98123250Y-132240000D01*
G75*
G02*
X98342000Y-132458750I0J-218750D01*
G01*
X98342000Y-132971250D01*
G75*
G02*
X98123250Y-133190000I-218750J0D01*
G01*
X97685750Y-133190000D01*
G75*
G02*
X97467000Y-132971250I0J218750D01*
G01*
G37*
G36*
G01*
X95892000Y-132971250D02*
X95892000Y-132458750D01*
G75*
G02*
X96110750Y-132240000I218750J0D01*
G01*
X96548250Y-132240000D01*
G75*
G02*
X96767000Y-132458750I0J-218750D01*
G01*
X96767000Y-132971250D01*
G75*
G02*
X96548250Y-133190000I-218750J0D01*
G01*
X96110750Y-133190000D01*
G75*
G02*
X95892000Y-132971250I0J218750D01*
G01*
G37*
G36*
G01*
X100141750Y-120338000D02*
X99629250Y-120338000D01*
G75*
G02*
X99410500Y-120119250I0J218750D01*
G01*
X99410500Y-119681750D01*
G75*
G02*
X99629250Y-119463000I218750J0D01*
G01*
X100141750Y-119463000D01*
G75*
G02*
X100360500Y-119681750I0J-218750D01*
G01*
X100360500Y-120119250D01*
G75*
G02*
X100141750Y-120338000I-218750J0D01*
G01*
G37*
G36*
G01*
X100141750Y-121913000D02*
X99629250Y-121913000D01*
G75*
G02*
X99410500Y-121694250I0J218750D01*
G01*
X99410500Y-121256750D01*
G75*
G02*
X99629250Y-121038000I218750J0D01*
G01*
X100141750Y-121038000D01*
G75*
G02*
X100360500Y-121256750I0J-218750D01*
G01*
X100360500Y-121694250D01*
G75*
G02*
X100141750Y-121913000I-218750J0D01*
G01*
G37*
G36*
G01*
X97467000Y-124716250D02*
X97467000Y-124203750D01*
G75*
G02*
X97685750Y-123985000I218750J0D01*
G01*
X98123250Y-123985000D01*
G75*
G02*
X98342000Y-124203750I0J-218750D01*
G01*
X98342000Y-124716250D01*
G75*
G02*
X98123250Y-124935000I-218750J0D01*
G01*
X97685750Y-124935000D01*
G75*
G02*
X97467000Y-124716250I0J218750D01*
G01*
G37*
G36*
G01*
X95892000Y-124716250D02*
X95892000Y-124203750D01*
G75*
G02*
X96110750Y-123985000I218750J0D01*
G01*
X96548250Y-123985000D01*
G75*
G02*
X96767000Y-124203750I0J-218750D01*
G01*
X96767000Y-124716250D01*
G75*
G02*
X96548250Y-124935000I-218750J0D01*
G01*
X96110750Y-124935000D01*
G75*
G02*
X95892000Y-124716250I0J218750D01*
G01*
G37*
G36*
G01*
X82361750Y-130498000D02*
X81849250Y-130498000D01*
G75*
G02*
X81630500Y-130279250I0J218750D01*
G01*
X81630500Y-129841750D01*
G75*
G02*
X81849250Y-129623000I218750J0D01*
G01*
X82361750Y-129623000D01*
G75*
G02*
X82580500Y-129841750I0J-218750D01*
G01*
X82580500Y-130279250D01*
G75*
G02*
X82361750Y-130498000I-218750J0D01*
G01*
G37*
G36*
G01*
X82361750Y-132073000D02*
X81849250Y-132073000D01*
G75*
G02*
X81630500Y-131854250I0J218750D01*
G01*
X81630500Y-131416750D01*
G75*
G02*
X81849250Y-131198000I218750J0D01*
G01*
X82361750Y-131198000D01*
G75*
G02*
X82580500Y-131416750I0J-218750D01*
G01*
X82580500Y-131854250D01*
G75*
G02*
X82361750Y-132073000I-218750J0D01*
G01*
G37*
G36*
G01*
X79687000Y-132907750D02*
X79687000Y-132395250D01*
G75*
G02*
X79905750Y-132176500I218750J0D01*
G01*
X80343250Y-132176500D01*
G75*
G02*
X80562000Y-132395250I0J-218750D01*
G01*
X80562000Y-132907750D01*
G75*
G02*
X80343250Y-133126500I-218750J0D01*
G01*
X79905750Y-133126500D01*
G75*
G02*
X79687000Y-132907750I0J218750D01*
G01*
G37*
G36*
G01*
X78112000Y-132907750D02*
X78112000Y-132395250D01*
G75*
G02*
X78330750Y-132176500I218750J0D01*
G01*
X78768250Y-132176500D01*
G75*
G02*
X78987000Y-132395250I0J-218750D01*
G01*
X78987000Y-132907750D01*
G75*
G02*
X78768250Y-133126500I-218750J0D01*
G01*
X78330750Y-133126500D01*
G75*
G02*
X78112000Y-132907750I0J218750D01*
G01*
G37*
G36*
G01*
X82361750Y-120389000D02*
X81849250Y-120389000D01*
G75*
G02*
X81630500Y-120170250I0J218750D01*
G01*
X81630500Y-119732750D01*
G75*
G02*
X81849250Y-119514000I218750J0D01*
G01*
X82361750Y-119514000D01*
G75*
G02*
X82580500Y-119732750I0J-218750D01*
G01*
X82580500Y-120170250D01*
G75*
G02*
X82361750Y-120389000I-218750J0D01*
G01*
G37*
G36*
G01*
X82361750Y-121964000D02*
X81849250Y-121964000D01*
G75*
G02*
X81630500Y-121745250I0J218750D01*
G01*
X81630500Y-121307750D01*
G75*
G02*
X81849250Y-121089000I218750J0D01*
G01*
X82361750Y-121089000D01*
G75*
G02*
X82580500Y-121307750I0J-218750D01*
G01*
X82580500Y-121745250D01*
G75*
G02*
X82361750Y-121964000I-218750J0D01*
G01*
G37*
G36*
G01*
X79750500Y-124716250D02*
X79750500Y-124203750D01*
G75*
G02*
X79969250Y-123985000I218750J0D01*
G01*
X80406750Y-123985000D01*
G75*
G02*
X80625500Y-124203750I0J-218750D01*
G01*
X80625500Y-124716250D01*
G75*
G02*
X80406750Y-124935000I-218750J0D01*
G01*
X79969250Y-124935000D01*
G75*
G02*
X79750500Y-124716250I0J218750D01*
G01*
G37*
G36*
G01*
X78175500Y-124716250D02*
X78175500Y-124203750D01*
G75*
G02*
X78394250Y-123985000I218750J0D01*
G01*
X78831750Y-123985000D01*
G75*
G02*
X79050500Y-124203750I0J-218750D01*
G01*
X79050500Y-124716250D01*
G75*
G02*
X78831750Y-124935000I-218750J0D01*
G01*
X78394250Y-124935000D01*
G75*
G02*
X78175500Y-124716250I0J218750D01*
G01*
G37*
G36*
G01*
X133733250Y-141864500D02*
X133220750Y-141864500D01*
G75*
G02*
X133002000Y-141645750I0J218750D01*
G01*
X133002000Y-141208250D01*
G75*
G02*
X133220750Y-140989500I218750J0D01*
G01*
X133733250Y-140989500D01*
G75*
G02*
X133952000Y-141208250I0J-218750D01*
G01*
X133952000Y-141645750D01*
G75*
G02*
X133733250Y-141864500I-218750J0D01*
G01*
G37*
G36*
G01*
X133733250Y-143439500D02*
X133220750Y-143439500D01*
G75*
G02*
X133002000Y-143220750I0J218750D01*
G01*
X133002000Y-142783250D01*
G75*
G02*
X133220750Y-142564500I218750J0D01*
G01*
X133733250Y-142564500D01*
G75*
G02*
X133952000Y-142783250I0J-218750D01*
G01*
X133952000Y-143220750D01*
G75*
G02*
X133733250Y-143439500I-218750J0D01*
G01*
G37*
G36*
G01*
X115826250Y-141890000D02*
X115313750Y-141890000D01*
G75*
G02*
X115095000Y-141671250I0J218750D01*
G01*
X115095000Y-141233750D01*
G75*
G02*
X115313750Y-141015000I218750J0D01*
G01*
X115826250Y-141015000D01*
G75*
G02*
X116045000Y-141233750I0J-218750D01*
G01*
X116045000Y-141671250D01*
G75*
G02*
X115826250Y-141890000I-218750J0D01*
G01*
G37*
G36*
G01*
X115826250Y-143465000D02*
X115313750Y-143465000D01*
G75*
G02*
X115095000Y-143246250I0J218750D01*
G01*
X115095000Y-142808750D01*
G75*
G02*
X115313750Y-142590000I218750J0D01*
G01*
X115826250Y-142590000D01*
G75*
G02*
X116045000Y-142808750I0J-218750D01*
G01*
X116045000Y-143246250D01*
G75*
G02*
X115826250Y-143465000I-218750J0D01*
G01*
G37*
G36*
G01*
X98236750Y-141864500D02*
X97724250Y-141864500D01*
G75*
G02*
X97505500Y-141645750I0J218750D01*
G01*
X97505500Y-141208250D01*
G75*
G02*
X97724250Y-140989500I218750J0D01*
G01*
X98236750Y-140989500D01*
G75*
G02*
X98455500Y-141208250I0J-218750D01*
G01*
X98455500Y-141645750D01*
G75*
G02*
X98236750Y-141864500I-218750J0D01*
G01*
G37*
G36*
G01*
X98236750Y-143439500D02*
X97724250Y-143439500D01*
G75*
G02*
X97505500Y-143220750I0J218750D01*
G01*
X97505500Y-142783250D01*
G75*
G02*
X97724250Y-142564500I218750J0D01*
G01*
X98236750Y-142564500D01*
G75*
G02*
X98455500Y-142783250I0J-218750D01*
G01*
X98455500Y-143220750D01*
G75*
G02*
X98236750Y-143439500I-218750J0D01*
G01*
G37*
G36*
G01*
X80456750Y-141801000D02*
X79944250Y-141801000D01*
G75*
G02*
X79725500Y-141582250I0J218750D01*
G01*
X79725500Y-141144750D01*
G75*
G02*
X79944250Y-140926000I218750J0D01*
G01*
X80456750Y-140926000D01*
G75*
G02*
X80675500Y-141144750I0J-218750D01*
G01*
X80675500Y-141582250D01*
G75*
G02*
X80456750Y-141801000I-218750J0D01*
G01*
G37*
G36*
G01*
X80456750Y-143376000D02*
X79944250Y-143376000D01*
G75*
G02*
X79725500Y-143157250I0J218750D01*
G01*
X79725500Y-142719750D01*
G75*
G02*
X79944250Y-142501000I218750J0D01*
G01*
X80456750Y-142501000D01*
G75*
G02*
X80675500Y-142719750I0J-218750D01*
G01*
X80675500Y-143157250D01*
G75*
G02*
X80456750Y-143376000I-218750J0D01*
G01*
G37*
G36*
G01*
X118823450Y-107816000D02*
X118310950Y-107816000D01*
G75*
G02*
X118092200Y-107597250I0J218750D01*
G01*
X118092200Y-107159750D01*
G75*
G02*
X118310950Y-106941000I218750J0D01*
G01*
X118823450Y-106941000D01*
G75*
G02*
X119042200Y-107159750I0J-218750D01*
G01*
X119042200Y-107597250D01*
G75*
G02*
X118823450Y-107816000I-218750J0D01*
G01*
G37*
G36*
G01*
X118823450Y-109391000D02*
X118310950Y-109391000D01*
G75*
G02*
X118092200Y-109172250I0J218750D01*
G01*
X118092200Y-108734750D01*
G75*
G02*
X118310950Y-108516000I218750J0D01*
G01*
X118823450Y-108516000D01*
G75*
G02*
X119042200Y-108734750I0J-218750D01*
G01*
X119042200Y-109172250D01*
G75*
G02*
X118823450Y-109391000I-218750J0D01*
G01*
G37*
G36*
G01*
X120372850Y-107816000D02*
X119860350Y-107816000D01*
G75*
G02*
X119641600Y-107597250I0J218750D01*
G01*
X119641600Y-107159750D01*
G75*
G02*
X119860350Y-106941000I218750J0D01*
G01*
X120372850Y-106941000D01*
G75*
G02*
X120591600Y-107159750I0J-218750D01*
G01*
X120591600Y-107597250D01*
G75*
G02*
X120372850Y-107816000I-218750J0D01*
G01*
G37*
G36*
G01*
X120372850Y-109391000D02*
X119860350Y-109391000D01*
G75*
G02*
X119641600Y-109172250I0J218750D01*
G01*
X119641600Y-108734750D01*
G75*
G02*
X119860350Y-108516000I218750J0D01*
G01*
X120372850Y-108516000D01*
G75*
G02*
X120591600Y-108734750I0J-218750D01*
G01*
X120591600Y-109172250D01*
G75*
G02*
X120372850Y-109391000I-218750J0D01*
G01*
G37*
G36*
G01*
X121922250Y-107816000D02*
X121409750Y-107816000D01*
G75*
G02*
X121191000Y-107597250I0J218750D01*
G01*
X121191000Y-107159750D01*
G75*
G02*
X121409750Y-106941000I218750J0D01*
G01*
X121922250Y-106941000D01*
G75*
G02*
X122141000Y-107159750I0J-218750D01*
G01*
X122141000Y-107597250D01*
G75*
G02*
X121922250Y-107816000I-218750J0D01*
G01*
G37*
G36*
G01*
X121922250Y-109391000D02*
X121409750Y-109391000D01*
G75*
G02*
X121191000Y-109172250I0J218750D01*
G01*
X121191000Y-108734750D01*
G75*
G02*
X121409750Y-108516000I218750J0D01*
G01*
X121922250Y-108516000D01*
G75*
G02*
X122141000Y-108734750I0J-218750D01*
G01*
X122141000Y-109172250D01*
G75*
G02*
X121922250Y-109391000I-218750J0D01*
G01*
G37*
G36*
G01*
X123471650Y-107816000D02*
X122959150Y-107816000D01*
G75*
G02*
X122740400Y-107597250I0J218750D01*
G01*
X122740400Y-107159750D01*
G75*
G02*
X122959150Y-106941000I218750J0D01*
G01*
X123471650Y-106941000D01*
G75*
G02*
X123690400Y-107159750I0J-218750D01*
G01*
X123690400Y-107597250D01*
G75*
G02*
X123471650Y-107816000I-218750J0D01*
G01*
G37*
G36*
G01*
X123471650Y-109391000D02*
X122959150Y-109391000D01*
G75*
G02*
X122740400Y-109172250I0J218750D01*
G01*
X122740400Y-108734750D01*
G75*
G02*
X122959150Y-108516000I218750J0D01*
G01*
X123471650Y-108516000D01*
G75*
G02*
X123690400Y-108734750I0J-218750D01*
G01*
X123690400Y-109172250D01*
G75*
G02*
X123471650Y-109391000I-218750J0D01*
G01*
G37*
G36*
G01*
X125021050Y-107816000D02*
X124508550Y-107816000D01*
G75*
G02*
X124289800Y-107597250I0J218750D01*
G01*
X124289800Y-107159750D01*
G75*
G02*
X124508550Y-106941000I218750J0D01*
G01*
X125021050Y-106941000D01*
G75*
G02*
X125239800Y-107159750I0J-218750D01*
G01*
X125239800Y-107597250D01*
G75*
G02*
X125021050Y-107816000I-218750J0D01*
G01*
G37*
G36*
G01*
X125021050Y-109391000D02*
X124508550Y-109391000D01*
G75*
G02*
X124289800Y-109172250I0J218750D01*
G01*
X124289800Y-108734750D01*
G75*
G02*
X124508550Y-108516000I218750J0D01*
G01*
X125021050Y-108516000D01*
G75*
G02*
X125239800Y-108734750I0J-218750D01*
G01*
X125239800Y-109172250D01*
G75*
G02*
X125021050Y-109391000I-218750J0D01*
G01*
G37*
G36*
G01*
X126570450Y-107816000D02*
X126057950Y-107816000D01*
G75*
G02*
X125839200Y-107597250I0J218750D01*
G01*
X125839200Y-107159750D01*
G75*
G02*
X126057950Y-106941000I218750J0D01*
G01*
X126570450Y-106941000D01*
G75*
G02*
X126789200Y-107159750I0J-218750D01*
G01*
X126789200Y-107597250D01*
G75*
G02*
X126570450Y-107816000I-218750J0D01*
G01*
G37*
G36*
G01*
X126570450Y-109391000D02*
X126057950Y-109391000D01*
G75*
G02*
X125839200Y-109172250I0J218750D01*
G01*
X125839200Y-108734750D01*
G75*
G02*
X126057950Y-108516000I218750J0D01*
G01*
X126570450Y-108516000D01*
G75*
G02*
X126789200Y-108734750I0J-218750D01*
G01*
X126789200Y-109172250D01*
G75*
G02*
X126570450Y-109391000I-218750J0D01*
G01*
G37*
G36*
G01*
X128132550Y-107816000D02*
X127620050Y-107816000D01*
G75*
G02*
X127401300Y-107597250I0J218750D01*
G01*
X127401300Y-107159750D01*
G75*
G02*
X127620050Y-106941000I218750J0D01*
G01*
X128132550Y-106941000D01*
G75*
G02*
X128351300Y-107159750I0J-218750D01*
G01*
X128351300Y-107597250D01*
G75*
G02*
X128132550Y-107816000I-218750J0D01*
G01*
G37*
G36*
G01*
X128132550Y-109391000D02*
X127620050Y-109391000D01*
G75*
G02*
X127401300Y-109172250I0J218750D01*
G01*
X127401300Y-108734750D01*
G75*
G02*
X127620050Y-108516000I218750J0D01*
G01*
X128132550Y-108516000D01*
G75*
G02*
X128351300Y-108734750I0J-218750D01*
G01*
X128351300Y-109172250D01*
G75*
G02*
X128132550Y-109391000I-218750J0D01*
G01*
G37*
G36*
G01*
X129694650Y-107815800D02*
X129182150Y-107815800D01*
G75*
G02*
X128963400Y-107597050I0J218750D01*
G01*
X128963400Y-107159550D01*
G75*
G02*
X129182150Y-106940800I218750J0D01*
G01*
X129694650Y-106940800D01*
G75*
G02*
X129913400Y-107159550I0J-218750D01*
G01*
X129913400Y-107597050D01*
G75*
G02*
X129694650Y-107815800I-218750J0D01*
G01*
G37*
G36*
G01*
X129694650Y-109390800D02*
X129182150Y-109390800D01*
G75*
G02*
X128963400Y-109172050I0J218750D01*
G01*
X128963400Y-108734550D01*
G75*
G02*
X129182150Y-108515800I218750J0D01*
G01*
X129694650Y-108515800D01*
G75*
G02*
X129913400Y-108734550I0J-218750D01*
G01*
X129913400Y-109172050D01*
G75*
G02*
X129694650Y-109390800I-218750J0D01*
G01*
G37*
G36*
G01*
X142055000Y-69847750D02*
X142055000Y-70360250D01*
G75*
G02*
X141836250Y-70579000I-218750J0D01*
G01*
X141398750Y-70579000D01*
G75*
G02*
X141180000Y-70360250I0J218750D01*
G01*
X141180000Y-69847750D01*
G75*
G02*
X141398750Y-69629000I218750J0D01*
G01*
X141836250Y-69629000D01*
G75*
G02*
X142055000Y-69847750I0J-218750D01*
G01*
G37*
G36*
G01*
X143630000Y-69847750D02*
X143630000Y-70360250D01*
G75*
G02*
X143411250Y-70579000I-218750J0D01*
G01*
X142973750Y-70579000D01*
G75*
G02*
X142755000Y-70360250I0J218750D01*
G01*
X142755000Y-69847750D01*
G75*
G02*
X142973750Y-69629000I218750J0D01*
G01*
X143411250Y-69629000D01*
G75*
G02*
X143630000Y-69847750I0J-218750D01*
G01*
G37*
G36*
G01*
X134409800Y-69847750D02*
X134409800Y-70360250D01*
G75*
G02*
X134191050Y-70579000I-218750J0D01*
G01*
X133753550Y-70579000D01*
G75*
G02*
X133534800Y-70360250I0J218750D01*
G01*
X133534800Y-69847750D01*
G75*
G02*
X133753550Y-69629000I218750J0D01*
G01*
X134191050Y-69629000D01*
G75*
G02*
X134409800Y-69847750I0J-218750D01*
G01*
G37*
G36*
G01*
X135984800Y-69847750D02*
X135984800Y-70360250D01*
G75*
G02*
X135766050Y-70579000I-218750J0D01*
G01*
X135328550Y-70579000D01*
G75*
G02*
X135109800Y-70360250I0J218750D01*
G01*
X135109800Y-69847750D01*
G75*
G02*
X135328550Y-69629000I218750J0D01*
G01*
X135766050Y-69629000D01*
G75*
G02*
X135984800Y-69847750I0J-218750D01*
G01*
G37*
G36*
G01*
X126815000Y-69847750D02*
X126815000Y-70360250D01*
G75*
G02*
X126596250Y-70579000I-218750J0D01*
G01*
X126158750Y-70579000D01*
G75*
G02*
X125940000Y-70360250I0J218750D01*
G01*
X125940000Y-69847750D01*
G75*
G02*
X126158750Y-69629000I218750J0D01*
G01*
X126596250Y-69629000D01*
G75*
G02*
X126815000Y-69847750I0J-218750D01*
G01*
G37*
G36*
G01*
X128390000Y-69847750D02*
X128390000Y-70360250D01*
G75*
G02*
X128171250Y-70579000I-218750J0D01*
G01*
X127733750Y-70579000D01*
G75*
G02*
X127515000Y-70360250I0J218750D01*
G01*
X127515000Y-69847750D01*
G75*
G02*
X127733750Y-69629000I218750J0D01*
G01*
X128171250Y-69629000D01*
G75*
G02*
X128390000Y-69847750I0J-218750D01*
G01*
G37*
G36*
G01*
X106241200Y-63993050D02*
X106241200Y-64505550D01*
G75*
G02*
X106022450Y-64724300I-218750J0D01*
G01*
X105584950Y-64724300D01*
G75*
G02*
X105366200Y-64505550I0J218750D01*
G01*
X105366200Y-63993050D01*
G75*
G02*
X105584950Y-63774300I218750J0D01*
G01*
X106022450Y-63774300D01*
G75*
G02*
X106241200Y-63993050I0J-218750D01*
G01*
G37*
G36*
G01*
X107816200Y-63993050D02*
X107816200Y-64505550D01*
G75*
G02*
X107597450Y-64724300I-218750J0D01*
G01*
X107159950Y-64724300D01*
G75*
G02*
X106941200Y-64505550I0J218750D01*
G01*
X106941200Y-63993050D01*
G75*
G02*
X107159950Y-63774300I218750J0D01*
G01*
X107597450Y-63774300D01*
G75*
G02*
X107816200Y-63993050I0J-218750D01*
G01*
G37*
G36*
G01*
X106241200Y-62430950D02*
X106241200Y-62943450D01*
G75*
G02*
X106022450Y-63162200I-218750J0D01*
G01*
X105584950Y-63162200D01*
G75*
G02*
X105366200Y-62943450I0J218750D01*
G01*
X105366200Y-62430950D01*
G75*
G02*
X105584950Y-62212200I218750J0D01*
G01*
X106022450Y-62212200D01*
G75*
G02*
X106241200Y-62430950I0J-218750D01*
G01*
G37*
G36*
G01*
X107816200Y-62430950D02*
X107816200Y-62943450D01*
G75*
G02*
X107597450Y-63162200I-218750J0D01*
G01*
X107159950Y-63162200D01*
G75*
G02*
X106941200Y-62943450I0J218750D01*
G01*
X106941200Y-62430950D01*
G75*
G02*
X107159950Y-62212200I218750J0D01*
G01*
X107597450Y-62212200D01*
G75*
G02*
X107816200Y-62430950I0J-218750D01*
G01*
G37*
G36*
G01*
X106241200Y-60868850D02*
X106241200Y-61381350D01*
G75*
G02*
X106022450Y-61600100I-218750J0D01*
G01*
X105584950Y-61600100D01*
G75*
G02*
X105366200Y-61381350I0J218750D01*
G01*
X105366200Y-60868850D01*
G75*
G02*
X105584950Y-60650100I218750J0D01*
G01*
X106022450Y-60650100D01*
G75*
G02*
X106241200Y-60868850I0J-218750D01*
G01*
G37*
G36*
G01*
X107816200Y-60868850D02*
X107816200Y-61381350D01*
G75*
G02*
X107597450Y-61600100I-218750J0D01*
G01*
X107159950Y-61600100D01*
G75*
G02*
X106941200Y-61381350I0J218750D01*
G01*
X106941200Y-60868850D01*
G75*
G02*
X107159950Y-60650100I218750J0D01*
G01*
X107597450Y-60650100D01*
G75*
G02*
X107816200Y-60868850I0J-218750D01*
G01*
G37*
G36*
G01*
X106253900Y-59294050D02*
X106253900Y-59806550D01*
G75*
G02*
X106035150Y-60025300I-218750J0D01*
G01*
X105597650Y-60025300D01*
G75*
G02*
X105378900Y-59806550I0J218750D01*
G01*
X105378900Y-59294050D01*
G75*
G02*
X105597650Y-59075300I218750J0D01*
G01*
X106035150Y-59075300D01*
G75*
G02*
X106253900Y-59294050I0J-218750D01*
G01*
G37*
G36*
G01*
X107828900Y-59294050D02*
X107828900Y-59806550D01*
G75*
G02*
X107610150Y-60025300I-218750J0D01*
G01*
X107172650Y-60025300D01*
G75*
G02*
X106953900Y-59806550I0J218750D01*
G01*
X106953900Y-59294050D01*
G75*
G02*
X107172650Y-59075300I218750J0D01*
G01*
X107610150Y-59075300D01*
G75*
G02*
X107828900Y-59294050I0J-218750D01*
G01*
G37*
G36*
G01*
X106253900Y-57731950D02*
X106253900Y-58244450D01*
G75*
G02*
X106035150Y-58463200I-218750J0D01*
G01*
X105597650Y-58463200D01*
G75*
G02*
X105378900Y-58244450I0J218750D01*
G01*
X105378900Y-57731950D01*
G75*
G02*
X105597650Y-57513200I218750J0D01*
G01*
X106035150Y-57513200D01*
G75*
G02*
X106253900Y-57731950I0J-218750D01*
G01*
G37*
G36*
G01*
X107828900Y-57731950D02*
X107828900Y-58244450D01*
G75*
G02*
X107610150Y-58463200I-218750J0D01*
G01*
X107172650Y-58463200D01*
G75*
G02*
X106953900Y-58244450I0J218750D01*
G01*
X106953900Y-57731950D01*
G75*
G02*
X107172650Y-57513200I218750J0D01*
G01*
X107610150Y-57513200D01*
G75*
G02*
X107828900Y-57731950I0J-218750D01*
G01*
G37*
G36*
G01*
X106253900Y-56169850D02*
X106253900Y-56682350D01*
G75*
G02*
X106035150Y-56901100I-218750J0D01*
G01*
X105597650Y-56901100D01*
G75*
G02*
X105378900Y-56682350I0J218750D01*
G01*
X105378900Y-56169850D01*
G75*
G02*
X105597650Y-55951100I218750J0D01*
G01*
X106035150Y-55951100D01*
G75*
G02*
X106253900Y-56169850I0J-218750D01*
G01*
G37*
G36*
G01*
X107828900Y-56169850D02*
X107828900Y-56682350D01*
G75*
G02*
X107610150Y-56901100I-218750J0D01*
G01*
X107172650Y-56901100D01*
G75*
G02*
X106953900Y-56682350I0J218750D01*
G01*
X106953900Y-56169850D01*
G75*
G02*
X107172650Y-55951100I218750J0D01*
G01*
X107610150Y-55951100D01*
G75*
G02*
X107828900Y-56169850I0J-218750D01*
G01*
G37*
G36*
G01*
X106253900Y-54620450D02*
X106253900Y-55132950D01*
G75*
G02*
X106035150Y-55351700I-218750J0D01*
G01*
X105597650Y-55351700D01*
G75*
G02*
X105378900Y-55132950I0J218750D01*
G01*
X105378900Y-54620450D01*
G75*
G02*
X105597650Y-54401700I218750J0D01*
G01*
X106035150Y-54401700D01*
G75*
G02*
X106253900Y-54620450I0J-218750D01*
G01*
G37*
G36*
G01*
X107828900Y-54620450D02*
X107828900Y-55132950D01*
G75*
G02*
X107610150Y-55351700I-218750J0D01*
G01*
X107172650Y-55351700D01*
G75*
G02*
X106953900Y-55132950I0J218750D01*
G01*
X106953900Y-54620450D01*
G75*
G02*
X107172650Y-54401700I218750J0D01*
G01*
X107610150Y-54401700D01*
G75*
G02*
X107828900Y-54620450I0J-218750D01*
G01*
G37*
G36*
G01*
X106266600Y-53058350D02*
X106266600Y-53570850D01*
G75*
G02*
X106047850Y-53789600I-218750J0D01*
G01*
X105610350Y-53789600D01*
G75*
G02*
X105391600Y-53570850I0J218750D01*
G01*
X105391600Y-53058350D01*
G75*
G02*
X105610350Y-52839600I218750J0D01*
G01*
X106047850Y-52839600D01*
G75*
G02*
X106266600Y-53058350I0J-218750D01*
G01*
G37*
G36*
G01*
X107841600Y-53058350D02*
X107841600Y-53570850D01*
G75*
G02*
X107622850Y-53789600I-218750J0D01*
G01*
X107185350Y-53789600D01*
G75*
G02*
X106966600Y-53570850I0J218750D01*
G01*
X106966600Y-53058350D01*
G75*
G02*
X107185350Y-52839600I218750J0D01*
G01*
X107622850Y-52839600D01*
G75*
G02*
X107841600Y-53058350I0J-218750D01*
G01*
G37*
G36*
G01*
X119195000Y-69847750D02*
X119195000Y-70360250D01*
G75*
G02*
X118976250Y-70579000I-218750J0D01*
G01*
X118538750Y-70579000D01*
G75*
G02*
X118320000Y-70360250I0J218750D01*
G01*
X118320000Y-69847750D01*
G75*
G02*
X118538750Y-69629000I218750J0D01*
G01*
X118976250Y-69629000D01*
G75*
G02*
X119195000Y-69847750I0J-218750D01*
G01*
G37*
G36*
G01*
X120770000Y-69847750D02*
X120770000Y-70360250D01*
G75*
G02*
X120551250Y-70579000I-218750J0D01*
G01*
X120113750Y-70579000D01*
G75*
G02*
X119895000Y-70360250I0J218750D01*
G01*
X119895000Y-69847750D01*
G75*
G02*
X120113750Y-69629000I218750J0D01*
G01*
X120551250Y-69629000D01*
G75*
G02*
X120770000Y-69847750I0J-218750D01*
G01*
G37*
D10*
X133953000Y-129987000D03*
X131953000Y-129037000D03*
X131953000Y-130937000D03*
X116109500Y-130050500D03*
X114109500Y-129100500D03*
X114109500Y-131000500D03*
X116173000Y-118872000D03*
X114173000Y-117922000D03*
X114173000Y-119822000D03*
X98329500Y-130109000D03*
X96329500Y-129159000D03*
X96329500Y-131059000D03*
X98329500Y-118684000D03*
X96329500Y-117734000D03*
X96329500Y-119634000D03*
X80565500Y-130048000D03*
X78565500Y-129098000D03*
X78565500Y-130998000D03*
X80581500Y-118430000D03*
X78581500Y-117480000D03*
X78581500Y-119380000D03*
D14*
X142240000Y-66573400D03*
X141290000Y-68573400D03*
X143190000Y-68573400D03*
X134609800Y-66580000D03*
X133659800Y-68580000D03*
X135559800Y-68580000D03*
X126989800Y-66580000D03*
X126039800Y-68580000D03*
X127939800Y-68580000D03*
X119377500Y-66580000D03*
X118427500Y-68580000D03*
X120327500Y-68580000D03*
D15*
X83226000Y-90246200D03*
X81026000Y-90246200D03*
X81026000Y-91946200D03*
X83226000Y-91946200D03*
G36*
G01*
X134762900Y-73862250D02*
X134762900Y-72949750D01*
G75*
G02*
X135006650Y-72706000I243750J0D01*
G01*
X135494150Y-72706000D01*
G75*
G02*
X135737900Y-72949750I0J-243750D01*
G01*
X135737900Y-73862250D01*
G75*
G02*
X135494150Y-74106000I-243750J0D01*
G01*
X135006650Y-74106000D01*
G75*
G02*
X134762900Y-73862250I0J243750D01*
G01*
G37*
G36*
G01*
X132887900Y-73862250D02*
X132887900Y-72949750D01*
G75*
G02*
X133131650Y-72706000I243750J0D01*
G01*
X133619150Y-72706000D01*
G75*
G02*
X133862900Y-72949750I0J-243750D01*
G01*
X133862900Y-73862250D01*
G75*
G02*
X133619150Y-74106000I-243750J0D01*
G01*
X133131650Y-74106000D01*
G75*
G02*
X132887900Y-73862250I0J243750D01*
G01*
G37*
G36*
G01*
X79304100Y-92084800D02*
X79649100Y-92084800D01*
G75*
G02*
X79796600Y-92232300I0J-147500D01*
G01*
X79796600Y-92527300D01*
G75*
G02*
X79649100Y-92674800I-147500J0D01*
G01*
X79304100Y-92674800D01*
G75*
G02*
X79156600Y-92527300I0J147500D01*
G01*
X79156600Y-92232300D01*
G75*
G02*
X79304100Y-92084800I147500J0D01*
G01*
G37*
G36*
G01*
X79304100Y-91114800D02*
X79649100Y-91114800D01*
G75*
G02*
X79796600Y-91262300I0J-147500D01*
G01*
X79796600Y-91557300D01*
G75*
G02*
X79649100Y-91704800I-147500J0D01*
G01*
X79304100Y-91704800D01*
G75*
G02*
X79156600Y-91557300I0J147500D01*
G01*
X79156600Y-91262300D01*
G75*
G02*
X79304100Y-91114800I147500J0D01*
G01*
G37*
G36*
G01*
X84957700Y-91679400D02*
X84612700Y-91679400D01*
G75*
G02*
X84465200Y-91531900I0J147500D01*
G01*
X84465200Y-91236900D01*
G75*
G02*
X84612700Y-91089400I147500J0D01*
G01*
X84957700Y-91089400D01*
G75*
G02*
X85105200Y-91236900I0J-147500D01*
G01*
X85105200Y-91531900D01*
G75*
G02*
X84957700Y-91679400I-147500J0D01*
G01*
G37*
G36*
G01*
X84957700Y-92649400D02*
X84612700Y-92649400D01*
G75*
G02*
X84465200Y-92501900I0J147500D01*
G01*
X84465200Y-92206900D01*
G75*
G02*
X84612700Y-92059400I147500J0D01*
G01*
X84957700Y-92059400D01*
G75*
G02*
X85105200Y-92206900I0J-147500D01*
G01*
X85105200Y-92501900D01*
G75*
G02*
X84957700Y-92649400I-147500J0D01*
G01*
G37*
G36*
G01*
X96457339Y-80589131D02*
X96819731Y-80226738D01*
G75*
G02*
X97129091Y-80226738I154680J-154680D01*
G01*
X97438450Y-80536097D01*
G75*
G02*
X97438450Y-80845457I-154680J-154680D01*
G01*
X97076057Y-81207850D01*
G75*
G02*
X96766697Y-81207850I-154680J154680D01*
G01*
X96457338Y-80898491D01*
G75*
G02*
X96457338Y-80589131I154680J154680D01*
G01*
G37*
G36*
G01*
X95343645Y-79475437D02*
X95706037Y-79113044D01*
G75*
G02*
X96015397Y-79113044I154680J-154680D01*
G01*
X96324756Y-79422403D01*
G75*
G02*
X96324756Y-79731763I-154680J-154680D01*
G01*
X95962363Y-80094156D01*
G75*
G02*
X95653003Y-80094156I-154680J154680D01*
G01*
X95343644Y-79784797D01*
G75*
G02*
X95343644Y-79475437I154680J154680D01*
G01*
G37*
G36*
G01*
X83067223Y-73183942D02*
X82704831Y-73546335D01*
G75*
G02*
X82395471Y-73546335I-154680J154680D01*
G01*
X82086112Y-73236976D01*
G75*
G02*
X82086112Y-72927616I154680J154680D01*
G01*
X82448505Y-72565223D01*
G75*
G02*
X82757865Y-72565223I154680J-154680D01*
G01*
X83067224Y-72874582D01*
G75*
G02*
X83067224Y-73183942I-154680J-154680D01*
G01*
G37*
G36*
G01*
X84180917Y-74297636D02*
X83818525Y-74660029D01*
G75*
G02*
X83509165Y-74660029I-154680J154680D01*
G01*
X83199806Y-74350670D01*
G75*
G02*
X83199806Y-74041310I154680J154680D01*
G01*
X83562199Y-73678917D01*
G75*
G02*
X83871559Y-73678917I154680J-154680D01*
G01*
X84180918Y-73988276D01*
G75*
G02*
X84180918Y-74297636I-154680J-154680D01*
G01*
G37*
G36*
G01*
X111168601Y-104969000D02*
X110268599Y-104969000D01*
G75*
G02*
X110018600Y-104719001I0J249999D01*
G01*
X110018600Y-104068999D01*
G75*
G02*
X110268599Y-103819000I249999J0D01*
G01*
X111168601Y-103819000D01*
G75*
G02*
X111418600Y-104068999I0J-249999D01*
G01*
X111418600Y-104719001D01*
G75*
G02*
X111168601Y-104969000I-249999J0D01*
G01*
G37*
G36*
G01*
X111168601Y-107019000D02*
X110268599Y-107019000D01*
G75*
G02*
X110018600Y-106769001I0J249999D01*
G01*
X110018600Y-106118999D01*
G75*
G02*
X110268599Y-105869000I249999J0D01*
G01*
X111168601Y-105869000D01*
G75*
G02*
X111418600Y-106118999I0J-249999D01*
G01*
X111418600Y-106769001D01*
G75*
G02*
X111168601Y-107019000I-249999J0D01*
G01*
G37*
G36*
G01*
X93058401Y-104994400D02*
X92158399Y-104994400D01*
G75*
G02*
X91908400Y-104744401I0J249999D01*
G01*
X91908400Y-104094399D01*
G75*
G02*
X92158399Y-103844400I249999J0D01*
G01*
X93058401Y-103844400D01*
G75*
G02*
X93308400Y-104094399I0J-249999D01*
G01*
X93308400Y-104744401D01*
G75*
G02*
X93058401Y-104994400I-249999J0D01*
G01*
G37*
G36*
G01*
X93058401Y-107044400D02*
X92158399Y-107044400D01*
G75*
G02*
X91908400Y-106794401I0J249999D01*
G01*
X91908400Y-106144399D01*
G75*
G02*
X92158399Y-105894400I249999J0D01*
G01*
X93058401Y-105894400D01*
G75*
G02*
X93308400Y-106144399I0J-249999D01*
G01*
X93308400Y-106794401D01*
G75*
G02*
X93058401Y-107044400I-249999J0D01*
G01*
G37*
G36*
G01*
X91509001Y-101184400D02*
X90608999Y-101184400D01*
G75*
G02*
X90359000Y-100934401I0J249999D01*
G01*
X90359000Y-100284399D01*
G75*
G02*
X90608999Y-100034400I249999J0D01*
G01*
X91509001Y-100034400D01*
G75*
G02*
X91759000Y-100284399I0J-249999D01*
G01*
X91759000Y-100934401D01*
G75*
G02*
X91509001Y-101184400I-249999J0D01*
G01*
G37*
G36*
G01*
X91509001Y-103234400D02*
X90608999Y-103234400D01*
G75*
G02*
X90359000Y-102984401I0J249999D01*
G01*
X90359000Y-102334399D01*
G75*
G02*
X90608999Y-102084400I249999J0D01*
G01*
X91509001Y-102084400D01*
G75*
G02*
X91759000Y-102334399I0J-249999D01*
G01*
X91759000Y-102984401D01*
G75*
G02*
X91509001Y-103234400I-249999J0D01*
G01*
G37*
G36*
G01*
X109619201Y-101166400D02*
X108719199Y-101166400D01*
G75*
G02*
X108469200Y-100916401I0J249999D01*
G01*
X108469200Y-100266399D01*
G75*
G02*
X108719199Y-100016400I249999J0D01*
G01*
X109619201Y-100016400D01*
G75*
G02*
X109869200Y-100266399I0J-249999D01*
G01*
X109869200Y-100916401D01*
G75*
G02*
X109619201Y-101166400I-249999J0D01*
G01*
G37*
G36*
G01*
X109619201Y-103216400D02*
X108719199Y-103216400D01*
G75*
G02*
X108469200Y-102966401I0J249999D01*
G01*
X108469200Y-102316399D01*
G75*
G02*
X108719199Y-102066400I249999J0D01*
G01*
X109619201Y-102066400D01*
G75*
G02*
X109869200Y-102316399I0J-249999D01*
G01*
X109869200Y-102966401D01*
G75*
G02*
X109619201Y-103216400I-249999J0D01*
G01*
G37*
G36*
G01*
X98570201Y-104994400D02*
X97670199Y-104994400D01*
G75*
G02*
X97420200Y-104744401I0J249999D01*
G01*
X97420200Y-104094399D01*
G75*
G02*
X97670199Y-103844400I249999J0D01*
G01*
X98570201Y-103844400D01*
G75*
G02*
X98820200Y-104094399I0J-249999D01*
G01*
X98820200Y-104744401D01*
G75*
G02*
X98570201Y-104994400I-249999J0D01*
G01*
G37*
G36*
G01*
X98570201Y-107044400D02*
X97670199Y-107044400D01*
G75*
G02*
X97420200Y-106794401I0J249999D01*
G01*
X97420200Y-106144399D01*
G75*
G02*
X97670199Y-105894400I249999J0D01*
G01*
X98570201Y-105894400D01*
G75*
G02*
X98820200Y-106144399I0J-249999D01*
G01*
X98820200Y-106794401D01*
G75*
G02*
X98570201Y-107044400I-249999J0D01*
G01*
G37*
G36*
G01*
X80460001Y-104994400D02*
X79559999Y-104994400D01*
G75*
G02*
X79310000Y-104744401I0J249999D01*
G01*
X79310000Y-104094399D01*
G75*
G02*
X79559999Y-103844400I249999J0D01*
G01*
X80460001Y-103844400D01*
G75*
G02*
X80710000Y-104094399I0J-249999D01*
G01*
X80710000Y-104744401D01*
G75*
G02*
X80460001Y-104994400I-249999J0D01*
G01*
G37*
G36*
G01*
X80460001Y-107044400D02*
X79559999Y-107044400D01*
G75*
G02*
X79310000Y-106794401I0J249999D01*
G01*
X79310000Y-106144399D01*
G75*
G02*
X79559999Y-105894400I249999J0D01*
G01*
X80460001Y-105894400D01*
G75*
G02*
X80710000Y-106144399I0J-249999D01*
G01*
X80710000Y-106794401D01*
G75*
G02*
X80460001Y-107044400I-249999J0D01*
G01*
G37*
G36*
G01*
X82009401Y-101191800D02*
X81109399Y-101191800D01*
G75*
G02*
X80859400Y-100941801I0J249999D01*
G01*
X80859400Y-100291799D01*
G75*
G02*
X81109399Y-100041800I249999J0D01*
G01*
X82009401Y-100041800D01*
G75*
G02*
X82259400Y-100291799I0J-249999D01*
G01*
X82259400Y-100941801D01*
G75*
G02*
X82009401Y-101191800I-249999J0D01*
G01*
G37*
G36*
G01*
X82009401Y-103241800D02*
X81109399Y-103241800D01*
G75*
G02*
X80859400Y-102991801I0J249999D01*
G01*
X80859400Y-102341799D01*
G75*
G02*
X81109399Y-102091800I249999J0D01*
G01*
X82009401Y-102091800D01*
G75*
G02*
X82259400Y-102341799I0J-249999D01*
G01*
X82259400Y-102991801D01*
G75*
G02*
X82009401Y-103241800I-249999J0D01*
G01*
G37*
G36*
G01*
X100119601Y-101217200D02*
X99219599Y-101217200D01*
G75*
G02*
X98969600Y-100967201I0J249999D01*
G01*
X98969600Y-100317199D01*
G75*
G02*
X99219599Y-100067200I249999J0D01*
G01*
X100119601Y-100067200D01*
G75*
G02*
X100369600Y-100317199I0J-249999D01*
G01*
X100369600Y-100967201D01*
G75*
G02*
X100119601Y-101217200I-249999J0D01*
G01*
G37*
G36*
G01*
X100119601Y-103267200D02*
X99219599Y-103267200D01*
G75*
G02*
X98969600Y-103017201I0J249999D01*
G01*
X98969600Y-102367199D01*
G75*
G02*
X99219599Y-102117200I249999J0D01*
G01*
X100119601Y-102117200D01*
G75*
G02*
X100369600Y-102367199I0J-249999D01*
G01*
X100369600Y-103017201D01*
G75*
G02*
X100119601Y-103267200I-249999J0D01*
G01*
G37*
G36*
G01*
X101834200Y-99870550D02*
X101834200Y-100383050D01*
G75*
G02*
X101615450Y-100601800I-218750J0D01*
G01*
X101177950Y-100601800D01*
G75*
G02*
X100959200Y-100383050I0J218750D01*
G01*
X100959200Y-99870550D01*
G75*
G02*
X101177950Y-99651800I218750J0D01*
G01*
X101615450Y-99651800D01*
G75*
G02*
X101834200Y-99870550I0J-218750D01*
G01*
G37*
G36*
G01*
X103409200Y-99870550D02*
X103409200Y-100383050D01*
G75*
G02*
X103190450Y-100601800I-218750J0D01*
G01*
X102752950Y-100601800D01*
G75*
G02*
X102534200Y-100383050I0J218750D01*
G01*
X102534200Y-99870550D01*
G75*
G02*
X102752950Y-99651800I218750J0D01*
G01*
X103190450Y-99651800D01*
G75*
G02*
X103409200Y-99870550I0J-218750D01*
G01*
G37*
G36*
G01*
X106279100Y-106931750D02*
X106279100Y-107444250D01*
G75*
G02*
X106060350Y-107663000I-218750J0D01*
G01*
X105622850Y-107663000D01*
G75*
G02*
X105404100Y-107444250I0J218750D01*
G01*
X105404100Y-106931750D01*
G75*
G02*
X105622850Y-106713000I218750J0D01*
G01*
X106060350Y-106713000D01*
G75*
G02*
X106279100Y-106931750I0J-218750D01*
G01*
G37*
G36*
G01*
X107854100Y-106931750D02*
X107854100Y-107444250D01*
G75*
G02*
X107635350Y-107663000I-218750J0D01*
G01*
X107197850Y-107663000D01*
G75*
G02*
X106979100Y-107444250I0J218750D01*
G01*
X106979100Y-106931750D01*
G75*
G02*
X107197850Y-106713000I218750J0D01*
G01*
X107635350Y-106713000D01*
G75*
G02*
X107854100Y-106931750I0J-218750D01*
G01*
G37*
G36*
G01*
X83724100Y-99845150D02*
X83724100Y-100357650D01*
G75*
G02*
X83505350Y-100576400I-218750J0D01*
G01*
X83067850Y-100576400D01*
G75*
G02*
X82849100Y-100357650I0J218750D01*
G01*
X82849100Y-99845150D01*
G75*
G02*
X83067850Y-99626400I218750J0D01*
G01*
X83505350Y-99626400D01*
G75*
G02*
X83724100Y-99845150I0J-218750D01*
G01*
G37*
G36*
G01*
X85299100Y-99845150D02*
X85299100Y-100357650D01*
G75*
G02*
X85080350Y-100576400I-218750J0D01*
G01*
X84642850Y-100576400D01*
G75*
G02*
X84424100Y-100357650I0J218750D01*
G01*
X84424100Y-99845150D01*
G75*
G02*
X84642850Y-99626400I218750J0D01*
G01*
X85080350Y-99626400D01*
G75*
G02*
X85299100Y-99845150I0J-218750D01*
G01*
G37*
G36*
G01*
X88168900Y-106906350D02*
X88168900Y-107418850D01*
G75*
G02*
X87950150Y-107637600I-218750J0D01*
G01*
X87512650Y-107637600D01*
G75*
G02*
X87293900Y-107418850I0J218750D01*
G01*
X87293900Y-106906350D01*
G75*
G02*
X87512650Y-106687600I218750J0D01*
G01*
X87950150Y-106687600D01*
G75*
G02*
X88168900Y-106906350I0J-218750D01*
G01*
G37*
G36*
G01*
X89743900Y-106906350D02*
X89743900Y-107418850D01*
G75*
G02*
X89525150Y-107637600I-218750J0D01*
G01*
X89087650Y-107637600D01*
G75*
G02*
X88868900Y-107418850I0J218750D01*
G01*
X88868900Y-106906350D01*
G75*
G02*
X89087650Y-106687600I218750J0D01*
G01*
X89525150Y-106687600D01*
G75*
G02*
X89743900Y-106906350I0J-218750D01*
G01*
G37*
G36*
G01*
X129621500Y-101051000D02*
X129966500Y-101051000D01*
G75*
G02*
X130114000Y-101198500I0J-147500D01*
G01*
X130114000Y-101493500D01*
G75*
G02*
X129966500Y-101641000I-147500J0D01*
G01*
X129621500Y-101641000D01*
G75*
G02*
X129474000Y-101493500I0J147500D01*
G01*
X129474000Y-101198500D01*
G75*
G02*
X129621500Y-101051000I147500J0D01*
G01*
G37*
G36*
G01*
X129621500Y-100081000D02*
X129966500Y-100081000D01*
G75*
G02*
X130114000Y-100228500I0J-147500D01*
G01*
X130114000Y-100523500D01*
G75*
G02*
X129966500Y-100671000I-147500J0D01*
G01*
X129621500Y-100671000D01*
G75*
G02*
X129474000Y-100523500I0J147500D01*
G01*
X129474000Y-100228500D01*
G75*
G02*
X129621500Y-100081000I147500J0D01*
G01*
G37*
G36*
G01*
X128605500Y-101051000D02*
X128950500Y-101051000D01*
G75*
G02*
X129098000Y-101198500I0J-147500D01*
G01*
X129098000Y-101493500D01*
G75*
G02*
X128950500Y-101641000I-147500J0D01*
G01*
X128605500Y-101641000D01*
G75*
G02*
X128458000Y-101493500I0J147500D01*
G01*
X128458000Y-101198500D01*
G75*
G02*
X128605500Y-101051000I147500J0D01*
G01*
G37*
G36*
G01*
X128605500Y-100081000D02*
X128950500Y-100081000D01*
G75*
G02*
X129098000Y-100228500I0J-147500D01*
G01*
X129098000Y-100523500D01*
G75*
G02*
X128950500Y-100671000I-147500J0D01*
G01*
X128605500Y-100671000D01*
G75*
G02*
X128458000Y-100523500I0J147500D01*
G01*
X128458000Y-100228500D01*
G75*
G02*
X128605500Y-100081000I147500J0D01*
G01*
G37*
G36*
G01*
X99504000Y-53195000D02*
X99504000Y-52850000D01*
G75*
G02*
X99651500Y-52702500I147500J0D01*
G01*
X99946500Y-52702500D01*
G75*
G02*
X100094000Y-52850000I0J-147500D01*
G01*
X100094000Y-53195000D01*
G75*
G02*
X99946500Y-53342500I-147500J0D01*
G01*
X99651500Y-53342500D01*
G75*
G02*
X99504000Y-53195000I0J147500D01*
G01*
G37*
G36*
G01*
X98534000Y-53195000D02*
X98534000Y-52850000D01*
G75*
G02*
X98681500Y-52702500I147500J0D01*
G01*
X98976500Y-52702500D01*
G75*
G02*
X99124000Y-52850000I0J-147500D01*
G01*
X99124000Y-53195000D01*
G75*
G02*
X98976500Y-53342500I-147500J0D01*
G01*
X98681500Y-53342500D01*
G75*
G02*
X98534000Y-53195000I0J147500D01*
G01*
G37*
G36*
G01*
X99504000Y-54211000D02*
X99504000Y-53866000D01*
G75*
G02*
X99651500Y-53718500I147500J0D01*
G01*
X99946500Y-53718500D01*
G75*
G02*
X100094000Y-53866000I0J-147500D01*
G01*
X100094000Y-54211000D01*
G75*
G02*
X99946500Y-54358500I-147500J0D01*
G01*
X99651500Y-54358500D01*
G75*
G02*
X99504000Y-54211000I0J147500D01*
G01*
G37*
G36*
G01*
X98534000Y-54211000D02*
X98534000Y-53866000D01*
G75*
G02*
X98681500Y-53718500I147500J0D01*
G01*
X98976500Y-53718500D01*
G75*
G02*
X99124000Y-53866000I0J-147500D01*
G01*
X99124000Y-54211000D01*
G75*
G02*
X98976500Y-54358500I-147500J0D01*
G01*
X98681500Y-54358500D01*
G75*
G02*
X98534000Y-54211000I0J147500D01*
G01*
G37*
G36*
G01*
X104203000Y-98114900D02*
X104203000Y-97769900D01*
G75*
G02*
X104350500Y-97622400I147500J0D01*
G01*
X104645500Y-97622400D01*
G75*
G02*
X104793000Y-97769900I0J-147500D01*
G01*
X104793000Y-98114900D01*
G75*
G02*
X104645500Y-98262400I-147500J0D01*
G01*
X104350500Y-98262400D01*
G75*
G02*
X104203000Y-98114900I0J147500D01*
G01*
G37*
G36*
G01*
X103233000Y-98114900D02*
X103233000Y-97769900D01*
G75*
G02*
X103380500Y-97622400I147500J0D01*
G01*
X103675500Y-97622400D01*
G75*
G02*
X103823000Y-97769900I0J-147500D01*
G01*
X103823000Y-98114900D01*
G75*
G02*
X103675500Y-98262400I-147500J0D01*
G01*
X103380500Y-98262400D01*
G75*
G02*
X103233000Y-98114900I0J147500D01*
G01*
G37*
G36*
G01*
X104203000Y-97098900D02*
X104203000Y-96753900D01*
G75*
G02*
X104350500Y-96606400I147500J0D01*
G01*
X104645500Y-96606400D01*
G75*
G02*
X104793000Y-96753900I0J-147500D01*
G01*
X104793000Y-97098900D01*
G75*
G02*
X104645500Y-97246400I-147500J0D01*
G01*
X104350500Y-97246400D01*
G75*
G02*
X104203000Y-97098900I0J147500D01*
G01*
G37*
G36*
G01*
X103233000Y-97098900D02*
X103233000Y-96753900D01*
G75*
G02*
X103380500Y-96606400I147500J0D01*
G01*
X103675500Y-96606400D01*
G75*
G02*
X103823000Y-96753900I0J-147500D01*
G01*
X103823000Y-97098900D01*
G75*
G02*
X103675500Y-97246400I-147500J0D01*
G01*
X103380500Y-97246400D01*
G75*
G02*
X103233000Y-97098900I0J147500D01*
G01*
G37*
G36*
G01*
X95671000Y-98165700D02*
X95671000Y-97820700D01*
G75*
G02*
X95818500Y-97673200I147500J0D01*
G01*
X96113500Y-97673200D01*
G75*
G02*
X96261000Y-97820700I0J-147500D01*
G01*
X96261000Y-98165700D01*
G75*
G02*
X96113500Y-98313200I-147500J0D01*
G01*
X95818500Y-98313200D01*
G75*
G02*
X95671000Y-98165700I0J147500D01*
G01*
G37*
G36*
G01*
X94701000Y-98165700D02*
X94701000Y-97820700D01*
G75*
G02*
X94848500Y-97673200I147500J0D01*
G01*
X95143500Y-97673200D01*
G75*
G02*
X95291000Y-97820700I0J-147500D01*
G01*
X95291000Y-98165700D01*
G75*
G02*
X95143500Y-98313200I-147500J0D01*
G01*
X94848500Y-98313200D01*
G75*
G02*
X94701000Y-98165700I0J147500D01*
G01*
G37*
G36*
G01*
X95668600Y-97149700D02*
X95668600Y-96804700D01*
G75*
G02*
X95816100Y-96657200I147500J0D01*
G01*
X96111100Y-96657200D01*
G75*
G02*
X96258600Y-96804700I0J-147500D01*
G01*
X96258600Y-97149700D01*
G75*
G02*
X96111100Y-97297200I-147500J0D01*
G01*
X95816100Y-97297200D01*
G75*
G02*
X95668600Y-97149700I0J147500D01*
G01*
G37*
G36*
G01*
X94698600Y-97149700D02*
X94698600Y-96804700D01*
G75*
G02*
X94846100Y-96657200I147500J0D01*
G01*
X95141100Y-96657200D01*
G75*
G02*
X95288600Y-96804700I0J-147500D01*
G01*
X95288600Y-97149700D01*
G75*
G02*
X95141100Y-97297200I-147500J0D01*
G01*
X94846100Y-97297200D01*
G75*
G02*
X94698600Y-97149700I0J147500D01*
G01*
G37*
G36*
G01*
X90036998Y-90337822D02*
X89793047Y-90093870D01*
G75*
G02*
X89793047Y-89885274I104298J104298D01*
G01*
X90001643Y-89676678D01*
G75*
G02*
X90210239Y-89676678I104298J-104298D01*
G01*
X90454191Y-89920630D01*
G75*
G02*
X90454191Y-90129226I-104298J-104298D01*
G01*
X90245595Y-90337822D01*
G75*
G02*
X90036999Y-90337822I-104298J104298D01*
G01*
G37*
G36*
G01*
X89351104Y-91023716D02*
X89107153Y-90779764D01*
G75*
G02*
X89107153Y-90571168I104298J104298D01*
G01*
X89315749Y-90362572D01*
G75*
G02*
X89524345Y-90362572I104298J-104298D01*
G01*
X89768297Y-90606524D01*
G75*
G02*
X89768297Y-90815120I-104298J-104298D01*
G01*
X89559701Y-91023716D01*
G75*
G02*
X89351105Y-91023716I-104298J104298D01*
G01*
G37*
G36*
G01*
X89318578Y-89619402D02*
X89074627Y-89375450D01*
G75*
G02*
X89074627Y-89166854I104298J104298D01*
G01*
X89283223Y-88958258D01*
G75*
G02*
X89491819Y-88958258I104298J-104298D01*
G01*
X89735771Y-89202210D01*
G75*
G02*
X89735771Y-89410806I-104298J-104298D01*
G01*
X89527175Y-89619402D01*
G75*
G02*
X89318579Y-89619402I-104298J104298D01*
G01*
G37*
G36*
G01*
X88632684Y-90305296D02*
X88388733Y-90061344D01*
G75*
G02*
X88388733Y-89852748I104298J104298D01*
G01*
X88597329Y-89644152D01*
G75*
G02*
X88805925Y-89644152I104298J-104298D01*
G01*
X89049877Y-89888104D01*
G75*
G02*
X89049877Y-90096700I-104298J-104298D01*
G01*
X88841281Y-90305296D01*
G75*
G02*
X88632685Y-90305296I-104298J104298D01*
G01*
G37*
G36*
G01*
X95097322Y-80939473D02*
X95341274Y-80695522D01*
G75*
G02*
X95549870Y-80695522I104298J-104298D01*
G01*
X95758466Y-80904118D01*
G75*
G02*
X95758466Y-81112714I-104298J-104298D01*
G01*
X95514514Y-81356666D01*
G75*
G02*
X95305918Y-81356666I-104298J104298D01*
G01*
X95097322Y-81148070D01*
G75*
G02*
X95097322Y-80939474I104298J104298D01*
G01*
G37*
G36*
G01*
X94411428Y-80253579D02*
X94655380Y-80009628D01*
G75*
G02*
X94863976Y-80009628I104298J-104298D01*
G01*
X95072572Y-80218224D01*
G75*
G02*
X95072572Y-80426820I-104298J-104298D01*
G01*
X94828620Y-80670772D01*
G75*
G02*
X94620024Y-80670772I-104298J104298D01*
G01*
X94411428Y-80462176D01*
G75*
G02*
X94411428Y-80253580I104298J104298D01*
G01*
G37*
G36*
G01*
X94355018Y-81665582D02*
X94598970Y-81421631D01*
G75*
G02*
X94807566Y-81421631I104298J-104298D01*
G01*
X95016162Y-81630227D01*
G75*
G02*
X95016162Y-81838823I-104298J-104298D01*
G01*
X94772210Y-82082775D01*
G75*
G02*
X94563614Y-82082775I-104298J104298D01*
G01*
X94355018Y-81874179D01*
G75*
G02*
X94355018Y-81665583I104298J104298D01*
G01*
G37*
G36*
G01*
X93669124Y-80979688D02*
X93913076Y-80735737D01*
G75*
G02*
X94121672Y-80735737I104298J-104298D01*
G01*
X94330268Y-80944333D01*
G75*
G02*
X94330268Y-81152929I-104298J-104298D01*
G01*
X94086316Y-81396881D01*
G75*
G02*
X93877720Y-81396881I-104298J104298D01*
G01*
X93669124Y-81188285D01*
G75*
G02*
X93669124Y-80979689I104298J104298D01*
G01*
G37*
G36*
G01*
X85652936Y-73384796D02*
X85408985Y-73140844D01*
G75*
G02*
X85408985Y-72932248I104298J104298D01*
G01*
X85617581Y-72723652D01*
G75*
G02*
X85826177Y-72723652I104298J-104298D01*
G01*
X86070129Y-72967604D01*
G75*
G02*
X86070129Y-73176200I-104298J-104298D01*
G01*
X85861533Y-73384796D01*
G75*
G02*
X85652937Y-73384796I-104298J104298D01*
G01*
G37*
G36*
G01*
X84967042Y-74070690D02*
X84723091Y-73826738D01*
G75*
G02*
X84723091Y-73618142I104298J104298D01*
G01*
X84931687Y-73409546D01*
G75*
G02*
X85140283Y-73409546I104298J-104298D01*
G01*
X85384235Y-73653498D01*
G75*
G02*
X85384235Y-73862094I-104298J-104298D01*
G01*
X85175639Y-74070690D01*
G75*
G02*
X84967043Y-74070690I-104298J104298D01*
G01*
G37*
G36*
G01*
X86373054Y-74101519D02*
X86129103Y-73857567D01*
G75*
G02*
X86129103Y-73648971I104298J104298D01*
G01*
X86337699Y-73440375D01*
G75*
G02*
X86546295Y-73440375I104298J-104298D01*
G01*
X86790247Y-73684327D01*
G75*
G02*
X86790247Y-73892923I-104298J-104298D01*
G01*
X86581651Y-74101519D01*
G75*
G02*
X86373055Y-74101519I-104298J104298D01*
G01*
G37*
G36*
G01*
X85687160Y-74787413D02*
X85443209Y-74543461D01*
G75*
G02*
X85443209Y-74334865I104298J104298D01*
G01*
X85651805Y-74126269D01*
G75*
G02*
X85860401Y-74126269I104298J-104298D01*
G01*
X86104353Y-74370221D01*
G75*
G02*
X86104353Y-74578817I-104298J-104298D01*
G01*
X85895757Y-74787413D01*
G75*
G02*
X85687161Y-74787413I-104298J104298D01*
G01*
G37*
G36*
G01*
X79250227Y-86496960D02*
X79494179Y-86253009D01*
G75*
G02*
X79702775Y-86253009I104298J-104298D01*
G01*
X79911371Y-86461605D01*
G75*
G02*
X79911371Y-86670201I-104298J-104298D01*
G01*
X79667419Y-86914153D01*
G75*
G02*
X79458823Y-86914153I-104298J104298D01*
G01*
X79250227Y-86705557D01*
G75*
G02*
X79250227Y-86496961I104298J104298D01*
G01*
G37*
G36*
G01*
X78564333Y-85811066D02*
X78808285Y-85567115D01*
G75*
G02*
X79016881Y-85567115I104298J-104298D01*
G01*
X79225477Y-85775711D01*
G75*
G02*
X79225477Y-85984307I-104298J-104298D01*
G01*
X78981525Y-86228259D01*
G75*
G02*
X78772929Y-86228259I-104298J104298D01*
G01*
X78564333Y-86019663D01*
G75*
G02*
X78564333Y-85811067I104298J104298D01*
G01*
G37*
G36*
G01*
X79968647Y-85778540D02*
X80212599Y-85534589D01*
G75*
G02*
X80421195Y-85534589I104298J-104298D01*
G01*
X80629791Y-85743185D01*
G75*
G02*
X80629791Y-85951781I-104298J-104298D01*
G01*
X80385839Y-86195733D01*
G75*
G02*
X80177243Y-86195733I-104298J104298D01*
G01*
X79968647Y-85987137D01*
G75*
G02*
X79968647Y-85778541I104298J104298D01*
G01*
G37*
G36*
G01*
X79282753Y-85092646D02*
X79526705Y-84848695D01*
G75*
G02*
X79735301Y-84848695I104298J-104298D01*
G01*
X79943897Y-85057291D01*
G75*
G02*
X79943897Y-85265887I-104298J-104298D01*
G01*
X79699945Y-85509839D01*
G75*
G02*
X79491349Y-85509839I-104298J104298D01*
G01*
X79282753Y-85301243D01*
G75*
G02*
X79282753Y-85092647I104298J104298D01*
G01*
G37*
G36*
G01*
X85895616Y-90196826D02*
X86139568Y-89952875D01*
G75*
G02*
X86348164Y-89952875I104298J-104298D01*
G01*
X86556760Y-90161471D01*
G75*
G02*
X86556760Y-90370067I-104298J-104298D01*
G01*
X86312808Y-90614019D01*
G75*
G02*
X86104212Y-90614019I-104298J104298D01*
G01*
X85895616Y-90405423D01*
G75*
G02*
X85895616Y-90196827I104298J104298D01*
G01*
G37*
G36*
G01*
X85209722Y-89510932D02*
X85453674Y-89266981D01*
G75*
G02*
X85662270Y-89266981I104298J-104298D01*
G01*
X85870866Y-89475577D01*
G75*
G02*
X85870866Y-89684173I-104298J-104298D01*
G01*
X85626914Y-89928125D01*
G75*
G02*
X85418318Y-89928125I-104298J104298D01*
G01*
X85209722Y-89719529D01*
G75*
G02*
X85209722Y-89510933I104298J104298D01*
G01*
G37*
G36*
G01*
X87512500Y-70028750D02*
X87512500Y-70941250D01*
G75*
G02*
X87268750Y-71185000I-243750J0D01*
G01*
X86781250Y-71185000D01*
G75*
G02*
X86537500Y-70941250I0J243750D01*
G01*
X86537500Y-70028750D01*
G75*
G02*
X86781250Y-69785000I243750J0D01*
G01*
X87268750Y-69785000D01*
G75*
G02*
X87512500Y-70028750I0J-243750D01*
G01*
G37*
G36*
G01*
X89387500Y-70028750D02*
X89387500Y-70941250D01*
G75*
G02*
X89143750Y-71185000I-243750J0D01*
G01*
X88656250Y-71185000D01*
G75*
G02*
X88412500Y-70941250I0J243750D01*
G01*
X88412500Y-70028750D01*
G75*
G02*
X88656250Y-69785000I243750J0D01*
G01*
X89143750Y-69785000D01*
G75*
G02*
X89387500Y-70028750I0J-243750D01*
G01*
G37*
G36*
G01*
X126943460Y-72604310D02*
X126943460Y-73516810D01*
G75*
G02*
X126699710Y-73760560I-243750J0D01*
G01*
X126212210Y-73760560D01*
G75*
G02*
X125968460Y-73516810I0J243750D01*
G01*
X125968460Y-72604310D01*
G75*
G02*
X126212210Y-72360560I243750J0D01*
G01*
X126699710Y-72360560D01*
G75*
G02*
X126943460Y-72604310I0J-243750D01*
G01*
G37*
G36*
G01*
X128818460Y-72604310D02*
X128818460Y-73516810D01*
G75*
G02*
X128574710Y-73760560I-243750J0D01*
G01*
X128087210Y-73760560D01*
G75*
G02*
X127843460Y-73516810I0J243750D01*
G01*
X127843460Y-72604310D01*
G75*
G02*
X128087210Y-72360560I243750J0D01*
G01*
X128574710Y-72360560D01*
G75*
G02*
X128818460Y-72604310I0J-243750D01*
G01*
G37*
G36*
G01*
X132801200Y-77521560D02*
X134051200Y-77521560D01*
G75*
G02*
X134301200Y-77771560I0J-250000D01*
G01*
X134301200Y-78521560D01*
G75*
G02*
X134051200Y-78771560I-250000J0D01*
G01*
X132801200Y-78771560D01*
G75*
G02*
X132551200Y-78521560I0J250000D01*
G01*
X132551200Y-77771560D01*
G75*
G02*
X132801200Y-77521560I250000J0D01*
G01*
G37*
G36*
G01*
X132801200Y-74721560D02*
X134051200Y-74721560D01*
G75*
G02*
X134301200Y-74971560I0J-250000D01*
G01*
X134301200Y-75721560D01*
G75*
G02*
X134051200Y-75971560I-250000J0D01*
G01*
X132801200Y-75971560D01*
G75*
G02*
X132551200Y-75721560I0J250000D01*
G01*
X132551200Y-74971560D01*
G75*
G02*
X132801200Y-74721560I250000J0D01*
G01*
G37*
G36*
G01*
X142056900Y-97907200D02*
X141711900Y-97907200D01*
G75*
G02*
X141564400Y-97759700I0J147500D01*
G01*
X141564400Y-97464700D01*
G75*
G02*
X141711900Y-97317200I147500J0D01*
G01*
X142056900Y-97317200D01*
G75*
G02*
X142204400Y-97464700I0J-147500D01*
G01*
X142204400Y-97759700D01*
G75*
G02*
X142056900Y-97907200I-147500J0D01*
G01*
G37*
G36*
G01*
X142056900Y-98877200D02*
X141711900Y-98877200D01*
G75*
G02*
X141564400Y-98729700I0J147500D01*
G01*
X141564400Y-98434700D01*
G75*
G02*
X141711900Y-98287200I147500J0D01*
G01*
X142056900Y-98287200D01*
G75*
G02*
X142204400Y-98434700I0J-147500D01*
G01*
X142204400Y-98729700D01*
G75*
G02*
X142056900Y-98877200I-147500J0D01*
G01*
G37*
G36*
G01*
X134701500Y-106847000D02*
X135046500Y-106847000D01*
G75*
G02*
X135194000Y-106994500I0J-147500D01*
G01*
X135194000Y-107289500D01*
G75*
G02*
X135046500Y-107437000I-147500J0D01*
G01*
X134701500Y-107437000D01*
G75*
G02*
X134554000Y-107289500I0J147500D01*
G01*
X134554000Y-106994500D01*
G75*
G02*
X134701500Y-106847000I147500J0D01*
G01*
G37*
G36*
G01*
X134701500Y-105877000D02*
X135046500Y-105877000D01*
G75*
G02*
X135194000Y-106024500I0J-147500D01*
G01*
X135194000Y-106319500D01*
G75*
G02*
X135046500Y-106467000I-147500J0D01*
G01*
X134701500Y-106467000D01*
G75*
G02*
X134554000Y-106319500I0J147500D01*
G01*
X134554000Y-106024500D01*
G75*
G02*
X134701500Y-105877000I147500J0D01*
G01*
G37*
G36*
G01*
X141813500Y-106870000D02*
X142158500Y-106870000D01*
G75*
G02*
X142306000Y-107017500I0J-147500D01*
G01*
X142306000Y-107312500D01*
G75*
G02*
X142158500Y-107460000I-147500J0D01*
G01*
X141813500Y-107460000D01*
G75*
G02*
X141666000Y-107312500I0J147500D01*
G01*
X141666000Y-107017500D01*
G75*
G02*
X141813500Y-106870000I147500J0D01*
G01*
G37*
G36*
G01*
X141813500Y-105900000D02*
X142158500Y-105900000D01*
G75*
G02*
X142306000Y-106047500I0J-147500D01*
G01*
X142306000Y-106342500D01*
G75*
G02*
X142158500Y-106490000I-147500J0D01*
G01*
X141813500Y-106490000D01*
G75*
G02*
X141666000Y-106342500I0J147500D01*
G01*
X141666000Y-106047500D01*
G75*
G02*
X141813500Y-105900000I147500J0D01*
G01*
G37*
G36*
G01*
X124353100Y-83937200D02*
X124008100Y-83937200D01*
G75*
G02*
X123860600Y-83789700I0J147500D01*
G01*
X123860600Y-83494700D01*
G75*
G02*
X124008100Y-83347200I147500J0D01*
G01*
X124353100Y-83347200D01*
G75*
G02*
X124500600Y-83494700I0J-147500D01*
G01*
X124500600Y-83789700D01*
G75*
G02*
X124353100Y-83937200I-147500J0D01*
G01*
G37*
G36*
G01*
X124353100Y-84907200D02*
X124008100Y-84907200D01*
G75*
G02*
X123860600Y-84759700I0J147500D01*
G01*
X123860600Y-84464700D01*
G75*
G02*
X124008100Y-84317200I147500J0D01*
G01*
X124353100Y-84317200D01*
G75*
G02*
X124500600Y-84464700I0J-147500D01*
G01*
X124500600Y-84759700D01*
G75*
G02*
X124353100Y-84907200I-147500J0D01*
G01*
G37*
G36*
G01*
X116921500Y-92923000D02*
X117266500Y-92923000D01*
G75*
G02*
X117414000Y-93070500I0J-147500D01*
G01*
X117414000Y-93365500D01*
G75*
G02*
X117266500Y-93513000I-147500J0D01*
G01*
X116921500Y-93513000D01*
G75*
G02*
X116774000Y-93365500I0J147500D01*
G01*
X116774000Y-93070500D01*
G75*
G02*
X116921500Y-92923000I147500J0D01*
G01*
G37*
G36*
G01*
X116921500Y-91953000D02*
X117266500Y-91953000D01*
G75*
G02*
X117414000Y-92100500I0J-147500D01*
G01*
X117414000Y-92395500D01*
G75*
G02*
X117266500Y-92543000I-147500J0D01*
G01*
X116921500Y-92543000D01*
G75*
G02*
X116774000Y-92395500I0J147500D01*
G01*
X116774000Y-92100500D01*
G75*
G02*
X116921500Y-91953000I147500J0D01*
G01*
G37*
G36*
G01*
X123982700Y-92877000D02*
X124327700Y-92877000D01*
G75*
G02*
X124475200Y-93024500I0J-147500D01*
G01*
X124475200Y-93319500D01*
G75*
G02*
X124327700Y-93467000I-147500J0D01*
G01*
X123982700Y-93467000D01*
G75*
G02*
X123835200Y-93319500I0J147500D01*
G01*
X123835200Y-93024500D01*
G75*
G02*
X123982700Y-92877000I147500J0D01*
G01*
G37*
G36*
G01*
X123982700Y-91907000D02*
X124327700Y-91907000D01*
G75*
G02*
X124475200Y-92054500I0J-147500D01*
G01*
X124475200Y-92349500D01*
G75*
G02*
X124327700Y-92497000I-147500J0D01*
G01*
X123982700Y-92497000D01*
G75*
G02*
X123835200Y-92349500I0J147500D01*
G01*
X123835200Y-92054500D01*
G75*
G02*
X123982700Y-91907000I147500J0D01*
G01*
G37*
G36*
G01*
X110408500Y-67097000D02*
X110063500Y-67097000D01*
G75*
G02*
X109916000Y-66949500I0J147500D01*
G01*
X109916000Y-66654500D01*
G75*
G02*
X110063500Y-66507000I147500J0D01*
G01*
X110408500Y-66507000D01*
G75*
G02*
X110556000Y-66654500I0J-147500D01*
G01*
X110556000Y-66949500D01*
G75*
G02*
X110408500Y-67097000I-147500J0D01*
G01*
G37*
G36*
G01*
X110408500Y-68067000D02*
X110063500Y-68067000D01*
G75*
G02*
X109916000Y-67919500I0J147500D01*
G01*
X109916000Y-67624500D01*
G75*
G02*
X110063500Y-67477000I147500J0D01*
G01*
X110408500Y-67477000D01*
G75*
G02*
X110556000Y-67624500I0J-147500D01*
G01*
X110556000Y-67919500D01*
G75*
G02*
X110408500Y-68067000I-147500J0D01*
G01*
G37*
G36*
G01*
X99141500Y-78930000D02*
X99486500Y-78930000D01*
G75*
G02*
X99634000Y-79077500I0J-147500D01*
G01*
X99634000Y-79372500D01*
G75*
G02*
X99486500Y-79520000I-147500J0D01*
G01*
X99141500Y-79520000D01*
G75*
G02*
X98994000Y-79372500I0J147500D01*
G01*
X98994000Y-79077500D01*
G75*
G02*
X99141500Y-78930000I147500J0D01*
G01*
G37*
G36*
G01*
X99141500Y-77960000D02*
X99486500Y-77960000D01*
G75*
G02*
X99634000Y-78107500I0J-147500D01*
G01*
X99634000Y-78402500D01*
G75*
G02*
X99486500Y-78550000I-147500J0D01*
G01*
X99141500Y-78550000D01*
G75*
G02*
X98994000Y-78402500I0J147500D01*
G01*
X98994000Y-78107500D01*
G75*
G02*
X99141500Y-77960000I147500J0D01*
G01*
G37*
G36*
G01*
X106202700Y-78907000D02*
X106547700Y-78907000D01*
G75*
G02*
X106695200Y-79054500I0J-147500D01*
G01*
X106695200Y-79349500D01*
G75*
G02*
X106547700Y-79497000I-147500J0D01*
G01*
X106202700Y-79497000D01*
G75*
G02*
X106055200Y-79349500I0J147500D01*
G01*
X106055200Y-79054500D01*
G75*
G02*
X106202700Y-78907000I147500J0D01*
G01*
G37*
G36*
G01*
X106202700Y-77937000D02*
X106547700Y-77937000D01*
G75*
G02*
X106695200Y-78084500I0J-147500D01*
G01*
X106695200Y-78379500D01*
G75*
G02*
X106547700Y-78527000I-147500J0D01*
G01*
X106202700Y-78527000D01*
G75*
G02*
X106055200Y-78379500I0J147500D01*
G01*
X106055200Y-78084500D01*
G75*
G02*
X106202700Y-77937000I147500J0D01*
G01*
G37*
G36*
G01*
X88793100Y-54722400D02*
X88448100Y-54722400D01*
G75*
G02*
X88300600Y-54574900I0J147500D01*
G01*
X88300600Y-54279900D01*
G75*
G02*
X88448100Y-54132400I147500J0D01*
G01*
X88793100Y-54132400D01*
G75*
G02*
X88940600Y-54279900I0J-147500D01*
G01*
X88940600Y-54574900D01*
G75*
G02*
X88793100Y-54722400I-147500J0D01*
G01*
G37*
G36*
G01*
X88793100Y-55692400D02*
X88448100Y-55692400D01*
G75*
G02*
X88300600Y-55544900I0J147500D01*
G01*
X88300600Y-55249900D01*
G75*
G02*
X88448100Y-55102400I147500J0D01*
G01*
X88793100Y-55102400D01*
G75*
G02*
X88940600Y-55249900I0J-147500D01*
G01*
X88940600Y-55544900D01*
G75*
G02*
X88793100Y-55692400I-147500J0D01*
G01*
G37*
G36*
G01*
X81361500Y-65241800D02*
X81706500Y-65241800D01*
G75*
G02*
X81854000Y-65389300I0J-147500D01*
G01*
X81854000Y-65684300D01*
G75*
G02*
X81706500Y-65831800I-147500J0D01*
G01*
X81361500Y-65831800D01*
G75*
G02*
X81214000Y-65684300I0J147500D01*
G01*
X81214000Y-65389300D01*
G75*
G02*
X81361500Y-65241800I147500J0D01*
G01*
G37*
G36*
G01*
X81361500Y-64271800D02*
X81706500Y-64271800D01*
G75*
G02*
X81854000Y-64419300I0J-147500D01*
G01*
X81854000Y-64714300D01*
G75*
G02*
X81706500Y-64861800I-147500J0D01*
G01*
X81361500Y-64861800D01*
G75*
G02*
X81214000Y-64714300I0J147500D01*
G01*
X81214000Y-64419300D01*
G75*
G02*
X81361500Y-64271800I147500J0D01*
G01*
G37*
G36*
G01*
X88422700Y-65241800D02*
X88767700Y-65241800D01*
G75*
G02*
X88915200Y-65389300I0J-147500D01*
G01*
X88915200Y-65684300D01*
G75*
G02*
X88767700Y-65831800I-147500J0D01*
G01*
X88422700Y-65831800D01*
G75*
G02*
X88275200Y-65684300I0J147500D01*
G01*
X88275200Y-65389300D01*
G75*
G02*
X88422700Y-65241800I147500J0D01*
G01*
G37*
G36*
G01*
X88422700Y-64271800D02*
X88767700Y-64271800D01*
G75*
G02*
X88915200Y-64419300I0J-147500D01*
G01*
X88915200Y-64714300D01*
G75*
G02*
X88767700Y-64861800I-147500J0D01*
G01*
X88422700Y-64861800D01*
G75*
G02*
X88275200Y-64714300I0J147500D01*
G01*
X88275200Y-64419300D01*
G75*
G02*
X88422700Y-64271800I147500J0D01*
G01*
G37*
M02*
