G04 #@! TF.GenerationSoftware,KiCad,Pcbnew,5.1.6-c6e7f7d~87~ubuntu18.04.1*
G04 #@! TF.CreationDate,2020-08-19T10:21:35-04:00*
G04 #@! TF.ProjectId,quad_adsr,71756164-5f61-4647-9372-2e6b69636164,rev?*
G04 #@! TF.SameCoordinates,Original*
G04 #@! TF.FileFunction,Legend,Top*
G04 #@! TF.FilePolarity,Positive*
%FSLAX46Y46*%
G04 Gerber Fmt 4.6, Leading zero omitted, Abs format (unit mm)*
G04 Created by KiCad (PCBNEW 5.1.6-c6e7f7d~87~ubuntu18.04.1) date 2020-08-19 10:21:35*
%MOMM*%
%LPD*%
G01*
G04 APERTURE LIST*
%ADD10C,0.150000*%
%ADD11C,0.120000*%
G04 APERTURE END LIST*
D10*
X81574047Y-116625714D02*
X81574047Y-117435238D01*
X81526428Y-117530476D01*
X81478809Y-117578095D01*
X81383571Y-117625714D01*
X81240714Y-117625714D01*
X81145476Y-117578095D01*
X81574047Y-117244761D02*
X81478809Y-117292380D01*
X81288333Y-117292380D01*
X81193095Y-117244761D01*
X81145476Y-117197142D01*
X81097857Y-117101904D01*
X81097857Y-116816190D01*
X81145476Y-116720952D01*
X81193095Y-116673333D01*
X81288333Y-116625714D01*
X81478809Y-116625714D01*
X81574047Y-116673333D01*
X82478809Y-117292380D02*
X82478809Y-116768571D01*
X82431190Y-116673333D01*
X82335952Y-116625714D01*
X82145476Y-116625714D01*
X82050238Y-116673333D01*
X82478809Y-117244761D02*
X82383571Y-117292380D01*
X82145476Y-117292380D01*
X82050238Y-117244761D01*
X82002619Y-117149523D01*
X82002619Y-117054285D01*
X82050238Y-116959047D01*
X82145476Y-116911428D01*
X82383571Y-116911428D01*
X82478809Y-116863809D01*
X82812142Y-116625714D02*
X83193095Y-116625714D01*
X82955000Y-116292380D02*
X82955000Y-117149523D01*
X83002619Y-117244761D01*
X83097857Y-117292380D01*
X83193095Y-117292380D01*
X83907380Y-117244761D02*
X83812142Y-117292380D01*
X83621666Y-117292380D01*
X83526428Y-117244761D01*
X83478809Y-117149523D01*
X83478809Y-116768571D01*
X83526428Y-116673333D01*
X83621666Y-116625714D01*
X83812142Y-116625714D01*
X83907380Y-116673333D01*
X83955000Y-116768571D01*
X83955000Y-116863809D01*
X83478809Y-116959047D01*
X85145476Y-117292380D02*
X85145476Y-116625714D01*
X85145476Y-116292380D02*
X85097857Y-116340000D01*
X85145476Y-116387619D01*
X85193095Y-116340000D01*
X85145476Y-116292380D01*
X85145476Y-116387619D01*
X85621666Y-116625714D02*
X85621666Y-117292380D01*
X85621666Y-116720952D02*
X85669285Y-116673333D01*
X85764523Y-116625714D01*
X85907380Y-116625714D01*
X86002619Y-116673333D01*
X86050238Y-116768571D01*
X86050238Y-117292380D01*
X87812142Y-117292380D02*
X87240714Y-117292380D01*
X87526428Y-117292380D02*
X87526428Y-116292380D01*
X87431190Y-116435238D01*
X87335952Y-116530476D01*
X87240714Y-116578095D01*
X80145476Y-129325714D02*
X80526428Y-129325714D01*
X80288333Y-128992380D02*
X80288333Y-129849523D01*
X80335952Y-129944761D01*
X80431190Y-129992380D01*
X80526428Y-129992380D01*
X80859761Y-129992380D02*
X80859761Y-129325714D01*
X80859761Y-129516190D02*
X80907380Y-129420952D01*
X80955000Y-129373333D01*
X81050238Y-129325714D01*
X81145476Y-129325714D01*
X81478809Y-129992380D02*
X81478809Y-129325714D01*
X81478809Y-128992380D02*
X81431190Y-129040000D01*
X81478809Y-129087619D01*
X81526428Y-129040000D01*
X81478809Y-128992380D01*
X81478809Y-129087619D01*
X82383571Y-129325714D02*
X82383571Y-130135238D01*
X82335952Y-130230476D01*
X82288333Y-130278095D01*
X82193095Y-130325714D01*
X82050238Y-130325714D01*
X81955000Y-130278095D01*
X82383571Y-129944761D02*
X82288333Y-129992380D01*
X82097857Y-129992380D01*
X82002619Y-129944761D01*
X81955000Y-129897142D01*
X81907380Y-129801904D01*
X81907380Y-129516190D01*
X81955000Y-129420952D01*
X82002619Y-129373333D01*
X82097857Y-129325714D01*
X82288333Y-129325714D01*
X82383571Y-129373333D01*
X83288333Y-129325714D02*
X83288333Y-130135238D01*
X83240714Y-130230476D01*
X83193095Y-130278095D01*
X83097857Y-130325714D01*
X82955000Y-130325714D01*
X82859761Y-130278095D01*
X83288333Y-129944761D02*
X83193095Y-129992380D01*
X83002619Y-129992380D01*
X82907380Y-129944761D01*
X82859761Y-129897142D01*
X82812142Y-129801904D01*
X82812142Y-129516190D01*
X82859761Y-129420952D01*
X82907380Y-129373333D01*
X83002619Y-129325714D01*
X83193095Y-129325714D01*
X83288333Y-129373333D01*
X84145476Y-129944761D02*
X84050238Y-129992380D01*
X83859761Y-129992380D01*
X83764523Y-129944761D01*
X83716904Y-129849523D01*
X83716904Y-129468571D01*
X83764523Y-129373333D01*
X83859761Y-129325714D01*
X84050238Y-129325714D01*
X84145476Y-129373333D01*
X84193095Y-129468571D01*
X84193095Y-129563809D01*
X83716904Y-129659047D01*
X84621666Y-129992380D02*
X84621666Y-129325714D01*
X84621666Y-129516190D02*
X84669285Y-129420952D01*
X84716904Y-129373333D01*
X84812142Y-129325714D01*
X84907380Y-129325714D01*
X86002619Y-129992380D02*
X86002619Y-129325714D01*
X86002619Y-128992380D02*
X85955000Y-129040000D01*
X86002619Y-129087619D01*
X86050238Y-129040000D01*
X86002619Y-128992380D01*
X86002619Y-129087619D01*
X86478809Y-129325714D02*
X86478809Y-129992380D01*
X86478809Y-129420952D02*
X86526428Y-129373333D01*
X86621666Y-129325714D01*
X86764523Y-129325714D01*
X86859761Y-129373333D01*
X86907380Y-129468571D01*
X86907380Y-129992380D01*
X88669285Y-129992380D02*
X88097857Y-129992380D01*
X88383571Y-129992380D02*
X88383571Y-128992380D01*
X88288333Y-129135238D01*
X88193095Y-129230476D01*
X88097857Y-129278095D01*
X133295000Y-142644761D02*
X133390238Y-142692380D01*
X133580714Y-142692380D01*
X133675952Y-142644761D01*
X133723571Y-142549523D01*
X133723571Y-142501904D01*
X133675952Y-142406666D01*
X133580714Y-142359047D01*
X133437857Y-142359047D01*
X133342619Y-142311428D01*
X133295000Y-142216190D01*
X133295000Y-142168571D01*
X133342619Y-142073333D01*
X133437857Y-142025714D01*
X133580714Y-142025714D01*
X133675952Y-142073333D01*
X134152142Y-142692380D02*
X134152142Y-142025714D01*
X134152142Y-141692380D02*
X134104523Y-141740000D01*
X134152142Y-141787619D01*
X134199761Y-141740000D01*
X134152142Y-141692380D01*
X134152142Y-141787619D01*
X135056904Y-142025714D02*
X135056904Y-142835238D01*
X135009285Y-142930476D01*
X134961666Y-142978095D01*
X134866428Y-143025714D01*
X134723571Y-143025714D01*
X134628333Y-142978095D01*
X135056904Y-142644761D02*
X134961666Y-142692380D01*
X134771190Y-142692380D01*
X134675952Y-142644761D01*
X134628333Y-142597142D01*
X134580714Y-142501904D01*
X134580714Y-142216190D01*
X134628333Y-142120952D01*
X134675952Y-142073333D01*
X134771190Y-142025714D01*
X134961666Y-142025714D01*
X135056904Y-142073333D01*
X135533095Y-142025714D02*
X135533095Y-142692380D01*
X135533095Y-142120952D02*
X135580714Y-142073333D01*
X135675952Y-142025714D01*
X135818809Y-142025714D01*
X135914047Y-142073333D01*
X135961666Y-142168571D01*
X135961666Y-142692380D01*
X136866428Y-142692380D02*
X136866428Y-142168571D01*
X136818809Y-142073333D01*
X136723571Y-142025714D01*
X136533095Y-142025714D01*
X136437857Y-142073333D01*
X136866428Y-142644761D02*
X136771190Y-142692380D01*
X136533095Y-142692380D01*
X136437857Y-142644761D01*
X136390238Y-142549523D01*
X136390238Y-142454285D01*
X136437857Y-142359047D01*
X136533095Y-142311428D01*
X136771190Y-142311428D01*
X136866428Y-142263809D01*
X137485476Y-142692380D02*
X137390238Y-142644761D01*
X137342619Y-142549523D01*
X137342619Y-141692380D01*
X138771190Y-142692380D02*
X138675952Y-142644761D01*
X138628333Y-142597142D01*
X138580714Y-142501904D01*
X138580714Y-142216190D01*
X138628333Y-142120952D01*
X138675952Y-142073333D01*
X138771190Y-142025714D01*
X138914047Y-142025714D01*
X139009285Y-142073333D01*
X139056904Y-142120952D01*
X139104523Y-142216190D01*
X139104523Y-142501904D01*
X139056904Y-142597142D01*
X139009285Y-142644761D01*
X138914047Y-142692380D01*
X138771190Y-142692380D01*
X139961666Y-142025714D02*
X139961666Y-142692380D01*
X139533095Y-142025714D02*
X139533095Y-142549523D01*
X139580714Y-142644761D01*
X139675952Y-142692380D01*
X139818809Y-142692380D01*
X139914047Y-142644761D01*
X139961666Y-142597142D01*
X140295000Y-142025714D02*
X140675952Y-142025714D01*
X140437857Y-141692380D02*
X140437857Y-142549523D01*
X140485476Y-142644761D01*
X140580714Y-142692380D01*
X140675952Y-142692380D01*
X142199761Y-142025714D02*
X142199761Y-142692380D01*
X141961666Y-141644761D02*
X141723571Y-142359047D01*
X142342619Y-142359047D01*
X115515000Y-142644761D02*
X115610238Y-142692380D01*
X115800714Y-142692380D01*
X115895952Y-142644761D01*
X115943571Y-142549523D01*
X115943571Y-142501904D01*
X115895952Y-142406666D01*
X115800714Y-142359047D01*
X115657857Y-142359047D01*
X115562619Y-142311428D01*
X115515000Y-142216190D01*
X115515000Y-142168571D01*
X115562619Y-142073333D01*
X115657857Y-142025714D01*
X115800714Y-142025714D01*
X115895952Y-142073333D01*
X116372142Y-142692380D02*
X116372142Y-142025714D01*
X116372142Y-141692380D02*
X116324523Y-141740000D01*
X116372142Y-141787619D01*
X116419761Y-141740000D01*
X116372142Y-141692380D01*
X116372142Y-141787619D01*
X117276904Y-142025714D02*
X117276904Y-142835238D01*
X117229285Y-142930476D01*
X117181666Y-142978095D01*
X117086428Y-143025714D01*
X116943571Y-143025714D01*
X116848333Y-142978095D01*
X117276904Y-142644761D02*
X117181666Y-142692380D01*
X116991190Y-142692380D01*
X116895952Y-142644761D01*
X116848333Y-142597142D01*
X116800714Y-142501904D01*
X116800714Y-142216190D01*
X116848333Y-142120952D01*
X116895952Y-142073333D01*
X116991190Y-142025714D01*
X117181666Y-142025714D01*
X117276904Y-142073333D01*
X117753095Y-142025714D02*
X117753095Y-142692380D01*
X117753095Y-142120952D02*
X117800714Y-142073333D01*
X117895952Y-142025714D01*
X118038809Y-142025714D01*
X118134047Y-142073333D01*
X118181666Y-142168571D01*
X118181666Y-142692380D01*
X119086428Y-142692380D02*
X119086428Y-142168571D01*
X119038809Y-142073333D01*
X118943571Y-142025714D01*
X118753095Y-142025714D01*
X118657857Y-142073333D01*
X119086428Y-142644761D02*
X118991190Y-142692380D01*
X118753095Y-142692380D01*
X118657857Y-142644761D01*
X118610238Y-142549523D01*
X118610238Y-142454285D01*
X118657857Y-142359047D01*
X118753095Y-142311428D01*
X118991190Y-142311428D01*
X119086428Y-142263809D01*
X119705476Y-142692380D02*
X119610238Y-142644761D01*
X119562619Y-142549523D01*
X119562619Y-141692380D01*
X120991190Y-142692380D02*
X120895952Y-142644761D01*
X120848333Y-142597142D01*
X120800714Y-142501904D01*
X120800714Y-142216190D01*
X120848333Y-142120952D01*
X120895952Y-142073333D01*
X120991190Y-142025714D01*
X121134047Y-142025714D01*
X121229285Y-142073333D01*
X121276904Y-142120952D01*
X121324523Y-142216190D01*
X121324523Y-142501904D01*
X121276904Y-142597142D01*
X121229285Y-142644761D01*
X121134047Y-142692380D01*
X120991190Y-142692380D01*
X122181666Y-142025714D02*
X122181666Y-142692380D01*
X121753095Y-142025714D02*
X121753095Y-142549523D01*
X121800714Y-142644761D01*
X121895952Y-142692380D01*
X122038809Y-142692380D01*
X122134047Y-142644761D01*
X122181666Y-142597142D01*
X122515000Y-142025714D02*
X122895952Y-142025714D01*
X122657857Y-141692380D02*
X122657857Y-142549523D01*
X122705476Y-142644761D01*
X122800714Y-142692380D01*
X122895952Y-142692380D01*
X123895952Y-141692380D02*
X124515000Y-141692380D01*
X124181666Y-142073333D01*
X124324523Y-142073333D01*
X124419761Y-142120952D01*
X124467380Y-142168571D01*
X124515000Y-142263809D01*
X124515000Y-142501904D01*
X124467380Y-142597142D01*
X124419761Y-142644761D01*
X124324523Y-142692380D01*
X124038809Y-142692380D01*
X123943571Y-142644761D01*
X123895952Y-142597142D01*
X97735000Y-142644761D02*
X97830238Y-142692380D01*
X98020714Y-142692380D01*
X98115952Y-142644761D01*
X98163571Y-142549523D01*
X98163571Y-142501904D01*
X98115952Y-142406666D01*
X98020714Y-142359047D01*
X97877857Y-142359047D01*
X97782619Y-142311428D01*
X97735000Y-142216190D01*
X97735000Y-142168571D01*
X97782619Y-142073333D01*
X97877857Y-142025714D01*
X98020714Y-142025714D01*
X98115952Y-142073333D01*
X98592142Y-142692380D02*
X98592142Y-142025714D01*
X98592142Y-141692380D02*
X98544523Y-141740000D01*
X98592142Y-141787619D01*
X98639761Y-141740000D01*
X98592142Y-141692380D01*
X98592142Y-141787619D01*
X99496904Y-142025714D02*
X99496904Y-142835238D01*
X99449285Y-142930476D01*
X99401666Y-142978095D01*
X99306428Y-143025714D01*
X99163571Y-143025714D01*
X99068333Y-142978095D01*
X99496904Y-142644761D02*
X99401666Y-142692380D01*
X99211190Y-142692380D01*
X99115952Y-142644761D01*
X99068333Y-142597142D01*
X99020714Y-142501904D01*
X99020714Y-142216190D01*
X99068333Y-142120952D01*
X99115952Y-142073333D01*
X99211190Y-142025714D01*
X99401666Y-142025714D01*
X99496904Y-142073333D01*
X99973095Y-142025714D02*
X99973095Y-142692380D01*
X99973095Y-142120952D02*
X100020714Y-142073333D01*
X100115952Y-142025714D01*
X100258809Y-142025714D01*
X100354047Y-142073333D01*
X100401666Y-142168571D01*
X100401666Y-142692380D01*
X101306428Y-142692380D02*
X101306428Y-142168571D01*
X101258809Y-142073333D01*
X101163571Y-142025714D01*
X100973095Y-142025714D01*
X100877857Y-142073333D01*
X101306428Y-142644761D02*
X101211190Y-142692380D01*
X100973095Y-142692380D01*
X100877857Y-142644761D01*
X100830238Y-142549523D01*
X100830238Y-142454285D01*
X100877857Y-142359047D01*
X100973095Y-142311428D01*
X101211190Y-142311428D01*
X101306428Y-142263809D01*
X101925476Y-142692380D02*
X101830238Y-142644761D01*
X101782619Y-142549523D01*
X101782619Y-141692380D01*
X103211190Y-142692380D02*
X103115952Y-142644761D01*
X103068333Y-142597142D01*
X103020714Y-142501904D01*
X103020714Y-142216190D01*
X103068333Y-142120952D01*
X103115952Y-142073333D01*
X103211190Y-142025714D01*
X103354047Y-142025714D01*
X103449285Y-142073333D01*
X103496904Y-142120952D01*
X103544523Y-142216190D01*
X103544523Y-142501904D01*
X103496904Y-142597142D01*
X103449285Y-142644761D01*
X103354047Y-142692380D01*
X103211190Y-142692380D01*
X104401666Y-142025714D02*
X104401666Y-142692380D01*
X103973095Y-142025714D02*
X103973095Y-142549523D01*
X104020714Y-142644761D01*
X104115952Y-142692380D01*
X104258809Y-142692380D01*
X104354047Y-142644761D01*
X104401666Y-142597142D01*
X104735000Y-142025714D02*
X105115952Y-142025714D01*
X104877857Y-141692380D02*
X104877857Y-142549523D01*
X104925476Y-142644761D01*
X105020714Y-142692380D01*
X105115952Y-142692380D01*
X106163571Y-141787619D02*
X106211190Y-141740000D01*
X106306428Y-141692380D01*
X106544523Y-141692380D01*
X106639761Y-141740000D01*
X106687380Y-141787619D01*
X106735000Y-141882857D01*
X106735000Y-141978095D01*
X106687380Y-142120952D01*
X106115952Y-142692380D01*
X106735000Y-142692380D01*
X79955000Y-142644761D02*
X80050238Y-142692380D01*
X80240714Y-142692380D01*
X80335952Y-142644761D01*
X80383571Y-142549523D01*
X80383571Y-142501904D01*
X80335952Y-142406666D01*
X80240714Y-142359047D01*
X80097857Y-142359047D01*
X80002619Y-142311428D01*
X79955000Y-142216190D01*
X79955000Y-142168571D01*
X80002619Y-142073333D01*
X80097857Y-142025714D01*
X80240714Y-142025714D01*
X80335952Y-142073333D01*
X80812142Y-142692380D02*
X80812142Y-142025714D01*
X80812142Y-141692380D02*
X80764523Y-141740000D01*
X80812142Y-141787619D01*
X80859761Y-141740000D01*
X80812142Y-141692380D01*
X80812142Y-141787619D01*
X81716904Y-142025714D02*
X81716904Y-142835238D01*
X81669285Y-142930476D01*
X81621666Y-142978095D01*
X81526428Y-143025714D01*
X81383571Y-143025714D01*
X81288333Y-142978095D01*
X81716904Y-142644761D02*
X81621666Y-142692380D01*
X81431190Y-142692380D01*
X81335952Y-142644761D01*
X81288333Y-142597142D01*
X81240714Y-142501904D01*
X81240714Y-142216190D01*
X81288333Y-142120952D01*
X81335952Y-142073333D01*
X81431190Y-142025714D01*
X81621666Y-142025714D01*
X81716904Y-142073333D01*
X82193095Y-142025714D02*
X82193095Y-142692380D01*
X82193095Y-142120952D02*
X82240714Y-142073333D01*
X82335952Y-142025714D01*
X82478809Y-142025714D01*
X82574047Y-142073333D01*
X82621666Y-142168571D01*
X82621666Y-142692380D01*
X83526428Y-142692380D02*
X83526428Y-142168571D01*
X83478809Y-142073333D01*
X83383571Y-142025714D01*
X83193095Y-142025714D01*
X83097857Y-142073333D01*
X83526428Y-142644761D02*
X83431190Y-142692380D01*
X83193095Y-142692380D01*
X83097857Y-142644761D01*
X83050238Y-142549523D01*
X83050238Y-142454285D01*
X83097857Y-142359047D01*
X83193095Y-142311428D01*
X83431190Y-142311428D01*
X83526428Y-142263809D01*
X84145476Y-142692380D02*
X84050238Y-142644761D01*
X84002619Y-142549523D01*
X84002619Y-141692380D01*
X85431190Y-142692380D02*
X85335952Y-142644761D01*
X85288333Y-142597142D01*
X85240714Y-142501904D01*
X85240714Y-142216190D01*
X85288333Y-142120952D01*
X85335952Y-142073333D01*
X85431190Y-142025714D01*
X85574047Y-142025714D01*
X85669285Y-142073333D01*
X85716904Y-142120952D01*
X85764523Y-142216190D01*
X85764523Y-142501904D01*
X85716904Y-142597142D01*
X85669285Y-142644761D01*
X85574047Y-142692380D01*
X85431190Y-142692380D01*
X86621666Y-142025714D02*
X86621666Y-142692380D01*
X86193095Y-142025714D02*
X86193095Y-142549523D01*
X86240714Y-142644761D01*
X86335952Y-142692380D01*
X86478809Y-142692380D01*
X86574047Y-142644761D01*
X86621666Y-142597142D01*
X86955000Y-142025714D02*
X87335952Y-142025714D01*
X87097857Y-141692380D02*
X87097857Y-142549523D01*
X87145476Y-142644761D01*
X87240714Y-142692380D01*
X87335952Y-142692380D01*
X88955000Y-142692380D02*
X88383571Y-142692380D01*
X88669285Y-142692380D02*
X88669285Y-141692380D01*
X88574047Y-141835238D01*
X88478809Y-141930476D01*
X88383571Y-141978095D01*
X133485476Y-129325714D02*
X133866428Y-129325714D01*
X133628333Y-128992380D02*
X133628333Y-129849523D01*
X133675952Y-129944761D01*
X133771190Y-129992380D01*
X133866428Y-129992380D01*
X134199761Y-129992380D02*
X134199761Y-129325714D01*
X134199761Y-129516190D02*
X134247380Y-129420952D01*
X134295000Y-129373333D01*
X134390238Y-129325714D01*
X134485476Y-129325714D01*
X134818809Y-129992380D02*
X134818809Y-129325714D01*
X134818809Y-128992380D02*
X134771190Y-129040000D01*
X134818809Y-129087619D01*
X134866428Y-129040000D01*
X134818809Y-128992380D01*
X134818809Y-129087619D01*
X135723571Y-129325714D02*
X135723571Y-130135238D01*
X135675952Y-130230476D01*
X135628333Y-130278095D01*
X135533095Y-130325714D01*
X135390238Y-130325714D01*
X135295000Y-130278095D01*
X135723571Y-129944761D02*
X135628333Y-129992380D01*
X135437857Y-129992380D01*
X135342619Y-129944761D01*
X135295000Y-129897142D01*
X135247380Y-129801904D01*
X135247380Y-129516190D01*
X135295000Y-129420952D01*
X135342619Y-129373333D01*
X135437857Y-129325714D01*
X135628333Y-129325714D01*
X135723571Y-129373333D01*
X136628333Y-129325714D02*
X136628333Y-130135238D01*
X136580714Y-130230476D01*
X136533095Y-130278095D01*
X136437857Y-130325714D01*
X136295000Y-130325714D01*
X136199761Y-130278095D01*
X136628333Y-129944761D02*
X136533095Y-129992380D01*
X136342619Y-129992380D01*
X136247380Y-129944761D01*
X136199761Y-129897142D01*
X136152142Y-129801904D01*
X136152142Y-129516190D01*
X136199761Y-129420952D01*
X136247380Y-129373333D01*
X136342619Y-129325714D01*
X136533095Y-129325714D01*
X136628333Y-129373333D01*
X137485476Y-129944761D02*
X137390238Y-129992380D01*
X137199761Y-129992380D01*
X137104523Y-129944761D01*
X137056904Y-129849523D01*
X137056904Y-129468571D01*
X137104523Y-129373333D01*
X137199761Y-129325714D01*
X137390238Y-129325714D01*
X137485476Y-129373333D01*
X137533095Y-129468571D01*
X137533095Y-129563809D01*
X137056904Y-129659047D01*
X137961666Y-129992380D02*
X137961666Y-129325714D01*
X137961666Y-129516190D02*
X138009285Y-129420952D01*
X138056904Y-129373333D01*
X138152142Y-129325714D01*
X138247380Y-129325714D01*
X139342619Y-129992380D02*
X139342619Y-129325714D01*
X139342619Y-128992380D02*
X139295000Y-129040000D01*
X139342619Y-129087619D01*
X139390238Y-129040000D01*
X139342619Y-128992380D01*
X139342619Y-129087619D01*
X139818809Y-129325714D02*
X139818809Y-129992380D01*
X139818809Y-129420952D02*
X139866428Y-129373333D01*
X139961666Y-129325714D01*
X140104523Y-129325714D01*
X140199761Y-129373333D01*
X140247380Y-129468571D01*
X140247380Y-129992380D01*
X141914047Y-129325714D02*
X141914047Y-129992380D01*
X141675952Y-128944761D02*
X141437857Y-129659047D01*
X142056904Y-129659047D01*
X115705476Y-129325714D02*
X116086428Y-129325714D01*
X115848333Y-128992380D02*
X115848333Y-129849523D01*
X115895952Y-129944761D01*
X115991190Y-129992380D01*
X116086428Y-129992380D01*
X116419761Y-129992380D02*
X116419761Y-129325714D01*
X116419761Y-129516190D02*
X116467380Y-129420952D01*
X116515000Y-129373333D01*
X116610238Y-129325714D01*
X116705476Y-129325714D01*
X117038809Y-129992380D02*
X117038809Y-129325714D01*
X117038809Y-128992380D02*
X116991190Y-129040000D01*
X117038809Y-129087619D01*
X117086428Y-129040000D01*
X117038809Y-128992380D01*
X117038809Y-129087619D01*
X117943571Y-129325714D02*
X117943571Y-130135238D01*
X117895952Y-130230476D01*
X117848333Y-130278095D01*
X117753095Y-130325714D01*
X117610238Y-130325714D01*
X117515000Y-130278095D01*
X117943571Y-129944761D02*
X117848333Y-129992380D01*
X117657857Y-129992380D01*
X117562619Y-129944761D01*
X117515000Y-129897142D01*
X117467380Y-129801904D01*
X117467380Y-129516190D01*
X117515000Y-129420952D01*
X117562619Y-129373333D01*
X117657857Y-129325714D01*
X117848333Y-129325714D01*
X117943571Y-129373333D01*
X118848333Y-129325714D02*
X118848333Y-130135238D01*
X118800714Y-130230476D01*
X118753095Y-130278095D01*
X118657857Y-130325714D01*
X118515000Y-130325714D01*
X118419761Y-130278095D01*
X118848333Y-129944761D02*
X118753095Y-129992380D01*
X118562619Y-129992380D01*
X118467380Y-129944761D01*
X118419761Y-129897142D01*
X118372142Y-129801904D01*
X118372142Y-129516190D01*
X118419761Y-129420952D01*
X118467380Y-129373333D01*
X118562619Y-129325714D01*
X118753095Y-129325714D01*
X118848333Y-129373333D01*
X119705476Y-129944761D02*
X119610238Y-129992380D01*
X119419761Y-129992380D01*
X119324523Y-129944761D01*
X119276904Y-129849523D01*
X119276904Y-129468571D01*
X119324523Y-129373333D01*
X119419761Y-129325714D01*
X119610238Y-129325714D01*
X119705476Y-129373333D01*
X119753095Y-129468571D01*
X119753095Y-129563809D01*
X119276904Y-129659047D01*
X120181666Y-129992380D02*
X120181666Y-129325714D01*
X120181666Y-129516190D02*
X120229285Y-129420952D01*
X120276904Y-129373333D01*
X120372142Y-129325714D01*
X120467380Y-129325714D01*
X121562619Y-129992380D02*
X121562619Y-129325714D01*
X121562619Y-128992380D02*
X121515000Y-129040000D01*
X121562619Y-129087619D01*
X121610238Y-129040000D01*
X121562619Y-128992380D01*
X121562619Y-129087619D01*
X122038809Y-129325714D02*
X122038809Y-129992380D01*
X122038809Y-129420952D02*
X122086428Y-129373333D01*
X122181666Y-129325714D01*
X122324523Y-129325714D01*
X122419761Y-129373333D01*
X122467380Y-129468571D01*
X122467380Y-129992380D01*
X123610238Y-128992380D02*
X124229285Y-128992380D01*
X123895952Y-129373333D01*
X124038809Y-129373333D01*
X124134047Y-129420952D01*
X124181666Y-129468571D01*
X124229285Y-129563809D01*
X124229285Y-129801904D01*
X124181666Y-129897142D01*
X124134047Y-129944761D01*
X124038809Y-129992380D01*
X123753095Y-129992380D01*
X123657857Y-129944761D01*
X123610238Y-129897142D01*
X97925476Y-129325714D02*
X98306428Y-129325714D01*
X98068333Y-128992380D02*
X98068333Y-129849523D01*
X98115952Y-129944761D01*
X98211190Y-129992380D01*
X98306428Y-129992380D01*
X98639761Y-129992380D02*
X98639761Y-129325714D01*
X98639761Y-129516190D02*
X98687380Y-129420952D01*
X98735000Y-129373333D01*
X98830238Y-129325714D01*
X98925476Y-129325714D01*
X99258809Y-129992380D02*
X99258809Y-129325714D01*
X99258809Y-128992380D02*
X99211190Y-129040000D01*
X99258809Y-129087619D01*
X99306428Y-129040000D01*
X99258809Y-128992380D01*
X99258809Y-129087619D01*
X100163571Y-129325714D02*
X100163571Y-130135238D01*
X100115952Y-130230476D01*
X100068333Y-130278095D01*
X99973095Y-130325714D01*
X99830238Y-130325714D01*
X99735000Y-130278095D01*
X100163571Y-129944761D02*
X100068333Y-129992380D01*
X99877857Y-129992380D01*
X99782619Y-129944761D01*
X99735000Y-129897142D01*
X99687380Y-129801904D01*
X99687380Y-129516190D01*
X99735000Y-129420952D01*
X99782619Y-129373333D01*
X99877857Y-129325714D01*
X100068333Y-129325714D01*
X100163571Y-129373333D01*
X101068333Y-129325714D02*
X101068333Y-130135238D01*
X101020714Y-130230476D01*
X100973095Y-130278095D01*
X100877857Y-130325714D01*
X100735000Y-130325714D01*
X100639761Y-130278095D01*
X101068333Y-129944761D02*
X100973095Y-129992380D01*
X100782619Y-129992380D01*
X100687380Y-129944761D01*
X100639761Y-129897142D01*
X100592142Y-129801904D01*
X100592142Y-129516190D01*
X100639761Y-129420952D01*
X100687380Y-129373333D01*
X100782619Y-129325714D01*
X100973095Y-129325714D01*
X101068333Y-129373333D01*
X101925476Y-129944761D02*
X101830238Y-129992380D01*
X101639761Y-129992380D01*
X101544523Y-129944761D01*
X101496904Y-129849523D01*
X101496904Y-129468571D01*
X101544523Y-129373333D01*
X101639761Y-129325714D01*
X101830238Y-129325714D01*
X101925476Y-129373333D01*
X101973095Y-129468571D01*
X101973095Y-129563809D01*
X101496904Y-129659047D01*
X102401666Y-129992380D02*
X102401666Y-129325714D01*
X102401666Y-129516190D02*
X102449285Y-129420952D01*
X102496904Y-129373333D01*
X102592142Y-129325714D01*
X102687380Y-129325714D01*
X103782619Y-129992380D02*
X103782619Y-129325714D01*
X103782619Y-128992380D02*
X103735000Y-129040000D01*
X103782619Y-129087619D01*
X103830238Y-129040000D01*
X103782619Y-128992380D01*
X103782619Y-129087619D01*
X104258809Y-129325714D02*
X104258809Y-129992380D01*
X104258809Y-129420952D02*
X104306428Y-129373333D01*
X104401666Y-129325714D01*
X104544523Y-129325714D01*
X104639761Y-129373333D01*
X104687380Y-129468571D01*
X104687380Y-129992380D01*
X105877857Y-129087619D02*
X105925476Y-129040000D01*
X106020714Y-128992380D01*
X106258809Y-128992380D01*
X106354047Y-129040000D01*
X106401666Y-129087619D01*
X106449285Y-129182857D01*
X106449285Y-129278095D01*
X106401666Y-129420952D01*
X105830238Y-129992380D01*
X106449285Y-129992380D01*
X117134047Y-116625714D02*
X117134047Y-117435238D01*
X117086428Y-117530476D01*
X117038809Y-117578095D01*
X116943571Y-117625714D01*
X116800714Y-117625714D01*
X116705476Y-117578095D01*
X117134047Y-117244761D02*
X117038809Y-117292380D01*
X116848333Y-117292380D01*
X116753095Y-117244761D01*
X116705476Y-117197142D01*
X116657857Y-117101904D01*
X116657857Y-116816190D01*
X116705476Y-116720952D01*
X116753095Y-116673333D01*
X116848333Y-116625714D01*
X117038809Y-116625714D01*
X117134047Y-116673333D01*
X118038809Y-117292380D02*
X118038809Y-116768571D01*
X117991190Y-116673333D01*
X117895952Y-116625714D01*
X117705476Y-116625714D01*
X117610238Y-116673333D01*
X118038809Y-117244761D02*
X117943571Y-117292380D01*
X117705476Y-117292380D01*
X117610238Y-117244761D01*
X117562619Y-117149523D01*
X117562619Y-117054285D01*
X117610238Y-116959047D01*
X117705476Y-116911428D01*
X117943571Y-116911428D01*
X118038809Y-116863809D01*
X118372142Y-116625714D02*
X118753095Y-116625714D01*
X118515000Y-116292380D02*
X118515000Y-117149523D01*
X118562619Y-117244761D01*
X118657857Y-117292380D01*
X118753095Y-117292380D01*
X119467380Y-117244761D02*
X119372142Y-117292380D01*
X119181666Y-117292380D01*
X119086428Y-117244761D01*
X119038809Y-117149523D01*
X119038809Y-116768571D01*
X119086428Y-116673333D01*
X119181666Y-116625714D01*
X119372142Y-116625714D01*
X119467380Y-116673333D01*
X119515000Y-116768571D01*
X119515000Y-116863809D01*
X119038809Y-116959047D01*
X120705476Y-117292380D02*
X120705476Y-116625714D01*
X120705476Y-116292380D02*
X120657857Y-116340000D01*
X120705476Y-116387619D01*
X120753095Y-116340000D01*
X120705476Y-116292380D01*
X120705476Y-116387619D01*
X121181666Y-116625714D02*
X121181666Y-117292380D01*
X121181666Y-116720952D02*
X121229285Y-116673333D01*
X121324523Y-116625714D01*
X121467380Y-116625714D01*
X121562619Y-116673333D01*
X121610238Y-116768571D01*
X121610238Y-117292380D01*
X122753095Y-116292380D02*
X123372142Y-116292380D01*
X123038809Y-116673333D01*
X123181666Y-116673333D01*
X123276904Y-116720952D01*
X123324523Y-116768571D01*
X123372142Y-116863809D01*
X123372142Y-117101904D01*
X123324523Y-117197142D01*
X123276904Y-117244761D01*
X123181666Y-117292380D01*
X122895952Y-117292380D01*
X122800714Y-117244761D01*
X122753095Y-117197142D01*
X134914047Y-116625714D02*
X134914047Y-117435238D01*
X134866428Y-117530476D01*
X134818809Y-117578095D01*
X134723571Y-117625714D01*
X134580714Y-117625714D01*
X134485476Y-117578095D01*
X134914047Y-117244761D02*
X134818809Y-117292380D01*
X134628333Y-117292380D01*
X134533095Y-117244761D01*
X134485476Y-117197142D01*
X134437857Y-117101904D01*
X134437857Y-116816190D01*
X134485476Y-116720952D01*
X134533095Y-116673333D01*
X134628333Y-116625714D01*
X134818809Y-116625714D01*
X134914047Y-116673333D01*
X135818809Y-117292380D02*
X135818809Y-116768571D01*
X135771190Y-116673333D01*
X135675952Y-116625714D01*
X135485476Y-116625714D01*
X135390238Y-116673333D01*
X135818809Y-117244761D02*
X135723571Y-117292380D01*
X135485476Y-117292380D01*
X135390238Y-117244761D01*
X135342619Y-117149523D01*
X135342619Y-117054285D01*
X135390238Y-116959047D01*
X135485476Y-116911428D01*
X135723571Y-116911428D01*
X135818809Y-116863809D01*
X136152142Y-116625714D02*
X136533095Y-116625714D01*
X136295000Y-116292380D02*
X136295000Y-117149523D01*
X136342619Y-117244761D01*
X136437857Y-117292380D01*
X136533095Y-117292380D01*
X137247380Y-117244761D02*
X137152142Y-117292380D01*
X136961666Y-117292380D01*
X136866428Y-117244761D01*
X136818809Y-117149523D01*
X136818809Y-116768571D01*
X136866428Y-116673333D01*
X136961666Y-116625714D01*
X137152142Y-116625714D01*
X137247380Y-116673333D01*
X137295000Y-116768571D01*
X137295000Y-116863809D01*
X136818809Y-116959047D01*
X138485476Y-117292380D02*
X138485476Y-116625714D01*
X138485476Y-116292380D02*
X138437857Y-116340000D01*
X138485476Y-116387619D01*
X138533095Y-116340000D01*
X138485476Y-116292380D01*
X138485476Y-116387619D01*
X138961666Y-116625714D02*
X138961666Y-117292380D01*
X138961666Y-116720952D02*
X139009285Y-116673333D01*
X139104523Y-116625714D01*
X139247380Y-116625714D01*
X139342619Y-116673333D01*
X139390238Y-116768571D01*
X139390238Y-117292380D01*
X141056904Y-116625714D02*
X141056904Y-117292380D01*
X140818809Y-116244761D02*
X140580714Y-116959047D01*
X141199761Y-116959047D01*
X99354047Y-116625714D02*
X99354047Y-117435238D01*
X99306428Y-117530476D01*
X99258809Y-117578095D01*
X99163571Y-117625714D01*
X99020714Y-117625714D01*
X98925476Y-117578095D01*
X99354047Y-117244761D02*
X99258809Y-117292380D01*
X99068333Y-117292380D01*
X98973095Y-117244761D01*
X98925476Y-117197142D01*
X98877857Y-117101904D01*
X98877857Y-116816190D01*
X98925476Y-116720952D01*
X98973095Y-116673333D01*
X99068333Y-116625714D01*
X99258809Y-116625714D01*
X99354047Y-116673333D01*
X100258809Y-117292380D02*
X100258809Y-116768571D01*
X100211190Y-116673333D01*
X100115952Y-116625714D01*
X99925476Y-116625714D01*
X99830238Y-116673333D01*
X100258809Y-117244761D02*
X100163571Y-117292380D01*
X99925476Y-117292380D01*
X99830238Y-117244761D01*
X99782619Y-117149523D01*
X99782619Y-117054285D01*
X99830238Y-116959047D01*
X99925476Y-116911428D01*
X100163571Y-116911428D01*
X100258809Y-116863809D01*
X100592142Y-116625714D02*
X100973095Y-116625714D01*
X100735000Y-116292380D02*
X100735000Y-117149523D01*
X100782619Y-117244761D01*
X100877857Y-117292380D01*
X100973095Y-117292380D01*
X101687380Y-117244761D02*
X101592142Y-117292380D01*
X101401666Y-117292380D01*
X101306428Y-117244761D01*
X101258809Y-117149523D01*
X101258809Y-116768571D01*
X101306428Y-116673333D01*
X101401666Y-116625714D01*
X101592142Y-116625714D01*
X101687380Y-116673333D01*
X101735000Y-116768571D01*
X101735000Y-116863809D01*
X101258809Y-116959047D01*
X102925476Y-117292380D02*
X102925476Y-116625714D01*
X102925476Y-116292380D02*
X102877857Y-116340000D01*
X102925476Y-116387619D01*
X102973095Y-116340000D01*
X102925476Y-116292380D01*
X102925476Y-116387619D01*
X103401666Y-116625714D02*
X103401666Y-117292380D01*
X103401666Y-116720952D02*
X103449285Y-116673333D01*
X103544523Y-116625714D01*
X103687380Y-116625714D01*
X103782619Y-116673333D01*
X103830238Y-116768571D01*
X103830238Y-117292380D01*
X105020714Y-116387619D02*
X105068333Y-116340000D01*
X105163571Y-116292380D01*
X105401666Y-116292380D01*
X105496904Y-116340000D01*
X105544523Y-116387619D01*
X105592142Y-116482857D01*
X105592142Y-116578095D01*
X105544523Y-116720952D01*
X104973095Y-117292380D01*
X105592142Y-117292380D01*
D11*
X141430000Y-101720000D02*
G75*
G03*
X141430000Y-101720000I-3000000J0D01*
G01*
X132530000Y-99720000D02*
X132530000Y-95620000D01*
X144330000Y-95620000D02*
X144330000Y-99720000D01*
X144330000Y-103720000D02*
X144330000Y-107820000D01*
X132530000Y-103720000D02*
X132530000Y-107820000D01*
X132530000Y-107820000D02*
X144330000Y-107820000D01*
X134630000Y-109220000D02*
X134330000Y-109520000D01*
X134330000Y-109520000D02*
X134330000Y-108920000D01*
X134330000Y-108920000D02*
X134630000Y-109220000D01*
X132530000Y-95620000D02*
X134930000Y-95620000D01*
X137130000Y-95620000D02*
X139730000Y-95620000D01*
X141930000Y-95620000D02*
X144330000Y-95620000D01*
X137930000Y-101720000D02*
X138930000Y-101720000D01*
X138430000Y-102220000D02*
X138430000Y-101220000D01*
D10*
X128270000Y-52705000D02*
X120650000Y-52705000D01*
X120650000Y-52705000D02*
X120650000Y-65405000D01*
X120650000Y-65405000D02*
X128270000Y-65405000D01*
X128270000Y-65405000D02*
X128270000Y-52705000D01*
D11*
X120290000Y-53975000D02*
X120290000Y-52345000D01*
X120290000Y-52345000D02*
X121920000Y-52345000D01*
X127910000Y-52345000D02*
X129540000Y-52345000D01*
X127910000Y-53975000D02*
X127910000Y-52345000D01*
D10*
X135890000Y-65405000D02*
X135890000Y-52705000D01*
X128270000Y-65405000D02*
X135890000Y-65405000D01*
X128270000Y-52705000D02*
X128270000Y-65405000D01*
X135890000Y-52705000D02*
X128270000Y-52705000D01*
X78890000Y-151820000D02*
X78890000Y-142820000D01*
X89790000Y-151820000D02*
X89790000Y-142820000D01*
X78890000Y-151820000D02*
X89790000Y-151820000D01*
X78890000Y-142820000D02*
X89790000Y-142820000D01*
X86890000Y-147320000D02*
G75*
G03*
X86890000Y-147320000I-1800000J0D01*
G01*
X83290000Y-147320000D02*
X86890000Y-147320000D01*
X85090000Y-149120000D02*
X85090000Y-145520000D01*
D11*
X112670000Y-52345000D02*
X114300000Y-52345000D01*
X112670000Y-53975000D02*
X112670000Y-52345000D01*
D10*
X120650000Y-65405000D02*
X120650000Y-52705000D01*
X113030000Y-65405000D02*
X120650000Y-65405000D01*
X113030000Y-52705000D02*
X113030000Y-65405000D01*
X120650000Y-52705000D02*
X113030000Y-52705000D01*
X96670000Y-139120000D02*
X96670000Y-130120000D01*
X107570000Y-139120000D02*
X107570000Y-130120000D01*
X96670000Y-139120000D02*
X107570000Y-139120000D01*
X96670000Y-130120000D02*
X107570000Y-130120000D01*
X104670000Y-134620000D02*
G75*
G03*
X104670000Y-134620000I-1800000J0D01*
G01*
X101070000Y-134620000D02*
X104670000Y-134620000D01*
X102870000Y-136420000D02*
X102870000Y-132820000D01*
X120520000Y-123720000D02*
X120520000Y-120120000D01*
X118720000Y-121920000D02*
X122320000Y-121920000D01*
X122320000Y-121920000D02*
G75*
G03*
X122320000Y-121920000I-1800000J0D01*
G01*
X114320000Y-117420000D02*
X125220000Y-117420000D01*
X114320000Y-126420000D02*
X125220000Y-126420000D01*
X125220000Y-126420000D02*
X125220000Y-117420000D01*
X114320000Y-126420000D02*
X114320000Y-117420000D01*
X102870000Y-123720000D02*
X102870000Y-120120000D01*
X101070000Y-121920000D02*
X104670000Y-121920000D01*
X104670000Y-121920000D02*
G75*
G03*
X104670000Y-121920000I-1800000J0D01*
G01*
X96670000Y-117420000D02*
X107570000Y-117420000D01*
X96670000Y-126420000D02*
X107570000Y-126420000D01*
X107570000Y-126420000D02*
X107570000Y-117420000D01*
X96670000Y-126420000D02*
X96670000Y-117420000D01*
D11*
X88090000Y-59810000D02*
G75*
G03*
X88090000Y-59810000I-3000000J0D01*
G01*
X79190000Y-57810000D02*
X79190000Y-53710000D01*
X90990000Y-53710000D02*
X90990000Y-57810000D01*
X90990000Y-61810000D02*
X90990000Y-65910000D01*
X79190000Y-61810000D02*
X79190000Y-65910000D01*
X79190000Y-65910000D02*
X90990000Y-65910000D01*
X81290000Y-67310000D02*
X80990000Y-67610000D01*
X80990000Y-67610000D02*
X80990000Y-67010000D01*
X80990000Y-67010000D02*
X81290000Y-67310000D01*
X79190000Y-53710000D02*
X81590000Y-53710000D01*
X83790000Y-53710000D02*
X86390000Y-53710000D01*
X88590000Y-53710000D02*
X90990000Y-53710000D01*
X84590000Y-59810000D02*
X85590000Y-59810000D01*
X85090000Y-60310000D02*
X85090000Y-59310000D01*
X83530000Y-113064000D02*
X83530000Y-113220000D01*
X83530000Y-115380000D02*
X83530000Y-115536000D01*
X86762335Y-113221392D02*
G75*
G03*
X83530000Y-113064484I-1672335J-1078608D01*
G01*
X86762335Y-115378608D02*
G75*
G02*
X83530000Y-115535516I-1672335J1078608D01*
G01*
X86131130Y-113220163D02*
G75*
G03*
X84049039Y-113220000I-1041130J-1079837D01*
G01*
X86131130Y-115379837D02*
G75*
G02*
X84049039Y-115380000I-1041130J1079837D01*
G01*
X101310000Y-115380000D02*
X101310000Y-115536000D01*
X101310000Y-113064000D02*
X101310000Y-113220000D01*
X103911130Y-115379837D02*
G75*
G02*
X101829039Y-115380000I-1041130J1079837D01*
G01*
X103911130Y-113220163D02*
G75*
G03*
X101829039Y-113220000I-1041130J-1079837D01*
G01*
X104542335Y-115378608D02*
G75*
G02*
X101310000Y-115535516I-1672335J1078608D01*
G01*
X104542335Y-113221392D02*
G75*
G03*
X101310000Y-113064484I-1672335J-1078608D01*
G01*
X119090000Y-113064000D02*
X119090000Y-113220000D01*
X119090000Y-115380000D02*
X119090000Y-115536000D01*
X122322335Y-113221392D02*
G75*
G03*
X119090000Y-113064484I-1672335J-1078608D01*
G01*
X122322335Y-115378608D02*
G75*
G02*
X119090000Y-115535516I-1672335J1078608D01*
G01*
X121691130Y-113220163D02*
G75*
G03*
X119609039Y-113220000I-1041130J-1079837D01*
G01*
X121691130Y-115379837D02*
G75*
G02*
X119609039Y-115380000I-1041130J1079837D01*
G01*
X136870000Y-115380000D02*
X136870000Y-115536000D01*
X136870000Y-113064000D02*
X136870000Y-113220000D01*
X139471130Y-115379837D02*
G75*
G02*
X137389039Y-115380000I-1041130J1079837D01*
G01*
X139471130Y-113220163D02*
G75*
G03*
X137389039Y-113220000I-1041130J-1079837D01*
G01*
X140102335Y-115378608D02*
G75*
G02*
X136870000Y-115535516I-1672335J1078608D01*
G01*
X140102335Y-113221392D02*
G75*
G03*
X136870000Y-113064484I-1672335J-1078608D01*
G01*
D10*
X85090000Y-123720000D02*
X85090000Y-120120000D01*
X83290000Y-121920000D02*
X86890000Y-121920000D01*
X86890000Y-121920000D02*
G75*
G03*
X86890000Y-121920000I-1800000J0D01*
G01*
X78890000Y-117420000D02*
X89790000Y-117420000D01*
X78890000Y-126420000D02*
X89790000Y-126420000D01*
X89790000Y-126420000D02*
X89790000Y-117420000D01*
X78890000Y-126420000D02*
X78890000Y-117420000D01*
X78890000Y-139120000D02*
X78890000Y-130120000D01*
X89790000Y-139120000D02*
X89790000Y-130120000D01*
X78890000Y-139120000D02*
X89790000Y-139120000D01*
X78890000Y-130120000D02*
X89790000Y-130120000D01*
X86890000Y-134620000D02*
G75*
G03*
X86890000Y-134620000I-1800000J0D01*
G01*
X83290000Y-134620000D02*
X86890000Y-134620000D01*
X85090000Y-136420000D02*
X85090000Y-132820000D01*
X114450000Y-139120000D02*
X114450000Y-130120000D01*
X125350000Y-139120000D02*
X125350000Y-130120000D01*
X114450000Y-139120000D02*
X125350000Y-139120000D01*
X114450000Y-130120000D02*
X125350000Y-130120000D01*
X122450000Y-134620000D02*
G75*
G03*
X122450000Y-134620000I-1800000J0D01*
G01*
X118850000Y-134620000D02*
X122450000Y-134620000D01*
X120650000Y-136420000D02*
X120650000Y-132820000D01*
X138430000Y-123720000D02*
X138430000Y-120120000D01*
X136630000Y-121920000D02*
X140230000Y-121920000D01*
X140230000Y-121920000D02*
G75*
G03*
X140230000Y-121920000I-1800000J0D01*
G01*
X132230000Y-117420000D02*
X143130000Y-117420000D01*
X132230000Y-126420000D02*
X143130000Y-126420000D01*
X143130000Y-126420000D02*
X143130000Y-117420000D01*
X132230000Y-126420000D02*
X132230000Y-117420000D01*
X132230000Y-139120000D02*
X132230000Y-130120000D01*
X143130000Y-139120000D02*
X143130000Y-130120000D01*
X132230000Y-139120000D02*
X143130000Y-139120000D01*
X132230000Y-130120000D02*
X143130000Y-130120000D01*
X140230000Y-134620000D02*
G75*
G03*
X140230000Y-134620000I-1800000J0D01*
G01*
X136630000Y-134620000D02*
X140230000Y-134620000D01*
X138430000Y-136420000D02*
X138430000Y-132820000D01*
X102870000Y-149120000D02*
X102870000Y-145520000D01*
X101070000Y-147320000D02*
X104670000Y-147320000D01*
X104670000Y-147320000D02*
G75*
G03*
X104670000Y-147320000I-1800000J0D01*
G01*
X96670000Y-142820000D02*
X107570000Y-142820000D01*
X96670000Y-151820000D02*
X107570000Y-151820000D01*
X107570000Y-151820000D02*
X107570000Y-142820000D01*
X96670000Y-151820000D02*
X96670000Y-142820000D01*
X114320000Y-151820000D02*
X114320000Y-142820000D01*
X125220000Y-151820000D02*
X125220000Y-142820000D01*
X114320000Y-151820000D02*
X125220000Y-151820000D01*
X114320000Y-142820000D02*
X125220000Y-142820000D01*
X122320000Y-147320000D02*
G75*
G03*
X122320000Y-147320000I-1800000J0D01*
G01*
X118720000Y-147320000D02*
X122320000Y-147320000D01*
X120520000Y-149120000D02*
X120520000Y-145520000D01*
X138430000Y-149120000D02*
X138430000Y-145520000D01*
X136630000Y-147320000D02*
X140230000Y-147320000D01*
X140230000Y-147320000D02*
G75*
G03*
X140230000Y-147320000I-1800000J0D01*
G01*
X132230000Y-142820000D02*
X143130000Y-142820000D01*
X132230000Y-151820000D02*
X143130000Y-151820000D01*
X143130000Y-151820000D02*
X143130000Y-142820000D01*
X132230000Y-151820000D02*
X132230000Y-142820000D01*
D11*
X102870000Y-74280000D02*
X102870000Y-73280000D01*
X102370000Y-73780000D02*
X103370000Y-73780000D01*
X106370000Y-67680000D02*
X108770000Y-67680000D01*
X101570000Y-67680000D02*
X104170000Y-67680000D01*
X96970000Y-67680000D02*
X99370000Y-67680000D01*
X98770000Y-80980000D02*
X99070000Y-81280000D01*
X98770000Y-81580000D02*
X98770000Y-80980000D01*
X99070000Y-81280000D02*
X98770000Y-81580000D01*
X96970000Y-79880000D02*
X108770000Y-79880000D01*
X96970000Y-75780000D02*
X96970000Y-79880000D01*
X108770000Y-75780000D02*
X108770000Y-79880000D01*
X108770000Y-67680000D02*
X108770000Y-71780000D01*
X96970000Y-71780000D02*
X96970000Y-67680000D01*
X105870000Y-73780000D02*
G75*
G03*
X105870000Y-73780000I-3000000J0D01*
G01*
X120650000Y-88250000D02*
X120650000Y-87250000D01*
X120150000Y-87750000D02*
X121150000Y-87750000D01*
X124150000Y-81650000D02*
X126550000Y-81650000D01*
X119350000Y-81650000D02*
X121950000Y-81650000D01*
X114750000Y-81650000D02*
X117150000Y-81650000D01*
X116550000Y-94950000D02*
X116850000Y-95250000D01*
X116550000Y-95550000D02*
X116550000Y-94950000D01*
X116850000Y-95250000D02*
X116550000Y-95550000D01*
X114750000Y-93850000D02*
X126550000Y-93850000D01*
X114750000Y-89750000D02*
X114750000Y-93850000D01*
X126550000Y-89750000D02*
X126550000Y-93850000D01*
X126550000Y-81650000D02*
X126550000Y-85750000D01*
X114750000Y-85750000D02*
X114750000Y-81650000D01*
X123650000Y-87750000D02*
G75*
G03*
X123650000Y-87750000I-3000000J0D01*
G01*
D10*
X143510000Y-52705000D02*
X135890000Y-52705000D01*
X135890000Y-52705000D02*
X135890000Y-65405000D01*
X135890000Y-65405000D02*
X143510000Y-65405000D01*
X143510000Y-65405000D02*
X143510000Y-52705000D01*
D11*
X135530000Y-53975000D02*
X135530000Y-52345000D01*
X135530000Y-52345000D02*
X137160000Y-52345000D01*
D10*
X130365714Y-109148571D02*
X130699047Y-109148571D01*
X130841904Y-109672380D02*
X130365714Y-109672380D01*
X130365714Y-108672380D01*
X130841904Y-108672380D01*
X131270476Y-109672380D02*
X131270476Y-108672380D01*
X131841904Y-109672380D01*
X131841904Y-108672380D01*
X132889523Y-109577142D02*
X132841904Y-109624761D01*
X132699047Y-109672380D01*
X132603809Y-109672380D01*
X132460952Y-109624761D01*
X132365714Y-109529523D01*
X132318095Y-109434285D01*
X132270476Y-109243809D01*
X132270476Y-109100952D01*
X132318095Y-108910476D01*
X132365714Y-108815238D01*
X132460952Y-108720000D01*
X132603809Y-108672380D01*
X132699047Y-108672380D01*
X132841904Y-108720000D01*
X132889523Y-108767619D01*
X133746666Y-109005714D02*
X133746666Y-109672380D01*
X133508571Y-108624761D02*
X133270476Y-109339047D01*
X133889523Y-109339047D01*
X123698095Y-51268380D02*
X123698095Y-52077904D01*
X123745714Y-52173142D01*
X123793333Y-52220761D01*
X123888571Y-52268380D01*
X124079047Y-52268380D01*
X124174285Y-52220761D01*
X124221904Y-52173142D01*
X124269523Y-52077904D01*
X124269523Y-51268380D01*
X124650476Y-51268380D02*
X125269523Y-51268380D01*
X124936190Y-51649333D01*
X125079047Y-51649333D01*
X125174285Y-51696952D01*
X125221904Y-51744571D01*
X125269523Y-51839809D01*
X125269523Y-52077904D01*
X125221904Y-52173142D01*
X125174285Y-52220761D01*
X125079047Y-52268380D01*
X124793333Y-52268380D01*
X124698095Y-52220761D01*
X124650476Y-52173142D01*
X131318095Y-51268380D02*
X131318095Y-52077904D01*
X131365714Y-52173142D01*
X131413333Y-52220761D01*
X131508571Y-52268380D01*
X131699047Y-52268380D01*
X131794285Y-52220761D01*
X131841904Y-52173142D01*
X131889523Y-52077904D01*
X131889523Y-51268380D01*
X132794285Y-51601714D02*
X132794285Y-52268380D01*
X132556190Y-51220761D02*
X132318095Y-51935047D01*
X132937142Y-51935047D01*
X91106666Y-142962380D02*
X91106666Y-143676666D01*
X91059047Y-143819523D01*
X90963809Y-143914761D01*
X90820952Y-143962380D01*
X90725714Y-143962380D01*
X92106666Y-143962380D02*
X91535238Y-143962380D01*
X91820952Y-143962380D02*
X91820952Y-142962380D01*
X91725714Y-143105238D01*
X91630476Y-143200476D01*
X91535238Y-143248095D01*
X116078095Y-51268380D02*
X116078095Y-52077904D01*
X116125714Y-52173142D01*
X116173333Y-52220761D01*
X116268571Y-52268380D01*
X116459047Y-52268380D01*
X116554285Y-52220761D01*
X116601904Y-52173142D01*
X116649523Y-52077904D01*
X116649523Y-51268380D01*
X117649523Y-52268380D02*
X117078095Y-52268380D01*
X117363809Y-52268380D02*
X117363809Y-51268380D01*
X117268571Y-51411238D01*
X117173333Y-51506476D01*
X117078095Y-51554095D01*
X108124666Y-130008380D02*
X108124666Y-130722666D01*
X108077047Y-130865523D01*
X107981809Y-130960761D01*
X107838952Y-131008380D01*
X107743714Y-131008380D01*
X108648476Y-131008380D02*
X108838952Y-131008380D01*
X108934190Y-130960761D01*
X108981809Y-130913142D01*
X109077047Y-130770285D01*
X109124666Y-130579809D01*
X109124666Y-130198857D01*
X109077047Y-130103619D01*
X109029428Y-130056000D01*
X108934190Y-130008380D01*
X108743714Y-130008380D01*
X108648476Y-130056000D01*
X108600857Y-130103619D01*
X108553238Y-130198857D01*
X108553238Y-130436952D01*
X108600857Y-130532190D01*
X108648476Y-130579809D01*
X108743714Y-130627428D01*
X108934190Y-130627428D01*
X109029428Y-130579809D01*
X109077047Y-130532190D01*
X109124666Y-130436952D01*
X126060476Y-117308380D02*
X126060476Y-118022666D01*
X126012857Y-118165523D01*
X125917619Y-118260761D01*
X125774761Y-118308380D01*
X125679523Y-118308380D01*
X127060476Y-118308380D02*
X126489047Y-118308380D01*
X126774761Y-118308380D02*
X126774761Y-117308380D01*
X126679523Y-117451238D01*
X126584285Y-117546476D01*
X126489047Y-117594095D01*
X127679523Y-117308380D02*
X127774761Y-117308380D01*
X127870000Y-117356000D01*
X127917619Y-117403619D01*
X127965238Y-117498857D01*
X128012857Y-117689333D01*
X128012857Y-117927428D01*
X127965238Y-118117904D01*
X127917619Y-118213142D01*
X127870000Y-118260761D01*
X127774761Y-118308380D01*
X127679523Y-118308380D01*
X127584285Y-118260761D01*
X127536666Y-118213142D01*
X127489047Y-118117904D01*
X127441428Y-117927428D01*
X127441428Y-117689333D01*
X127489047Y-117498857D01*
X127536666Y-117403619D01*
X127584285Y-117356000D01*
X127679523Y-117308380D01*
X108124666Y-117308380D02*
X108124666Y-118022666D01*
X108077047Y-118165523D01*
X107981809Y-118260761D01*
X107838952Y-118308380D01*
X107743714Y-118308380D01*
X108743714Y-117736952D02*
X108648476Y-117689333D01*
X108600857Y-117641714D01*
X108553238Y-117546476D01*
X108553238Y-117498857D01*
X108600857Y-117403619D01*
X108648476Y-117356000D01*
X108743714Y-117308380D01*
X108934190Y-117308380D01*
X109029428Y-117356000D01*
X109077047Y-117403619D01*
X109124666Y-117498857D01*
X109124666Y-117546476D01*
X109077047Y-117641714D01*
X109029428Y-117689333D01*
X108934190Y-117736952D01*
X108743714Y-117736952D01*
X108648476Y-117784571D01*
X108600857Y-117832190D01*
X108553238Y-117927428D01*
X108553238Y-118117904D01*
X108600857Y-118213142D01*
X108648476Y-118260761D01*
X108743714Y-118308380D01*
X108934190Y-118308380D01*
X109029428Y-118260761D01*
X109077047Y-118213142D01*
X109124666Y-118117904D01*
X109124666Y-117927428D01*
X109077047Y-117832190D01*
X109029428Y-117784571D01*
X108934190Y-117736952D01*
X77025714Y-67238571D02*
X77359047Y-67238571D01*
X77501904Y-67762380D02*
X77025714Y-67762380D01*
X77025714Y-66762380D01*
X77501904Y-66762380D01*
X77930476Y-67762380D02*
X77930476Y-66762380D01*
X78501904Y-67762380D01*
X78501904Y-66762380D01*
X79549523Y-67667142D02*
X79501904Y-67714761D01*
X79359047Y-67762380D01*
X79263809Y-67762380D01*
X79120952Y-67714761D01*
X79025714Y-67619523D01*
X78978095Y-67524285D01*
X78930476Y-67333809D01*
X78930476Y-67190952D01*
X78978095Y-67000476D01*
X79025714Y-66905238D01*
X79120952Y-66810000D01*
X79263809Y-66762380D01*
X79359047Y-66762380D01*
X79501904Y-66810000D01*
X79549523Y-66857619D01*
X80501904Y-67762380D02*
X79930476Y-67762380D01*
X80216190Y-67762380D02*
X80216190Y-66762380D01*
X80120952Y-66905238D01*
X80025714Y-67000476D01*
X79930476Y-67048095D01*
X79271904Y-114752380D02*
X79271904Y-113752380D01*
X79510000Y-113752380D01*
X79652857Y-113800000D01*
X79748095Y-113895238D01*
X79795714Y-113990476D01*
X79843333Y-114180952D01*
X79843333Y-114323809D01*
X79795714Y-114514285D01*
X79748095Y-114609523D01*
X79652857Y-114704761D01*
X79510000Y-114752380D01*
X79271904Y-114752380D01*
X80795714Y-114752380D02*
X80224285Y-114752380D01*
X80510000Y-114752380D02*
X80510000Y-113752380D01*
X80414761Y-113895238D01*
X80319523Y-113990476D01*
X80224285Y-114038095D01*
X97051904Y-114752380D02*
X97051904Y-113752380D01*
X97290000Y-113752380D01*
X97432857Y-113800000D01*
X97528095Y-113895238D01*
X97575714Y-113990476D01*
X97623333Y-114180952D01*
X97623333Y-114323809D01*
X97575714Y-114514285D01*
X97528095Y-114609523D01*
X97432857Y-114704761D01*
X97290000Y-114752380D01*
X97051904Y-114752380D01*
X98004285Y-113847619D02*
X98051904Y-113800000D01*
X98147142Y-113752380D01*
X98385238Y-113752380D01*
X98480476Y-113800000D01*
X98528095Y-113847619D01*
X98575714Y-113942857D01*
X98575714Y-114038095D01*
X98528095Y-114180952D01*
X97956666Y-114752380D01*
X98575714Y-114752380D01*
X114831904Y-114752380D02*
X114831904Y-113752380D01*
X115070000Y-113752380D01*
X115212857Y-113800000D01*
X115308095Y-113895238D01*
X115355714Y-113990476D01*
X115403333Y-114180952D01*
X115403333Y-114323809D01*
X115355714Y-114514285D01*
X115308095Y-114609523D01*
X115212857Y-114704761D01*
X115070000Y-114752380D01*
X114831904Y-114752380D01*
X115736666Y-113752380D02*
X116355714Y-113752380D01*
X116022380Y-114133333D01*
X116165238Y-114133333D01*
X116260476Y-114180952D01*
X116308095Y-114228571D01*
X116355714Y-114323809D01*
X116355714Y-114561904D01*
X116308095Y-114657142D01*
X116260476Y-114704761D01*
X116165238Y-114752380D01*
X115879523Y-114752380D01*
X115784285Y-114704761D01*
X115736666Y-114657142D01*
X132611904Y-114752380D02*
X132611904Y-113752380D01*
X132850000Y-113752380D01*
X132992857Y-113800000D01*
X133088095Y-113895238D01*
X133135714Y-113990476D01*
X133183333Y-114180952D01*
X133183333Y-114323809D01*
X133135714Y-114514285D01*
X133088095Y-114609523D01*
X132992857Y-114704761D01*
X132850000Y-114752380D01*
X132611904Y-114752380D01*
X134040476Y-114085714D02*
X134040476Y-114752380D01*
X133802380Y-113704761D02*
X133564285Y-114419047D01*
X134183333Y-114419047D01*
X90344666Y-117308380D02*
X90344666Y-118022666D01*
X90297047Y-118165523D01*
X90201809Y-118260761D01*
X90058952Y-118308380D01*
X89963714Y-118308380D01*
X91249428Y-117308380D02*
X91058952Y-117308380D01*
X90963714Y-117356000D01*
X90916095Y-117403619D01*
X90820857Y-117546476D01*
X90773238Y-117736952D01*
X90773238Y-118117904D01*
X90820857Y-118213142D01*
X90868476Y-118260761D01*
X90963714Y-118308380D01*
X91154190Y-118308380D01*
X91249428Y-118260761D01*
X91297047Y-118213142D01*
X91344666Y-118117904D01*
X91344666Y-117879809D01*
X91297047Y-117784571D01*
X91249428Y-117736952D01*
X91154190Y-117689333D01*
X90963714Y-117689333D01*
X90868476Y-117736952D01*
X90820857Y-117784571D01*
X90773238Y-117879809D01*
X90344666Y-130008380D02*
X90344666Y-130722666D01*
X90297047Y-130865523D01*
X90201809Y-130960761D01*
X90058952Y-131008380D01*
X89963714Y-131008380D01*
X90725619Y-130008380D02*
X91392285Y-130008380D01*
X90963714Y-131008380D01*
X126190476Y-130008380D02*
X126190476Y-130722666D01*
X126142857Y-130865523D01*
X126047619Y-130960761D01*
X125904761Y-131008380D01*
X125809523Y-131008380D01*
X127190476Y-131008380D02*
X126619047Y-131008380D01*
X126904761Y-131008380D02*
X126904761Y-130008380D01*
X126809523Y-130151238D01*
X126714285Y-130246476D01*
X126619047Y-130294095D01*
X128142857Y-131008380D02*
X127571428Y-131008380D01*
X127857142Y-131008380D02*
X127857142Y-130008380D01*
X127761904Y-130151238D01*
X127666666Y-130246476D01*
X127571428Y-130294095D01*
X143970476Y-117562380D02*
X143970476Y-118276666D01*
X143922857Y-118419523D01*
X143827619Y-118514761D01*
X143684761Y-118562380D01*
X143589523Y-118562380D01*
X144970476Y-118562380D02*
X144399047Y-118562380D01*
X144684761Y-118562380D02*
X144684761Y-117562380D01*
X144589523Y-117705238D01*
X144494285Y-117800476D01*
X144399047Y-117848095D01*
X145351428Y-117657619D02*
X145399047Y-117610000D01*
X145494285Y-117562380D01*
X145732380Y-117562380D01*
X145827619Y-117610000D01*
X145875238Y-117657619D01*
X145922857Y-117752857D01*
X145922857Y-117848095D01*
X145875238Y-117990952D01*
X145303809Y-118562380D01*
X145922857Y-118562380D01*
X143970476Y-130262380D02*
X143970476Y-130976666D01*
X143922857Y-131119523D01*
X143827619Y-131214761D01*
X143684761Y-131262380D01*
X143589523Y-131262380D01*
X144970476Y-131262380D02*
X144399047Y-131262380D01*
X144684761Y-131262380D02*
X144684761Y-130262380D01*
X144589523Y-130405238D01*
X144494285Y-130500476D01*
X144399047Y-130548095D01*
X145303809Y-130262380D02*
X145922857Y-130262380D01*
X145589523Y-130643333D01*
X145732380Y-130643333D01*
X145827619Y-130690952D01*
X145875238Y-130738571D01*
X145922857Y-130833809D01*
X145922857Y-131071904D01*
X145875238Y-131167142D01*
X145827619Y-131214761D01*
X145732380Y-131262380D01*
X145446666Y-131262380D01*
X145351428Y-131214761D01*
X145303809Y-131167142D01*
X108886666Y-142962380D02*
X108886666Y-143676666D01*
X108839047Y-143819523D01*
X108743809Y-143914761D01*
X108600952Y-143962380D01*
X108505714Y-143962380D01*
X109315238Y-143057619D02*
X109362857Y-143010000D01*
X109458095Y-142962380D01*
X109696190Y-142962380D01*
X109791428Y-143010000D01*
X109839047Y-143057619D01*
X109886666Y-143152857D01*
X109886666Y-143248095D01*
X109839047Y-143390952D01*
X109267619Y-143962380D01*
X109886666Y-143962380D01*
X126536666Y-142708380D02*
X126536666Y-143422666D01*
X126489047Y-143565523D01*
X126393809Y-143660761D01*
X126250952Y-143708380D01*
X126155714Y-143708380D01*
X126917619Y-142708380D02*
X127536666Y-142708380D01*
X127203333Y-143089333D01*
X127346190Y-143089333D01*
X127441428Y-143136952D01*
X127489047Y-143184571D01*
X127536666Y-143279809D01*
X127536666Y-143517904D01*
X127489047Y-143613142D01*
X127441428Y-143660761D01*
X127346190Y-143708380D01*
X127060476Y-143708380D01*
X126965238Y-143660761D01*
X126917619Y-143613142D01*
X144446666Y-142962380D02*
X144446666Y-143676666D01*
X144399047Y-143819523D01*
X144303809Y-143914761D01*
X144160952Y-143962380D01*
X144065714Y-143962380D01*
X145351428Y-143295714D02*
X145351428Y-143962380D01*
X145113333Y-142914761D02*
X144875238Y-143629047D01*
X145494285Y-143629047D01*
X94805714Y-81208571D02*
X95139047Y-81208571D01*
X95281904Y-81732380D02*
X94805714Y-81732380D01*
X94805714Y-80732380D01*
X95281904Y-80732380D01*
X95710476Y-81732380D02*
X95710476Y-80732380D01*
X96281904Y-81732380D01*
X96281904Y-80732380D01*
X97329523Y-81637142D02*
X97281904Y-81684761D01*
X97139047Y-81732380D01*
X97043809Y-81732380D01*
X96900952Y-81684761D01*
X96805714Y-81589523D01*
X96758095Y-81494285D01*
X96710476Y-81303809D01*
X96710476Y-81160952D01*
X96758095Y-80970476D01*
X96805714Y-80875238D01*
X96900952Y-80780000D01*
X97043809Y-80732380D01*
X97139047Y-80732380D01*
X97281904Y-80780000D01*
X97329523Y-80827619D01*
X97710476Y-80827619D02*
X97758095Y-80780000D01*
X97853333Y-80732380D01*
X98091428Y-80732380D01*
X98186666Y-80780000D01*
X98234285Y-80827619D01*
X98281904Y-80922857D01*
X98281904Y-81018095D01*
X98234285Y-81160952D01*
X97662857Y-81732380D01*
X98281904Y-81732380D01*
X112585714Y-95178571D02*
X112919047Y-95178571D01*
X113061904Y-95702380D02*
X112585714Y-95702380D01*
X112585714Y-94702380D01*
X113061904Y-94702380D01*
X113490476Y-95702380D02*
X113490476Y-94702380D01*
X114061904Y-95702380D01*
X114061904Y-94702380D01*
X115109523Y-95607142D02*
X115061904Y-95654761D01*
X114919047Y-95702380D01*
X114823809Y-95702380D01*
X114680952Y-95654761D01*
X114585714Y-95559523D01*
X114538095Y-95464285D01*
X114490476Y-95273809D01*
X114490476Y-95130952D01*
X114538095Y-94940476D01*
X114585714Y-94845238D01*
X114680952Y-94750000D01*
X114823809Y-94702380D01*
X114919047Y-94702380D01*
X115061904Y-94750000D01*
X115109523Y-94797619D01*
X115442857Y-94702380D02*
X116061904Y-94702380D01*
X115728571Y-95083333D01*
X115871428Y-95083333D01*
X115966666Y-95130952D01*
X116014285Y-95178571D01*
X116061904Y-95273809D01*
X116061904Y-95511904D01*
X116014285Y-95607142D01*
X115966666Y-95654761D01*
X115871428Y-95702380D01*
X115585714Y-95702380D01*
X115490476Y-95654761D01*
X115442857Y-95607142D01*
X138938095Y-51268380D02*
X138938095Y-52077904D01*
X138985714Y-52173142D01*
X139033333Y-52220761D01*
X139128571Y-52268380D01*
X139319047Y-52268380D01*
X139414285Y-52220761D01*
X139461904Y-52173142D01*
X139509523Y-52077904D01*
X139509523Y-51268380D01*
X140461904Y-51268380D02*
X139985714Y-51268380D01*
X139938095Y-51744571D01*
X139985714Y-51696952D01*
X140080952Y-51649333D01*
X140319047Y-51649333D01*
X140414285Y-51696952D01*
X140461904Y-51744571D01*
X140509523Y-51839809D01*
X140509523Y-52077904D01*
X140461904Y-52173142D01*
X140414285Y-52220761D01*
X140319047Y-52268380D01*
X140080952Y-52268380D01*
X139985714Y-52220761D01*
X139938095Y-52173142D01*
M02*
