G04 #@! TF.GenerationSoftware,KiCad,Pcbnew,5.1.6-c6e7f7d~87~ubuntu18.04.1*
G04 #@! TF.CreationDate,2020-08-19T10:21:35-04:00*
G04 #@! TF.ProjectId,quad_adsr,71756164-5f61-4647-9372-2e6b69636164,rev?*
G04 #@! TF.SameCoordinates,Original*
G04 #@! TF.FileFunction,Legend,Bot*
G04 #@! TF.FilePolarity,Positive*
%FSLAX46Y46*%
G04 Gerber Fmt 4.6, Leading zero omitted, Abs format (unit mm)*
G04 Created by KiCad (PCBNEW 5.1.6-c6e7f7d~87~ubuntu18.04.1) date 2020-08-19 10:21:35*
%MOMM*%
%LPD*%
G01*
G04 APERTURE LIST*
%ADD10C,0.150000*%
%ADD11C,0.120000*%
G04 APERTURE END LIST*
D10*
X82245152Y-97251828D02*
X81483247Y-97251828D01*
X81864200Y-97632780D02*
X81864200Y-96870876D01*
D11*
X103587196Y-96418400D02*
G75*
G03*
X103587196Y-96418400I-56796J0D01*
G01*
X95052796Y-96443800D02*
G75*
G03*
X95052796Y-96443800I-56796J0D01*
G01*
X83927596Y-106527600D02*
G75*
G03*
X83927596Y-106527600I-56796J0D01*
G01*
X101961596Y-106578400D02*
G75*
G03*
X101961596Y-106578400I-56796J0D01*
G01*
X128479196Y-105257600D02*
G75*
G03*
X128479196Y-105257600I-56796J0D01*
G01*
X125354996Y-74117200D02*
G75*
G03*
X125354996Y-74117200I-56796J0D01*
G01*
X82047996Y-57200800D02*
G75*
G03*
X82047996Y-57200800I-56796J0D01*
G01*
X103815796Y-54432200D02*
G75*
G03*
X103815796Y-54432200I-56796J0D01*
G01*
X83317996Y-92964000D02*
G75*
G03*
X83317996Y-92964000I-56796J0D01*
G01*
X84537196Y-89255600D02*
G75*
G03*
X84537196Y-89255600I-56796J0D01*
G01*
D10*
X136270952Y-125801428D02*
X135509047Y-125801428D01*
X135890000Y-126182380D02*
X135890000Y-125420476D01*
X136270952Y-135961428D02*
X135509047Y-135961428D01*
X135890000Y-136342380D02*
X135890000Y-135580476D01*
X118490952Y-135961428D02*
X117729047Y-135961428D01*
X118110000Y-136342380D02*
X118110000Y-135580476D01*
X118490952Y-125801428D02*
X117729047Y-125801428D01*
X118110000Y-126182380D02*
X118110000Y-125420476D01*
X100710952Y-125801428D02*
X99949047Y-125801428D01*
X100330000Y-126182380D02*
X100330000Y-125420476D01*
X100710952Y-135961428D02*
X99949047Y-135961428D01*
X100330000Y-136342380D02*
X100330000Y-135580476D01*
X82930952Y-125801428D02*
X82169047Y-125801428D01*
X82550000Y-126182380D02*
X82550000Y-125420476D01*
X82930952Y-135961428D02*
X82169047Y-135961428D01*
X82550000Y-136342380D02*
X82550000Y-135580476D01*
X145539833Y-139105714D02*
X145539833Y-139915238D01*
X145587452Y-140010476D01*
X145635071Y-140058095D01*
X145730309Y-140105714D01*
X145873166Y-140105714D01*
X145968404Y-140058095D01*
X145539833Y-139724761D02*
X145635071Y-139772380D01*
X145825547Y-139772380D01*
X145920785Y-139724761D01*
X145968404Y-139677142D01*
X146016023Y-139581904D01*
X146016023Y-139296190D01*
X145968404Y-139200952D01*
X145920785Y-139153333D01*
X145825547Y-139105714D01*
X145635071Y-139105714D01*
X145539833Y-139153333D01*
X145063642Y-139772380D02*
X145063642Y-139105714D01*
X145063642Y-138772380D02*
X145111261Y-138820000D01*
X145063642Y-138867619D01*
X145016023Y-138820000D01*
X145063642Y-138772380D01*
X145063642Y-138867619D01*
X144730309Y-139105714D02*
X144349357Y-139105714D01*
X144587452Y-138772380D02*
X144587452Y-139629523D01*
X144539833Y-139724761D01*
X144444595Y-139772380D01*
X144349357Y-139772380D01*
X144016023Y-139772380D02*
X144016023Y-138772380D01*
X143587452Y-139772380D02*
X143587452Y-139248571D01*
X143635071Y-139153333D01*
X143730309Y-139105714D01*
X143873166Y-139105714D01*
X143968404Y-139153333D01*
X144016023Y-139200952D01*
X142682690Y-139105714D02*
X142682690Y-139772380D01*
X143111261Y-139105714D02*
X143111261Y-139629523D01*
X143063642Y-139724761D01*
X142968404Y-139772380D01*
X142825547Y-139772380D01*
X142730309Y-139724761D01*
X142682690Y-139677142D01*
X142206500Y-139772380D02*
X142206500Y-138772380D01*
X142206500Y-139153333D02*
X142111261Y-139105714D01*
X141920785Y-139105714D01*
X141825547Y-139153333D01*
X141777928Y-139200952D01*
X141730309Y-139296190D01*
X141730309Y-139581904D01*
X141777928Y-139677142D01*
X141825547Y-139724761D01*
X141920785Y-139772380D01*
X142111261Y-139772380D01*
X142206500Y-139724761D01*
X141301738Y-139677142D02*
X141254119Y-139724761D01*
X141301738Y-139772380D01*
X141349357Y-139724761D01*
X141301738Y-139677142D01*
X141301738Y-139772380D01*
X140396976Y-139724761D02*
X140492214Y-139772380D01*
X140682690Y-139772380D01*
X140777928Y-139724761D01*
X140825547Y-139677142D01*
X140873166Y-139581904D01*
X140873166Y-139296190D01*
X140825547Y-139200952D01*
X140777928Y-139153333D01*
X140682690Y-139105714D01*
X140492214Y-139105714D01*
X140396976Y-139153333D01*
X139825547Y-139772380D02*
X139920785Y-139724761D01*
X139968404Y-139677142D01*
X140016023Y-139581904D01*
X140016023Y-139296190D01*
X139968404Y-139200952D01*
X139920785Y-139153333D01*
X139825547Y-139105714D01*
X139682690Y-139105714D01*
X139587452Y-139153333D01*
X139539833Y-139200952D01*
X139492214Y-139296190D01*
X139492214Y-139581904D01*
X139539833Y-139677142D01*
X139587452Y-139724761D01*
X139682690Y-139772380D01*
X139825547Y-139772380D01*
X139063642Y-139772380D02*
X139063642Y-139105714D01*
X139063642Y-139200952D02*
X139016023Y-139153333D01*
X138920785Y-139105714D01*
X138777928Y-139105714D01*
X138682690Y-139153333D01*
X138635071Y-139248571D01*
X138635071Y-139772380D01*
X138635071Y-139248571D02*
X138587452Y-139153333D01*
X138492214Y-139105714D01*
X138349357Y-139105714D01*
X138254119Y-139153333D01*
X138206500Y-139248571D01*
X138206500Y-139772380D01*
X137016023Y-138724761D02*
X137873166Y-140010476D01*
X136396976Y-138772380D02*
X136396976Y-139486666D01*
X136444595Y-139629523D01*
X136539833Y-139724761D01*
X136682690Y-139772380D01*
X136777928Y-139772380D01*
X135777928Y-139772380D02*
X135873166Y-139724761D01*
X135920785Y-139677142D01*
X135968404Y-139581904D01*
X135968404Y-139296190D01*
X135920785Y-139200952D01*
X135873166Y-139153333D01*
X135777928Y-139105714D01*
X135635071Y-139105714D01*
X135539833Y-139153333D01*
X135492214Y-139200952D01*
X135444595Y-139296190D01*
X135444595Y-139581904D01*
X135492214Y-139677142D01*
X135539833Y-139724761D01*
X135635071Y-139772380D01*
X135777928Y-139772380D01*
X135016023Y-139772380D02*
X135016023Y-139105714D01*
X135016023Y-139296190D02*
X134968404Y-139200952D01*
X134920785Y-139153333D01*
X134825547Y-139105714D01*
X134730309Y-139105714D01*
X133968404Y-139772380D02*
X133968404Y-138772380D01*
X133968404Y-139724761D02*
X134063642Y-139772380D01*
X134254119Y-139772380D01*
X134349357Y-139724761D01*
X134396976Y-139677142D01*
X134444595Y-139581904D01*
X134444595Y-139296190D01*
X134396976Y-139200952D01*
X134349357Y-139153333D01*
X134254119Y-139105714D01*
X134063642Y-139105714D01*
X133968404Y-139153333D01*
X133063642Y-139772380D02*
X133063642Y-139248571D01*
X133111261Y-139153333D01*
X133206500Y-139105714D01*
X133396976Y-139105714D01*
X133492214Y-139153333D01*
X133063642Y-139724761D02*
X133158880Y-139772380D01*
X133396976Y-139772380D01*
X133492214Y-139724761D01*
X133539833Y-139629523D01*
X133539833Y-139534285D01*
X133492214Y-139439047D01*
X133396976Y-139391428D01*
X133158880Y-139391428D01*
X133063642Y-139343809D01*
X132587452Y-139105714D02*
X132587452Y-139772380D01*
X132587452Y-139200952D02*
X132539833Y-139153333D01*
X132444595Y-139105714D01*
X132301738Y-139105714D01*
X132206500Y-139153333D01*
X132158880Y-139248571D01*
X132158880Y-139772380D01*
X131730309Y-139486666D02*
X131254119Y-139486666D01*
X131825547Y-139772380D02*
X131492214Y-138772380D01*
X131158880Y-139772380D01*
X130396976Y-139724761D02*
X130492214Y-139772380D01*
X130682690Y-139772380D01*
X130777928Y-139724761D01*
X130825547Y-139677142D01*
X130873166Y-139581904D01*
X130873166Y-139296190D01*
X130825547Y-139200952D01*
X130777928Y-139153333D01*
X130682690Y-139105714D01*
X130492214Y-139105714D01*
X130396976Y-139153333D01*
X129587452Y-139724761D02*
X129682690Y-139772380D01*
X129873166Y-139772380D01*
X129968404Y-139724761D01*
X130016023Y-139629523D01*
X130016023Y-139248571D01*
X129968404Y-139153333D01*
X129873166Y-139105714D01*
X129682690Y-139105714D01*
X129587452Y-139153333D01*
X129539833Y-139248571D01*
X129539833Y-139343809D01*
X130016023Y-139439047D01*
X129254119Y-139105714D02*
X128873166Y-139105714D01*
X129111261Y-138772380D02*
X129111261Y-139629523D01*
X129063642Y-139724761D01*
X128968404Y-139772380D01*
X128873166Y-139772380D01*
X128396976Y-139772380D02*
X128492214Y-139724761D01*
X128539833Y-139677142D01*
X128587452Y-139581904D01*
X128587452Y-139296190D01*
X128539833Y-139200952D01*
X128492214Y-139153333D01*
X128396976Y-139105714D01*
X128254119Y-139105714D01*
X128158880Y-139153333D01*
X128111261Y-139200952D01*
X128063642Y-139296190D01*
X128063642Y-139581904D01*
X128111261Y-139677142D01*
X128158880Y-139724761D01*
X128254119Y-139772380D01*
X128396976Y-139772380D01*
X126920785Y-138724761D02*
X127777928Y-140010476D01*
X126158880Y-139105714D02*
X126158880Y-140105714D01*
X126158880Y-139724761D02*
X126254119Y-139772380D01*
X126444595Y-139772380D01*
X126539833Y-139724761D01*
X126587452Y-139677142D01*
X126635071Y-139581904D01*
X126635071Y-139296190D01*
X126587452Y-139200952D01*
X126539833Y-139153333D01*
X126444595Y-139105714D01*
X126254119Y-139105714D01*
X126158880Y-139153333D01*
X125254119Y-139105714D02*
X125254119Y-139772380D01*
X125682690Y-139105714D02*
X125682690Y-139629523D01*
X125635071Y-139724761D01*
X125539833Y-139772380D01*
X125396976Y-139772380D01*
X125301738Y-139724761D01*
X125254119Y-139677142D01*
X124349357Y-139772380D02*
X124349357Y-139248571D01*
X124396976Y-139153333D01*
X124492214Y-139105714D01*
X124682690Y-139105714D01*
X124777928Y-139153333D01*
X124349357Y-139724761D02*
X124444595Y-139772380D01*
X124682690Y-139772380D01*
X124777928Y-139724761D01*
X124825547Y-139629523D01*
X124825547Y-139534285D01*
X124777928Y-139439047D01*
X124682690Y-139391428D01*
X124444595Y-139391428D01*
X124349357Y-139343809D01*
X123444595Y-139772380D02*
X123444595Y-138772380D01*
X123444595Y-139724761D02*
X123539833Y-139772380D01*
X123730309Y-139772380D01*
X123825547Y-139724761D01*
X123873166Y-139677142D01*
X123920785Y-139581904D01*
X123920785Y-139296190D01*
X123873166Y-139200952D01*
X123825547Y-139153333D01*
X123730309Y-139105714D01*
X123539833Y-139105714D01*
X123444595Y-139153333D01*
X123206500Y-139867619D02*
X122444595Y-139867619D01*
X122254119Y-139486666D02*
X121777928Y-139486666D01*
X122349357Y-139772380D02*
X122016023Y-138772380D01*
X121682690Y-139772380D01*
X121349357Y-139772380D02*
X121349357Y-138772380D01*
X121111261Y-138772380D01*
X120968404Y-138820000D01*
X120873166Y-138915238D01*
X120825547Y-139010476D01*
X120777928Y-139200952D01*
X120777928Y-139343809D01*
X120825547Y-139534285D01*
X120873166Y-139629523D01*
X120968404Y-139724761D01*
X121111261Y-139772380D01*
X121349357Y-139772380D01*
X120396976Y-139724761D02*
X120254119Y-139772380D01*
X120016023Y-139772380D01*
X119920785Y-139724761D01*
X119873166Y-139677142D01*
X119825547Y-139581904D01*
X119825547Y-139486666D01*
X119873166Y-139391428D01*
X119920785Y-139343809D01*
X120016023Y-139296190D01*
X120206500Y-139248571D01*
X120301738Y-139200952D01*
X120349357Y-139153333D01*
X120396976Y-139058095D01*
X120396976Y-138962857D01*
X120349357Y-138867619D01*
X120301738Y-138820000D01*
X120206500Y-138772380D01*
X119968404Y-138772380D01*
X119825547Y-138820000D01*
X118825547Y-139772380D02*
X119158880Y-139296190D01*
X119396976Y-139772380D02*
X119396976Y-138772380D01*
X119016023Y-138772380D01*
X118920785Y-138820000D01*
X118873166Y-138867619D01*
X118825547Y-138962857D01*
X118825547Y-139105714D01*
X118873166Y-139200952D01*
X118920785Y-139248571D01*
X119016023Y-139296190D01*
X119396976Y-139296190D01*
X118635071Y-139867619D02*
X117873166Y-139867619D01*
X117635071Y-139772380D02*
X117635071Y-138772380D01*
X117635071Y-139153333D02*
X117539833Y-139105714D01*
X117349357Y-139105714D01*
X117254119Y-139153333D01*
X117206500Y-139200952D01*
X117158880Y-139296190D01*
X117158880Y-139581904D01*
X117206500Y-139677142D01*
X117254119Y-139724761D01*
X117349357Y-139772380D01*
X117539833Y-139772380D01*
X117635071Y-139724761D01*
X116587452Y-139772380D02*
X116682690Y-139724761D01*
X116730309Y-139677142D01*
X116777928Y-139581904D01*
X116777928Y-139296190D01*
X116730309Y-139200952D01*
X116682690Y-139153333D01*
X116587452Y-139105714D01*
X116444595Y-139105714D01*
X116349357Y-139153333D01*
X116301738Y-139200952D01*
X116254119Y-139296190D01*
X116254119Y-139581904D01*
X116301738Y-139677142D01*
X116349357Y-139724761D01*
X116444595Y-139772380D01*
X116587452Y-139772380D01*
X115396976Y-139772380D02*
X115396976Y-139248571D01*
X115444595Y-139153333D01*
X115539833Y-139105714D01*
X115730309Y-139105714D01*
X115825547Y-139153333D01*
X115396976Y-139724761D02*
X115492214Y-139772380D01*
X115730309Y-139772380D01*
X115825547Y-139724761D01*
X115873166Y-139629523D01*
X115873166Y-139534285D01*
X115825547Y-139439047D01*
X115730309Y-139391428D01*
X115492214Y-139391428D01*
X115396976Y-139343809D01*
X114920785Y-139772380D02*
X114920785Y-139105714D01*
X114920785Y-139296190D02*
X114873166Y-139200952D01*
X114825547Y-139153333D01*
X114730309Y-139105714D01*
X114635071Y-139105714D01*
X113873166Y-139772380D02*
X113873166Y-138772380D01*
X113873166Y-139724761D02*
X113968404Y-139772380D01*
X114158880Y-139772380D01*
X114254119Y-139724761D01*
X114301738Y-139677142D01*
X114349357Y-139581904D01*
X114349357Y-139296190D01*
X114301738Y-139200952D01*
X114254119Y-139153333D01*
X114158880Y-139105714D01*
X113968404Y-139105714D01*
X113873166Y-139153333D01*
X145968404Y-141422380D02*
X145968404Y-140755714D01*
X145968404Y-140946190D02*
X145920785Y-140850952D01*
X145873166Y-140803333D01*
X145777928Y-140755714D01*
X145682690Y-140755714D01*
X144968404Y-141374761D02*
X145063642Y-141422380D01*
X145254119Y-141422380D01*
X145349357Y-141374761D01*
X145396976Y-141279523D01*
X145396976Y-140898571D01*
X145349357Y-140803333D01*
X145254119Y-140755714D01*
X145063642Y-140755714D01*
X144968404Y-140803333D01*
X144920785Y-140898571D01*
X144920785Y-140993809D01*
X145396976Y-141089047D01*
X144587452Y-140755714D02*
X144349357Y-141422380D01*
X144111261Y-140755714D01*
X142777928Y-140422380D02*
X142682690Y-140422380D01*
X142587452Y-140470000D01*
X142539833Y-140517619D01*
X142492214Y-140612857D01*
X142444595Y-140803333D01*
X142444595Y-141041428D01*
X142492214Y-141231904D01*
X142539833Y-141327142D01*
X142587452Y-141374761D01*
X142682690Y-141422380D01*
X142777928Y-141422380D01*
X142873166Y-141374761D01*
X142920785Y-141327142D01*
X142968404Y-141231904D01*
X143016023Y-141041428D01*
X143016023Y-140803333D01*
X142968404Y-140612857D01*
X142920785Y-140517619D01*
X142873166Y-140470000D01*
X142777928Y-140422380D01*
X146016023Y-142167619D02*
X145968404Y-142120000D01*
X145873166Y-142072380D01*
X145635071Y-142072380D01*
X145539833Y-142120000D01*
X145492214Y-142167619D01*
X145444595Y-142262857D01*
X145444595Y-142358095D01*
X145492214Y-142500952D01*
X146063642Y-143072380D01*
X145444595Y-143072380D01*
X144825547Y-142072380D02*
X144730309Y-142072380D01*
X144635071Y-142120000D01*
X144587452Y-142167619D01*
X144539833Y-142262857D01*
X144492214Y-142453333D01*
X144492214Y-142691428D01*
X144539833Y-142881904D01*
X144587452Y-142977142D01*
X144635071Y-143024761D01*
X144730309Y-143072380D01*
X144825547Y-143072380D01*
X144920785Y-143024761D01*
X144968404Y-142977142D01*
X145016023Y-142881904D01*
X145063642Y-142691428D01*
X145063642Y-142453333D01*
X145016023Y-142262857D01*
X144968404Y-142167619D01*
X144920785Y-142120000D01*
X144825547Y-142072380D01*
X144111261Y-142167619D02*
X144063642Y-142120000D01*
X143968404Y-142072380D01*
X143730309Y-142072380D01*
X143635071Y-142120000D01*
X143587452Y-142167619D01*
X143539833Y-142262857D01*
X143539833Y-142358095D01*
X143587452Y-142500952D01*
X144158880Y-143072380D01*
X143539833Y-143072380D01*
X142920785Y-142072380D02*
X142825547Y-142072380D01*
X142730309Y-142120000D01*
X142682690Y-142167619D01*
X142635071Y-142262857D01*
X142587452Y-142453333D01*
X142587452Y-142691428D01*
X142635071Y-142881904D01*
X142682690Y-142977142D01*
X142730309Y-143024761D01*
X142825547Y-143072380D01*
X142920785Y-143072380D01*
X143016023Y-143024761D01*
X143063642Y-142977142D01*
X143111261Y-142881904D01*
X143158880Y-142691428D01*
X143158880Y-142453333D01*
X143111261Y-142262857D01*
X143063642Y-142167619D01*
X143016023Y-142120000D01*
X142920785Y-142072380D01*
X142158880Y-142691428D02*
X141396976Y-142691428D01*
X140730309Y-142072380D02*
X140635071Y-142072380D01*
X140539833Y-142120000D01*
X140492214Y-142167619D01*
X140444595Y-142262857D01*
X140396976Y-142453333D01*
X140396976Y-142691428D01*
X140444595Y-142881904D01*
X140492214Y-142977142D01*
X140539833Y-143024761D01*
X140635071Y-143072380D01*
X140730309Y-143072380D01*
X140825547Y-143024761D01*
X140873166Y-142977142D01*
X140920785Y-142881904D01*
X140968404Y-142691428D01*
X140968404Y-142453333D01*
X140920785Y-142262857D01*
X140873166Y-142167619D01*
X140825547Y-142120000D01*
X140730309Y-142072380D01*
X139825547Y-142500952D02*
X139920785Y-142453333D01*
X139968404Y-142405714D01*
X140016023Y-142310476D01*
X140016023Y-142262857D01*
X139968404Y-142167619D01*
X139920785Y-142120000D01*
X139825547Y-142072380D01*
X139635071Y-142072380D01*
X139539833Y-142120000D01*
X139492214Y-142167619D01*
X139444595Y-142262857D01*
X139444595Y-142310476D01*
X139492214Y-142405714D01*
X139539833Y-142453333D01*
X139635071Y-142500952D01*
X139825547Y-142500952D01*
X139920785Y-142548571D01*
X139968404Y-142596190D01*
X140016023Y-142691428D01*
X140016023Y-142881904D01*
X139968404Y-142977142D01*
X139920785Y-143024761D01*
X139825547Y-143072380D01*
X139635071Y-143072380D01*
X139539833Y-143024761D01*
X139492214Y-142977142D01*
X139444595Y-142881904D01*
X139444595Y-142691428D01*
X139492214Y-142596190D01*
X139539833Y-142548571D01*
X139635071Y-142500952D01*
X139016023Y-142691428D02*
X138254119Y-142691428D01*
X137587452Y-142072380D02*
X137492214Y-142072380D01*
X137396976Y-142120000D01*
X137349357Y-142167619D01*
X137301738Y-142262857D01*
X137254119Y-142453333D01*
X137254119Y-142691428D01*
X137301738Y-142881904D01*
X137349357Y-142977142D01*
X137396976Y-143024761D01*
X137492214Y-143072380D01*
X137587452Y-143072380D01*
X137682690Y-143024761D01*
X137730309Y-142977142D01*
X137777928Y-142881904D01*
X137825547Y-142691428D01*
X137825547Y-142453333D01*
X137777928Y-142262857D01*
X137730309Y-142167619D01*
X137682690Y-142120000D01*
X137587452Y-142072380D01*
X136349357Y-142072380D02*
X136825547Y-142072380D01*
X136873166Y-142548571D01*
X136825547Y-142500952D01*
X136730309Y-142453333D01*
X136492214Y-142453333D01*
X136396976Y-142500952D01*
X136349357Y-142548571D01*
X136301738Y-142643809D01*
X136301738Y-142881904D01*
X136349357Y-142977142D01*
X136396976Y-143024761D01*
X136492214Y-143072380D01*
X136730309Y-143072380D01*
X136825547Y-143024761D01*
X136873166Y-142977142D01*
X110569285Y-89142857D02*
X110512142Y-89171428D01*
X110397857Y-89171428D01*
X110340714Y-89142857D01*
X110312142Y-89085714D01*
X110312142Y-89057142D01*
X110340714Y-89000000D01*
X110397857Y-88971428D01*
X110483571Y-88971428D01*
X110540714Y-88942857D01*
X110569285Y-88885714D01*
X110569285Y-88857142D01*
X110540714Y-88800000D01*
X110483571Y-88771428D01*
X110397857Y-88771428D01*
X110340714Y-88800000D01*
X110112142Y-88771428D02*
X109997857Y-89171428D01*
X109883571Y-88885714D01*
X109769285Y-89171428D01*
X109655000Y-88771428D01*
X109340714Y-89171428D02*
X109397857Y-89142857D01*
X109426428Y-89114285D01*
X109455000Y-89057142D01*
X109455000Y-88885714D01*
X109426428Y-88828571D01*
X109397857Y-88800000D01*
X109340714Y-88771428D01*
X109255000Y-88771428D01*
X109197857Y-88800000D01*
X109169285Y-88828571D01*
X109140714Y-88885714D01*
X109140714Y-89057142D01*
X109169285Y-89114285D01*
X109197857Y-89142857D01*
X109255000Y-89171428D01*
X109340714Y-89171428D01*
X108043571Y-88771428D02*
X108043571Y-89171428D01*
X108043571Y-88828571D02*
X108015000Y-88800000D01*
X107957857Y-88771428D01*
X107872142Y-88771428D01*
X107815000Y-88800000D01*
X107786428Y-88857142D01*
X107786428Y-89171428D01*
X107500714Y-89171428D02*
X107500714Y-88771428D01*
X107500714Y-88885714D02*
X107472142Y-88828571D01*
X107443571Y-88800000D01*
X107386428Y-88771428D01*
X107329285Y-88771428D01*
X107157857Y-89142857D02*
X107100714Y-89171428D01*
X106986428Y-89171428D01*
X106929285Y-89142857D01*
X106900714Y-89085714D01*
X106900714Y-89057142D01*
X106929285Y-89000000D01*
X106986428Y-88971428D01*
X107072142Y-88971428D01*
X107129285Y-88942857D01*
X107157857Y-88885714D01*
X107157857Y-88857142D01*
X107129285Y-88800000D01*
X107072142Y-88771428D01*
X106986428Y-88771428D01*
X106929285Y-88800000D01*
X106729285Y-88771428D02*
X106500714Y-88771428D01*
X106643571Y-88571428D02*
X106643571Y-89085714D01*
X106615000Y-89142857D01*
X106557857Y-89171428D01*
X106500714Y-89171428D01*
X105903571Y-89142857D02*
X105846428Y-89171428D01*
X105732142Y-89171428D01*
X105675000Y-89142857D01*
X105646428Y-89085714D01*
X105646428Y-89057142D01*
X105675000Y-89000000D01*
X105732142Y-88971428D01*
X105817857Y-88971428D01*
X105875000Y-88942857D01*
X105903571Y-88885714D01*
X105903571Y-88857142D01*
X105875000Y-88800000D01*
X105817857Y-88771428D01*
X105732142Y-88771428D01*
X105675000Y-88800000D01*
X105446428Y-88771428D02*
X105332142Y-89171428D01*
X105217857Y-88885714D01*
X105103571Y-89171428D01*
X104989285Y-88771428D01*
X104503571Y-89171428D02*
X104503571Y-88571428D01*
X104503571Y-89142857D02*
X104560714Y-89171428D01*
X104675000Y-89171428D01*
X104732142Y-89142857D01*
X104760714Y-89114285D01*
X104789285Y-89057142D01*
X104789285Y-88885714D01*
X104760714Y-88828571D01*
X104732142Y-88800000D01*
X104675000Y-88771428D01*
X104560714Y-88771428D01*
X104503571Y-88800000D01*
X104217857Y-89171428D02*
X104217857Y-88771428D01*
X104217857Y-88571428D02*
X104246428Y-88600000D01*
X104217857Y-88628571D01*
X104189285Y-88600000D01*
X104217857Y-88571428D01*
X104217857Y-88628571D01*
X103846428Y-89171428D02*
X103903571Y-89142857D01*
X103932142Y-89114285D01*
X103960714Y-89057142D01*
X103960714Y-88885714D01*
X103932142Y-88828571D01*
X103903571Y-88800000D01*
X103846428Y-88771428D01*
X103760714Y-88771428D01*
X103703571Y-88800000D01*
X103675000Y-88828571D01*
X103646428Y-88885714D01*
X103646428Y-89057142D01*
X103675000Y-89114285D01*
X103703571Y-89142857D01*
X103760714Y-89171428D01*
X103846428Y-89171428D01*
X102649285Y-88771428D02*
X102649285Y-89257142D01*
X102677857Y-89314285D01*
X102706428Y-89342857D01*
X102763571Y-89371428D01*
X102849285Y-89371428D01*
X102906428Y-89342857D01*
X102649285Y-89142857D02*
X102706428Y-89171428D01*
X102820714Y-89171428D01*
X102877857Y-89142857D01*
X102906428Y-89114285D01*
X102935000Y-89057142D01*
X102935000Y-88885714D01*
X102906428Y-88828571D01*
X102877857Y-88800000D01*
X102820714Y-88771428D01*
X102706428Y-88771428D01*
X102649285Y-88800000D01*
X102363571Y-88771428D02*
X102363571Y-89171428D01*
X102363571Y-88828571D02*
X102335000Y-88800000D01*
X102277857Y-88771428D01*
X102192142Y-88771428D01*
X102135000Y-88800000D01*
X102106428Y-88857142D01*
X102106428Y-89171428D01*
X101563571Y-89171428D02*
X101563571Y-88571428D01*
X101563571Y-89142857D02*
X101620714Y-89171428D01*
X101735000Y-89171428D01*
X101792142Y-89142857D01*
X101820714Y-89114285D01*
X101849285Y-89057142D01*
X101849285Y-88885714D01*
X101820714Y-88828571D01*
X101792142Y-88800000D01*
X101735000Y-88771428D01*
X101620714Y-88771428D01*
X101563571Y-88800000D01*
X100795000Y-89142857D02*
X100737857Y-89171428D01*
X100623571Y-89171428D01*
X100566428Y-89142857D01*
X100537857Y-89085714D01*
X100537857Y-89057142D01*
X100566428Y-89000000D01*
X100623571Y-88971428D01*
X100709285Y-88971428D01*
X100766428Y-88942857D01*
X100795000Y-88885714D01*
X100795000Y-88857142D01*
X100766428Y-88800000D01*
X100709285Y-88771428D01*
X100623571Y-88771428D01*
X100566428Y-88800000D01*
X100337857Y-88771428D02*
X100223571Y-89171428D01*
X100109285Y-88885714D01*
X99995000Y-89171428D01*
X99880714Y-88771428D01*
X99395000Y-89142857D02*
X99452142Y-89171428D01*
X99566428Y-89171428D01*
X99623571Y-89142857D01*
X99652142Y-89114285D01*
X99680714Y-89057142D01*
X99680714Y-88885714D01*
X99652142Y-88828571D01*
X99623571Y-88800000D01*
X99566428Y-88771428D01*
X99452142Y-88771428D01*
X99395000Y-88800000D01*
X99052142Y-89171428D02*
X99109285Y-89142857D01*
X99137857Y-89085714D01*
X99137857Y-88571428D01*
X98823571Y-89171428D02*
X98823571Y-88571428D01*
X98766428Y-88942857D02*
X98595000Y-89171428D01*
X98595000Y-88771428D02*
X98823571Y-89000000D01*
X97783571Y-88571428D02*
X97412142Y-88571428D01*
X97612142Y-88800000D01*
X97526428Y-88800000D01*
X97469285Y-88828571D01*
X97440714Y-88857142D01*
X97412142Y-88914285D01*
X97412142Y-89057142D01*
X97440714Y-89114285D01*
X97469285Y-89142857D01*
X97526428Y-89171428D01*
X97697857Y-89171428D01*
X97755000Y-89142857D01*
X97783571Y-89114285D01*
X97155000Y-89114285D02*
X97126428Y-89142857D01*
X97155000Y-89171428D01*
X97183571Y-89142857D01*
X97155000Y-89114285D01*
X97155000Y-89171428D01*
X96926428Y-88571428D02*
X96555000Y-88571428D01*
X96755000Y-88800000D01*
X96669285Y-88800000D01*
X96612142Y-88828571D01*
X96583571Y-88857142D01*
X96555000Y-88914285D01*
X96555000Y-89057142D01*
X96583571Y-89114285D01*
X96612142Y-89142857D01*
X96669285Y-89171428D01*
X96840714Y-89171428D01*
X96897857Y-89142857D01*
X96926428Y-89114285D01*
X110577142Y-84859761D02*
X110434285Y-84907380D01*
X110196190Y-84907380D01*
X110100952Y-84859761D01*
X110053333Y-84812142D01*
X110005714Y-84716904D01*
X110005714Y-84621666D01*
X110053333Y-84526428D01*
X110100952Y-84478809D01*
X110196190Y-84431190D01*
X110386666Y-84383571D01*
X110481904Y-84335952D01*
X110529523Y-84288333D01*
X110577142Y-84193095D01*
X110577142Y-84097857D01*
X110529523Y-84002619D01*
X110481904Y-83955000D01*
X110386666Y-83907380D01*
X110148571Y-83907380D01*
X110005714Y-83955000D01*
X109672380Y-83907380D02*
X109434285Y-84907380D01*
X109243809Y-84193095D01*
X109053333Y-84907380D01*
X108815238Y-83907380D01*
X108434285Y-84907380D02*
X108434285Y-83907380D01*
X108196190Y-83907380D01*
X108053333Y-83955000D01*
X107958095Y-84050238D01*
X107910476Y-84145476D01*
X107862857Y-84335952D01*
X107862857Y-84478809D01*
X107910476Y-84669285D01*
X107958095Y-84764523D01*
X108053333Y-84859761D01*
X108196190Y-84907380D01*
X108434285Y-84907380D01*
X142803333Y-76652380D02*
X142803333Y-75652380D01*
X142565238Y-75652380D01*
X142422380Y-75700000D01*
X142327142Y-75795238D01*
X142279523Y-75890476D01*
X142231904Y-76080952D01*
X142231904Y-76223809D01*
X142279523Y-76414285D01*
X142327142Y-76509523D01*
X142422380Y-76604761D01*
X142565238Y-76652380D01*
X142803333Y-76652380D01*
X141231904Y-76557142D02*
X141279523Y-76604761D01*
X141422380Y-76652380D01*
X141517619Y-76652380D01*
X141660476Y-76604761D01*
X141755714Y-76509523D01*
X141803333Y-76414285D01*
X141850952Y-76223809D01*
X141850952Y-76080952D01*
X141803333Y-75890476D01*
X141755714Y-75795238D01*
X141660476Y-75700000D01*
X141517619Y-75652380D01*
X141422380Y-75652380D01*
X141279523Y-75700000D01*
X141231904Y-75747619D01*
X140041428Y-76652380D02*
X140041428Y-75985714D01*
X140041428Y-75652380D02*
X140089047Y-75700000D01*
X140041428Y-75747619D01*
X139993809Y-75700000D01*
X140041428Y-75652380D01*
X140041428Y-75747619D01*
X139565238Y-75985714D02*
X139565238Y-76652380D01*
X139565238Y-76080952D02*
X139517619Y-76033333D01*
X139422380Y-75985714D01*
X139279523Y-75985714D01*
X139184285Y-76033333D01*
X139136666Y-76128571D01*
X139136666Y-76652380D01*
X138094404Y-88971428D02*
X137332500Y-88971428D01*
X136332500Y-89352380D02*
X136903928Y-89352380D01*
X136618214Y-89352380D02*
X136618214Y-88352380D01*
X136713452Y-88495238D01*
X136808690Y-88590476D01*
X136903928Y-88638095D01*
X135951547Y-88447619D02*
X135903928Y-88400000D01*
X135808690Y-88352380D01*
X135570595Y-88352380D01*
X135475357Y-88400000D01*
X135427738Y-88447619D01*
X135380119Y-88542857D01*
X135380119Y-88638095D01*
X135427738Y-88780952D01*
X135999166Y-89352380D01*
X135380119Y-89352380D01*
X146984404Y-88971428D02*
X146222500Y-88971428D01*
X145222500Y-89352380D02*
X145793928Y-89352380D01*
X145508214Y-89352380D02*
X145508214Y-88352380D01*
X145603452Y-88495238D01*
X145698690Y-88590476D01*
X145793928Y-88638095D01*
X144841547Y-88447619D02*
X144793928Y-88400000D01*
X144698690Y-88352380D01*
X144460595Y-88352380D01*
X144365357Y-88400000D01*
X144317738Y-88447619D01*
X144270119Y-88542857D01*
X144270119Y-88638095D01*
X144317738Y-88780952D01*
X144889166Y-89352380D01*
X144270119Y-89352380D01*
X138094404Y-78811428D02*
X137332500Y-78811428D01*
X137713452Y-79192380D02*
X137713452Y-78430476D01*
X136332500Y-79192380D02*
X136903928Y-79192380D01*
X136618214Y-79192380D02*
X136618214Y-78192380D01*
X136713452Y-78335238D01*
X136808690Y-78430476D01*
X136903928Y-78478095D01*
X135951547Y-78287619D02*
X135903928Y-78240000D01*
X135808690Y-78192380D01*
X135570595Y-78192380D01*
X135475357Y-78240000D01*
X135427738Y-78287619D01*
X135380119Y-78382857D01*
X135380119Y-78478095D01*
X135427738Y-78620952D01*
X135999166Y-79192380D01*
X135380119Y-79192380D01*
X137030833Y-81065714D02*
X137030833Y-81875238D01*
X137078452Y-81970476D01*
X137126071Y-82018095D01*
X137221309Y-82065714D01*
X137364166Y-82065714D01*
X137459404Y-82018095D01*
X137030833Y-81684761D02*
X137126071Y-81732380D01*
X137316547Y-81732380D01*
X137411785Y-81684761D01*
X137459404Y-81637142D01*
X137507023Y-81541904D01*
X137507023Y-81256190D01*
X137459404Y-81160952D01*
X137411785Y-81113333D01*
X137316547Y-81065714D01*
X137126071Y-81065714D01*
X137030833Y-81113333D01*
X136554642Y-81065714D02*
X136554642Y-81732380D01*
X136554642Y-81160952D02*
X136507023Y-81113333D01*
X136411785Y-81065714D01*
X136268928Y-81065714D01*
X136173690Y-81113333D01*
X136126071Y-81208571D01*
X136126071Y-81732380D01*
X135221309Y-81732380D02*
X135221309Y-80732380D01*
X135221309Y-81684761D02*
X135316547Y-81732380D01*
X135507023Y-81732380D01*
X135602261Y-81684761D01*
X135649880Y-81637142D01*
X135697500Y-81541904D01*
X135697500Y-81256190D01*
X135649880Y-81160952D01*
X135602261Y-81113333D01*
X135507023Y-81065714D01*
X135316547Y-81065714D01*
X135221309Y-81113333D01*
X137030833Y-83605714D02*
X137030833Y-84415238D01*
X137078452Y-84510476D01*
X137126071Y-84558095D01*
X137221309Y-84605714D01*
X137364166Y-84605714D01*
X137459404Y-84558095D01*
X137030833Y-84224761D02*
X137126071Y-84272380D01*
X137316547Y-84272380D01*
X137411785Y-84224761D01*
X137459404Y-84177142D01*
X137507023Y-84081904D01*
X137507023Y-83796190D01*
X137459404Y-83700952D01*
X137411785Y-83653333D01*
X137316547Y-83605714D01*
X137126071Y-83605714D01*
X137030833Y-83653333D01*
X136554642Y-83605714D02*
X136554642Y-84272380D01*
X136554642Y-83700952D02*
X136507023Y-83653333D01*
X136411785Y-83605714D01*
X136268928Y-83605714D01*
X136173690Y-83653333D01*
X136126071Y-83748571D01*
X136126071Y-84272380D01*
X135221309Y-84272380D02*
X135221309Y-83272380D01*
X135221309Y-84224761D02*
X135316547Y-84272380D01*
X135507023Y-84272380D01*
X135602261Y-84224761D01*
X135649880Y-84177142D01*
X135697500Y-84081904D01*
X135697500Y-83796190D01*
X135649880Y-83700952D01*
X135602261Y-83653333D01*
X135507023Y-83605714D01*
X135316547Y-83605714D01*
X135221309Y-83653333D01*
X137030833Y-86145714D02*
X137030833Y-86955238D01*
X137078452Y-87050476D01*
X137126071Y-87098095D01*
X137221309Y-87145714D01*
X137364166Y-87145714D01*
X137459404Y-87098095D01*
X137030833Y-86764761D02*
X137126071Y-86812380D01*
X137316547Y-86812380D01*
X137411785Y-86764761D01*
X137459404Y-86717142D01*
X137507023Y-86621904D01*
X137507023Y-86336190D01*
X137459404Y-86240952D01*
X137411785Y-86193333D01*
X137316547Y-86145714D01*
X137126071Y-86145714D01*
X137030833Y-86193333D01*
X136554642Y-86145714D02*
X136554642Y-86812380D01*
X136554642Y-86240952D02*
X136507023Y-86193333D01*
X136411785Y-86145714D01*
X136268928Y-86145714D01*
X136173690Y-86193333D01*
X136126071Y-86288571D01*
X136126071Y-86812380D01*
X135221309Y-86812380D02*
X135221309Y-85812380D01*
X135221309Y-86764761D02*
X135316547Y-86812380D01*
X135507023Y-86812380D01*
X135602261Y-86764761D01*
X135649880Y-86717142D01*
X135697500Y-86621904D01*
X135697500Y-86336190D01*
X135649880Y-86240952D01*
X135602261Y-86193333D01*
X135507023Y-86145714D01*
X135316547Y-86145714D01*
X135221309Y-86193333D01*
X146555833Y-86145714D02*
X146555833Y-86955238D01*
X146603452Y-87050476D01*
X146651071Y-87098095D01*
X146746309Y-87145714D01*
X146889166Y-87145714D01*
X146984404Y-87098095D01*
X146555833Y-86764761D02*
X146651071Y-86812380D01*
X146841547Y-86812380D01*
X146936785Y-86764761D01*
X146984404Y-86717142D01*
X147032023Y-86621904D01*
X147032023Y-86336190D01*
X146984404Y-86240952D01*
X146936785Y-86193333D01*
X146841547Y-86145714D01*
X146651071Y-86145714D01*
X146555833Y-86193333D01*
X146079642Y-86145714D02*
X146079642Y-86812380D01*
X146079642Y-86240952D02*
X146032023Y-86193333D01*
X145936785Y-86145714D01*
X145793928Y-86145714D01*
X145698690Y-86193333D01*
X145651071Y-86288571D01*
X145651071Y-86812380D01*
X144746309Y-86812380D02*
X144746309Y-85812380D01*
X144746309Y-86764761D02*
X144841547Y-86812380D01*
X145032023Y-86812380D01*
X145127261Y-86764761D01*
X145174880Y-86717142D01*
X145222500Y-86621904D01*
X145222500Y-86336190D01*
X145174880Y-86240952D01*
X145127261Y-86193333D01*
X145032023Y-86145714D01*
X144841547Y-86145714D01*
X144746309Y-86193333D01*
X146555833Y-83605714D02*
X146555833Y-84415238D01*
X146603452Y-84510476D01*
X146651071Y-84558095D01*
X146746309Y-84605714D01*
X146889166Y-84605714D01*
X146984404Y-84558095D01*
X146555833Y-84224761D02*
X146651071Y-84272380D01*
X146841547Y-84272380D01*
X146936785Y-84224761D01*
X146984404Y-84177142D01*
X147032023Y-84081904D01*
X147032023Y-83796190D01*
X146984404Y-83700952D01*
X146936785Y-83653333D01*
X146841547Y-83605714D01*
X146651071Y-83605714D01*
X146555833Y-83653333D01*
X146079642Y-83605714D02*
X146079642Y-84272380D01*
X146079642Y-83700952D02*
X146032023Y-83653333D01*
X145936785Y-83605714D01*
X145793928Y-83605714D01*
X145698690Y-83653333D01*
X145651071Y-83748571D01*
X145651071Y-84272380D01*
X144746309Y-84272380D02*
X144746309Y-83272380D01*
X144746309Y-84224761D02*
X144841547Y-84272380D01*
X145032023Y-84272380D01*
X145127261Y-84224761D01*
X145174880Y-84177142D01*
X145222500Y-84081904D01*
X145222500Y-83796190D01*
X145174880Y-83700952D01*
X145127261Y-83653333D01*
X145032023Y-83605714D01*
X144841547Y-83605714D01*
X144746309Y-83653333D01*
X146555833Y-81065714D02*
X146555833Y-81875238D01*
X146603452Y-81970476D01*
X146651071Y-82018095D01*
X146746309Y-82065714D01*
X146889166Y-82065714D01*
X146984404Y-82018095D01*
X146555833Y-81684761D02*
X146651071Y-81732380D01*
X146841547Y-81732380D01*
X146936785Y-81684761D01*
X146984404Y-81637142D01*
X147032023Y-81541904D01*
X147032023Y-81256190D01*
X146984404Y-81160952D01*
X146936785Y-81113333D01*
X146841547Y-81065714D01*
X146651071Y-81065714D01*
X146555833Y-81113333D01*
X146079642Y-81065714D02*
X146079642Y-81732380D01*
X146079642Y-81160952D02*
X146032023Y-81113333D01*
X145936785Y-81065714D01*
X145793928Y-81065714D01*
X145698690Y-81113333D01*
X145651071Y-81208571D01*
X145651071Y-81732380D01*
X144746309Y-81732380D02*
X144746309Y-80732380D01*
X144746309Y-81684761D02*
X144841547Y-81732380D01*
X145032023Y-81732380D01*
X145127261Y-81684761D01*
X145174880Y-81637142D01*
X145222500Y-81541904D01*
X145222500Y-81256190D01*
X145174880Y-81160952D01*
X145127261Y-81113333D01*
X145032023Y-81065714D01*
X144841547Y-81065714D01*
X144746309Y-81113333D01*
X146984404Y-78811428D02*
X146222500Y-78811428D01*
X146603452Y-79192380D02*
X146603452Y-78430476D01*
X145222500Y-79192380D02*
X145793928Y-79192380D01*
X145508214Y-79192380D02*
X145508214Y-78192380D01*
X145603452Y-78335238D01*
X145698690Y-78430476D01*
X145793928Y-78478095D01*
X144841547Y-78287619D02*
X144793928Y-78240000D01*
X144698690Y-78192380D01*
X144460595Y-78192380D01*
X144365357Y-78240000D01*
X144317738Y-78287619D01*
X144270119Y-78382857D01*
X144270119Y-78478095D01*
X144317738Y-78620952D01*
X144889166Y-79192380D01*
X144270119Y-79192380D01*
D11*
X133713000Y-117292000D02*
X133713000Y-118222000D01*
X133713000Y-120452000D02*
X133713000Y-119522000D01*
X133713000Y-120452000D02*
X131553000Y-120452000D01*
X133713000Y-117292000D02*
X132253000Y-117292000D01*
X82336960Y-59700160D02*
X82336960Y-56250160D01*
X82336960Y-59700160D02*
X82336960Y-61650160D01*
X87456960Y-59700160D02*
X87456960Y-57750160D01*
X87456960Y-59700160D02*
X87456960Y-61650160D01*
X88968040Y-59984321D02*
X88968040Y-60309879D01*
X87948040Y-59984321D02*
X87948040Y-60309879D01*
X79709961Y-72855360D02*
X80035519Y-72855360D01*
X79709961Y-73875360D02*
X80035519Y-73875360D01*
X131327600Y-137906000D02*
X135227600Y-137906000D01*
X131327600Y-135906000D02*
X135227600Y-135906000D01*
X131327600Y-137906000D02*
X131327600Y-135906000D01*
X131378400Y-127746000D02*
X135278400Y-127746000D01*
X131378400Y-125746000D02*
X135278400Y-125746000D01*
X131378400Y-127746000D02*
X131378400Y-125746000D01*
X113496800Y-137906000D02*
X117396800Y-137906000D01*
X113496800Y-135906000D02*
X117396800Y-135906000D01*
X113496800Y-137906000D02*
X113496800Y-135906000D01*
X113547600Y-127746000D02*
X117447600Y-127746000D01*
X113547600Y-125746000D02*
X117447600Y-125746000D01*
X113547600Y-127746000D02*
X113547600Y-125746000D01*
X95716800Y-137906000D02*
X99616800Y-137906000D01*
X95716800Y-135906000D02*
X99616800Y-135906000D01*
X95716800Y-137906000D02*
X95716800Y-135906000D01*
X95716800Y-127746000D02*
X99616800Y-127746000D01*
X95716800Y-125746000D02*
X99616800Y-125746000D01*
X95716800Y-127746000D02*
X95716800Y-125746000D01*
X77936800Y-137956800D02*
X81836800Y-137956800D01*
X77936800Y-135956800D02*
X81836800Y-135956800D01*
X77936800Y-137956800D02*
X77936800Y-135956800D01*
X78040400Y-127746000D02*
X81940400Y-127746000D01*
X78040400Y-125746000D02*
X81940400Y-125746000D01*
X78040400Y-127746000D02*
X78040400Y-125746000D01*
X132683840Y-85735536D02*
X132683840Y-86939664D01*
X134503840Y-85735536D02*
X134503840Y-86939664D01*
X138211936Y-74316000D02*
X139416064Y-74316000D01*
X138211936Y-72496000D02*
X139416064Y-72496000D01*
X82390180Y-95495440D02*
X84675180Y-95495440D01*
X84675180Y-95495440D02*
X84675180Y-96965440D01*
X84675180Y-96965440D02*
X82390180Y-96965440D01*
X111058000Y-85665000D02*
X111058000Y-88325000D01*
X98298000Y-85665000D02*
X111058000Y-85665000D01*
X98298000Y-88325000D02*
X111058000Y-88325000D01*
X98298000Y-85665000D02*
X98298000Y-88325000D01*
X97028000Y-85665000D02*
X95698000Y-85665000D01*
X95698000Y-85665000D02*
X95698000Y-86995000D01*
X85908556Y-75306925D02*
X86580307Y-74635174D01*
X86580307Y-74635174D02*
X87252058Y-75306925D01*
X80025427Y-81190054D02*
X79353676Y-81861805D01*
X79353676Y-81861805D02*
X80025427Y-82533556D01*
X93135187Y-82533556D02*
X93806938Y-81861805D01*
X93806938Y-81861805D02*
X93135187Y-81190054D01*
X87252058Y-88416685D02*
X86580307Y-89088436D01*
X86580307Y-89088436D02*
X85908556Y-88416685D01*
X85908556Y-88416685D02*
X84961032Y-89364208D01*
X104408200Y-101097400D02*
X106358200Y-101097400D01*
X104408200Y-101097400D02*
X102458200Y-101097400D01*
X104408200Y-106217400D02*
X106358200Y-106217400D01*
X104408200Y-106217400D02*
X100958200Y-106217400D01*
X105994200Y-91115200D02*
X107944200Y-91115200D01*
X105994200Y-91115200D02*
X104044200Y-91115200D01*
X105994200Y-96235200D02*
X107944200Y-96235200D01*
X105994200Y-96235200D02*
X102544200Y-96235200D01*
X97485200Y-91140600D02*
X99435200Y-91140600D01*
X97485200Y-91140600D02*
X95535200Y-91140600D01*
X97485200Y-96260600D02*
X99435200Y-96260600D01*
X97485200Y-96260600D02*
X94035200Y-96260600D01*
X86295000Y-101072000D02*
X88245000Y-101072000D01*
X86295000Y-101072000D02*
X84345000Y-101072000D01*
X86295000Y-106192000D02*
X88245000Y-106192000D01*
X86295000Y-106192000D02*
X82845000Y-106192000D01*
X131979720Y-80410840D02*
X130719720Y-80410840D01*
X125159720Y-80410840D02*
X126419720Y-80410840D01*
X131979720Y-76650840D02*
X131979720Y-80410840D01*
X125159720Y-74400840D02*
X125159720Y-80410840D01*
X117977600Y-102806500D02*
X117977600Y-100856500D01*
X117977600Y-102806500D02*
X117977600Y-104756500D01*
X128097600Y-102806500D02*
X128097600Y-100856500D01*
X128097600Y-102806500D02*
X128097600Y-106256500D01*
X101296700Y-64851600D02*
X99346700Y-64851600D01*
X101296700Y-64851600D02*
X103246700Y-64851600D01*
X101296700Y-54731600D02*
X99346700Y-54731600D01*
X101296700Y-54731600D02*
X104746700Y-54731600D01*
X79933681Y-96735360D02*
X80259239Y-96735360D01*
X79933681Y-95715360D02*
X80259239Y-95715360D01*
X109450600Y-105217279D02*
X109450600Y-104891721D01*
X108430600Y-105217279D02*
X108430600Y-104891721D01*
X91340400Y-105242679D02*
X91340400Y-104917121D01*
X90320400Y-105242679D02*
X90320400Y-104917121D01*
X111986600Y-104891721D02*
X111986600Y-105217279D01*
X113006600Y-104891721D02*
X113006600Y-105217279D01*
X93876400Y-104891721D02*
X93876400Y-105217279D01*
X94896400Y-104891721D02*
X94896400Y-105217279D01*
X92327000Y-101843521D02*
X92327000Y-102169079D01*
X93347000Y-101843521D02*
X93347000Y-102169079D01*
X110437200Y-101818121D02*
X110437200Y-102143679D01*
X111457200Y-101818121D02*
X111457200Y-102143679D01*
X94896400Y-102169079D02*
X94896400Y-101843521D01*
X93876400Y-102169079D02*
X93876400Y-101843521D01*
X113006600Y-102143679D02*
X113006600Y-101818121D01*
X111986600Y-102143679D02*
X111986600Y-101818121D01*
X100408200Y-105242679D02*
X100408200Y-104917121D01*
X99388200Y-105242679D02*
X99388200Y-104917121D01*
X82298000Y-105217279D02*
X82298000Y-104891721D01*
X81278000Y-105217279D02*
X81278000Y-104891721D01*
X95832200Y-104917121D02*
X95832200Y-105242679D01*
X96852200Y-104917121D02*
X96852200Y-105242679D01*
X77671200Y-104891721D02*
X77671200Y-105217279D01*
X78691200Y-104891721D02*
X78691200Y-105217279D01*
X79220600Y-101818121D02*
X79220600Y-102143679D01*
X80240600Y-101818121D02*
X80240600Y-102143679D01*
X97381600Y-101868921D02*
X97381600Y-102194479D01*
X98401600Y-101868921D02*
X98401600Y-102194479D01*
X78665800Y-102143679D02*
X78665800Y-101818121D01*
X77645800Y-102143679D02*
X77645800Y-101818121D01*
X96852200Y-102194479D02*
X96852200Y-101868921D01*
X95832200Y-102194479D02*
X95832200Y-101868921D01*
X136019000Y-130934779D02*
X136019000Y-130609221D01*
X134999000Y-130934779D02*
X134999000Y-130609221D01*
X132590221Y-133098000D02*
X132915779Y-133098000D01*
X132590221Y-132078000D02*
X132915779Y-132078000D01*
X136019000Y-120850779D02*
X136019000Y-120525221D01*
X134999000Y-120850779D02*
X134999000Y-120525221D01*
X132577721Y-124970000D02*
X132903279Y-124970000D01*
X132577721Y-123950000D02*
X132903279Y-123950000D01*
X118175500Y-130972779D02*
X118175500Y-130647221D01*
X117155500Y-130972779D02*
X117155500Y-130647221D01*
X114734221Y-133161500D02*
X115059779Y-133161500D01*
X114734221Y-132141500D02*
X115059779Y-132141500D01*
X118239000Y-120914279D02*
X118239000Y-120588721D01*
X117219000Y-120914279D02*
X117219000Y-120588721D01*
X114797721Y-124970000D02*
X115123279Y-124970000D01*
X114797721Y-123950000D02*
X115123279Y-123950000D01*
X100395500Y-131074279D02*
X100395500Y-130748721D01*
X99375500Y-131074279D02*
X99375500Y-130748721D01*
X96954221Y-133225000D02*
X97279779Y-133225000D01*
X96954221Y-132205000D02*
X97279779Y-132205000D01*
X100395500Y-120850779D02*
X100395500Y-120525221D01*
X99375500Y-120850779D02*
X99375500Y-120525221D01*
X96954221Y-124970000D02*
X97279779Y-124970000D01*
X96954221Y-123950000D02*
X97279779Y-123950000D01*
X82615500Y-131010779D02*
X82615500Y-130685221D01*
X81595500Y-131010779D02*
X81595500Y-130685221D01*
X79174221Y-133161500D02*
X79499779Y-133161500D01*
X79174221Y-132141500D02*
X79499779Y-132141500D01*
X82615500Y-120901779D02*
X82615500Y-120576221D01*
X81595500Y-120901779D02*
X81595500Y-120576221D01*
X79237721Y-124970000D02*
X79563279Y-124970000D01*
X79237721Y-123950000D02*
X79563279Y-123950000D01*
X133987000Y-142377279D02*
X133987000Y-142051721D01*
X132967000Y-142377279D02*
X132967000Y-142051721D01*
X116080000Y-142402779D02*
X116080000Y-142077221D01*
X115060000Y-142402779D02*
X115060000Y-142077221D01*
X98490500Y-142377279D02*
X98490500Y-142051721D01*
X97470500Y-142377279D02*
X97470500Y-142051721D01*
X80710500Y-142313779D02*
X80710500Y-141988221D01*
X79690500Y-142313779D02*
X79690500Y-141988221D01*
X119077200Y-108328779D02*
X119077200Y-108003221D01*
X118057200Y-108328779D02*
X118057200Y-108003221D01*
X120626600Y-108328779D02*
X120626600Y-108003221D01*
X119606600Y-108328779D02*
X119606600Y-108003221D01*
X122176000Y-108328779D02*
X122176000Y-108003221D01*
X121156000Y-108328779D02*
X121156000Y-108003221D01*
X123725400Y-108328779D02*
X123725400Y-108003221D01*
X122705400Y-108328779D02*
X122705400Y-108003221D01*
X125274800Y-108328779D02*
X125274800Y-108003221D01*
X124254800Y-108328779D02*
X124254800Y-108003221D01*
X126824200Y-108328779D02*
X126824200Y-108003221D01*
X125804200Y-108328779D02*
X125804200Y-108003221D01*
X128386300Y-108328779D02*
X128386300Y-108003221D01*
X127366300Y-108328779D02*
X127366300Y-108003221D01*
X129948400Y-108328579D02*
X129948400Y-108003021D01*
X128928400Y-108328579D02*
X128928400Y-108003021D01*
X142567779Y-69594000D02*
X142242221Y-69594000D01*
X142567779Y-70614000D02*
X142242221Y-70614000D01*
X134922579Y-69594000D02*
X134597021Y-69594000D01*
X134922579Y-70614000D02*
X134597021Y-70614000D01*
X127327779Y-69594000D02*
X127002221Y-69594000D01*
X127327779Y-70614000D02*
X127002221Y-70614000D01*
X106753979Y-63739300D02*
X106428421Y-63739300D01*
X106753979Y-64759300D02*
X106428421Y-64759300D01*
X106753979Y-62177200D02*
X106428421Y-62177200D01*
X106753979Y-63197200D02*
X106428421Y-63197200D01*
X106753979Y-60615100D02*
X106428421Y-60615100D01*
X106753979Y-61635100D02*
X106428421Y-61635100D01*
X106766679Y-59040300D02*
X106441121Y-59040300D01*
X106766679Y-60060300D02*
X106441121Y-60060300D01*
X106766679Y-57478200D02*
X106441121Y-57478200D01*
X106766679Y-58498200D02*
X106441121Y-58498200D01*
X106766679Y-55916100D02*
X106441121Y-55916100D01*
X106766679Y-56936100D02*
X106441121Y-56936100D01*
X106766679Y-54366700D02*
X106441121Y-54366700D01*
X106766679Y-55386700D02*
X106441121Y-55386700D01*
X106779379Y-52804600D02*
X106453821Y-52804600D01*
X106779379Y-53824600D02*
X106453821Y-53824600D01*
X119707779Y-69594000D02*
X119382221Y-69594000D01*
X119707779Y-70614000D02*
X119382221Y-70614000D01*
X133713000Y-128407000D02*
X133713000Y-129337000D01*
X133713000Y-131567000D02*
X133713000Y-130637000D01*
X133713000Y-131567000D02*
X131553000Y-131567000D01*
X133713000Y-128407000D02*
X132253000Y-128407000D01*
X115869500Y-128470500D02*
X115869500Y-129400500D01*
X115869500Y-131630500D02*
X115869500Y-130700500D01*
X115869500Y-131630500D02*
X113709500Y-131630500D01*
X115869500Y-128470500D02*
X114409500Y-128470500D01*
X115933000Y-117292000D02*
X115933000Y-118222000D01*
X115933000Y-120452000D02*
X115933000Y-119522000D01*
X115933000Y-120452000D02*
X113773000Y-120452000D01*
X115933000Y-117292000D02*
X114473000Y-117292000D01*
X98089500Y-128529000D02*
X98089500Y-129459000D01*
X98089500Y-131689000D02*
X98089500Y-130759000D01*
X98089500Y-131689000D02*
X95929500Y-131689000D01*
X98089500Y-128529000D02*
X96629500Y-128529000D01*
X98089500Y-117104000D02*
X98089500Y-118034000D01*
X98089500Y-120264000D02*
X98089500Y-119334000D01*
X98089500Y-120264000D02*
X95929500Y-120264000D01*
X98089500Y-117104000D02*
X96629500Y-117104000D01*
X80325500Y-128468000D02*
X80325500Y-129398000D01*
X80325500Y-131628000D02*
X80325500Y-130698000D01*
X80325500Y-131628000D02*
X78165500Y-131628000D01*
X80325500Y-128468000D02*
X78865500Y-128468000D01*
X80341500Y-116850000D02*
X80341500Y-117780000D01*
X80341500Y-120010000D02*
X80341500Y-119080000D01*
X80341500Y-120010000D02*
X78181500Y-120010000D01*
X80341500Y-116850000D02*
X78881500Y-116850000D01*
X140660000Y-66813400D02*
X141590000Y-66813400D01*
X143820000Y-66813400D02*
X142890000Y-66813400D01*
X143820000Y-66813400D02*
X143820000Y-68973400D01*
X140660000Y-66813400D02*
X140660000Y-68273400D01*
X133029800Y-66820000D02*
X133959800Y-66820000D01*
X136189800Y-66820000D02*
X135259800Y-66820000D01*
X136189800Y-66820000D02*
X136189800Y-68980000D01*
X133029800Y-66820000D02*
X133029800Y-68280000D01*
X125409800Y-66820000D02*
X126339800Y-66820000D01*
X128569800Y-66820000D02*
X127639800Y-66820000D01*
X128569800Y-66820000D02*
X128569800Y-68980000D01*
X125409800Y-66820000D02*
X125409800Y-68280000D01*
X117797500Y-66820000D02*
X118727500Y-66820000D01*
X120957500Y-66820000D02*
X120027500Y-66820000D01*
X120957500Y-66820000D02*
X120957500Y-68980000D01*
X117797500Y-66820000D02*
X117797500Y-68280000D01*
X84126000Y-89446200D02*
X84126000Y-92746200D01*
X84126000Y-92746200D02*
X80126000Y-92746200D01*
X134054322Y-74116000D02*
X134571478Y-74116000D01*
X134054322Y-72696000D02*
X134571478Y-72696000D01*
X95915320Y-80405969D02*
X96145525Y-80636174D01*
X96636569Y-79684720D02*
X96866774Y-79914925D01*
X83609242Y-73367104D02*
X83379037Y-73136899D01*
X82887993Y-74088353D02*
X82657788Y-73858148D01*
X111428600Y-105680252D02*
X111428600Y-105157748D01*
X110008600Y-105680252D02*
X110008600Y-105157748D01*
X93318400Y-105705652D02*
X93318400Y-105183148D01*
X91898400Y-105705652D02*
X91898400Y-105183148D01*
X91769000Y-101895652D02*
X91769000Y-101373148D01*
X90349000Y-101895652D02*
X90349000Y-101373148D01*
X109879200Y-101877652D02*
X109879200Y-101355148D01*
X108459200Y-101877652D02*
X108459200Y-101355148D01*
X98830200Y-105705652D02*
X98830200Y-105183148D01*
X97410200Y-105705652D02*
X97410200Y-105183148D01*
X80720000Y-105705652D02*
X80720000Y-105183148D01*
X79300000Y-105705652D02*
X79300000Y-105183148D01*
X82269400Y-101903052D02*
X82269400Y-101380548D01*
X80849400Y-101903052D02*
X80849400Y-101380548D01*
X100379600Y-101928452D02*
X100379600Y-101405948D01*
X98959600Y-101928452D02*
X98959600Y-101405948D01*
X102346979Y-99616800D02*
X102021421Y-99616800D01*
X102346979Y-100636800D02*
X102021421Y-100636800D01*
X106791879Y-106678000D02*
X106466321Y-106678000D01*
X106791879Y-107698000D02*
X106466321Y-107698000D01*
X84236879Y-99591400D02*
X83911321Y-99591400D01*
X84236879Y-100611400D02*
X83911321Y-100611400D01*
X88681679Y-106652600D02*
X88356121Y-106652600D01*
X88681679Y-107672600D02*
X88356121Y-107672600D01*
X88221078Y-69775000D02*
X87703922Y-69775000D01*
X88221078Y-71195000D02*
X87703922Y-71195000D01*
X127652038Y-72350560D02*
X127134882Y-72350560D01*
X127652038Y-73770560D02*
X127134882Y-73770560D01*
X132516200Y-76144496D02*
X132516200Y-77348624D01*
X134336200Y-76144496D02*
X134336200Y-77348624D01*
X138370000Y-77410000D02*
X143570000Y-77410000D01*
X138370000Y-87630000D02*
X138370000Y-77410000D01*
X143570000Y-90230000D02*
X143570000Y-77410000D01*
X138370000Y-87630000D02*
X140970000Y-87630000D01*
X140970000Y-87630000D02*
X140970000Y-90230000D01*
X140970000Y-90230000D02*
X143570000Y-90230000D01*
X138370000Y-88900000D02*
X138370000Y-90230000D01*
X138370000Y-90230000D02*
X139700000Y-90230000D01*
M02*
