M48
; DRILL file {KiCad 5.1.6-c6e7f7d~87~ubuntu18.04.1} date Wed Aug 19 10:21:33 2020
; FORMAT={3:3/ absolute / metric / suppress leading zeros}
; #@! TF.CreationDate,2020-08-19T10:21:33-04:00
; #@! TF.GenerationSoftware,Kicad,Pcbnew,5.1.6-c6e7f7d~87~ubuntu18.04.1
FMAT,2
METRIC,TZ
T1C0.400
T2C0.800
T3C0.900
T4C1.000
T5C1.500
T6C1.600
%
G90
G05
T1
X77607Y-62118
X78115Y-77059
X78142Y-87606
X78181Y-76088
X78384Y-85395
X78384Y-86436
X78405Y-98318
X78654Y-94402
X79065Y-72349
X79070Y-87122
X79273Y-77394
X79362Y-130112
X79400Y-76581
X79477Y-93116
X79736Y-82342
X80569Y-117348
X81475Y-83119
X81585Y-99619
X81898Y-81770
X81966Y-72466
X82097Y-132740
X82106Y-122492
X82773Y-81461
X83055Y-83515
X83312Y-79400
X83792Y-82172
X83922Y-72695
X84531Y-73228
X84811Y-90576
X84841Y-71511
X85014Y-96200
X85052Y-64567
X85115Y-79908
X85179Y-78829
X85349Y-94427
X85583Y-72222
X85700Y-100101
X85712Y-88849
X85738Y-55397
X85954Y-91008
X87020Y-76505
X88947Y-78278
X89302Y-79440
X89687Y-91516
X89916Y-100584
X89967Y-80518
X90170Y-84074
X90221Y-92100
X90246Y-94112
X90589Y-83172
X90653Y-90500
X90729Y-75336
X91034Y-88595
X91066Y-74422
X91262Y-91034
X91794Y-87913
X92029Y-57313
X92410Y-97292
X92616Y-90145
X93680Y-87629
X93929Y-76149
X94280Y-97963
X94290Y-96987
X94386Y-75032
X94513Y-79629
X95174Y-82271
X95291Y-85451
X95377Y-104267
X95961Y-81509
X96662Y-96967
X96667Y-97983
X96672Y-83160
X97384Y-83933
X97409Y-62992
X97434Y-57937
X97434Y-61722
X97561Y-81305
X97917Y-53023
X97917Y-54039
X98701Y-108379
X98742Y-91858
X99649Y-107962
X99670Y-99644
X99886Y-122428
X99886Y-132651
X101336Y-94325
X102829Y-96942
X102829Y-97953
X102870Y-78232
X102921Y-108153
X103835Y-100127
X104140Y-108204
X104550Y-97000
X104550Y-97973
X104905Y-90558
X107577Y-96420
X107657Y-94654
X109372Y-68885
X111643Y-107513
X112370Y-106858
X117666Y-132525
X117729Y-122492
X119888Y-98933
X120655Y-92248
X121133Y-102145
X122426Y-101732
X124943Y-101727
X127305Y-85293
X128778Y-99504
X129794Y-99504
X130850Y-96408
X130912Y-97333
X135509Y-122428
X135509Y-132525
X138458Y-106195
X145034Y-99212
T2
X85308Y-101722
X85725Y-70485
X87279Y-105547
X90170Y-70485
X103429Y-101747
X105385Y-105593
X111760Y-73660
X111760Y-76200
X114300Y-73660
X114300Y-76200
X116840Y-73660
X116840Y-76200
X117450Y-108966
X117516Y-68600
X118364Y-66548
X119380Y-73660
X119380Y-76200
X120142Y-110033
X121603Y-110173
X121920Y-73660
X121920Y-76200
X123190Y-110134
X124460Y-73660
X124460Y-76200
X125125Y-68600
X125730Y-77470
X125730Y-80010
X125984Y-66548
X127127Y-77153
X127127Y-78423
X127127Y-79693
X127127Y-83820
X128570Y-77170
X128570Y-78440
X128570Y-79710
X130048Y-77153
X130048Y-78423
X130048Y-79693
X130175Y-83820
X131445Y-77470
X131445Y-80010
X132740Y-68595
X133604Y-66548
X135255Y-76200
X137160Y-76200
X140365Y-68575
X142240Y-73660
X144780Y-73660
X129540Y-53975
X129540Y-56515
X129540Y-59055
X129540Y-61595
X129540Y-64135
X134620Y-53975
X134620Y-56515
X134620Y-59055
X134620Y-61595
X134620Y-64135
X121920Y-53975
X121920Y-56515
X121920Y-59055
X121920Y-61595
X121920Y-64135
X127000Y-53975
X127000Y-56515
X127000Y-59055
X127000Y-61595
X127000Y-64135
X114300Y-53975
X114300Y-56515
X114300Y-59055
X114300Y-61595
X114300Y-64135
X119380Y-53975
X119380Y-56515
X119380Y-59055
X119380Y-61595
X119380Y-64135
X137160Y-53975
X137160Y-56515
X137160Y-59055
X137160Y-61595
X137160Y-64135
X142240Y-53975
X142240Y-56515
X142240Y-59055
X142240Y-61595
X142240Y-64135
T3
X82550Y-114300
X85090Y-114300
X87630Y-114300
X118110Y-114300
X120650Y-114300
X123190Y-114300
X135890Y-114300
X138430Y-114300
X140970Y-114300
X100330Y-114300
X102870Y-114300
X105410Y-114300
T4
X135930Y-94720
X135930Y-109220
X138430Y-109220
X140930Y-94720
X140930Y-109220
X97028Y-86995
X99568Y-86995
X102108Y-86995
X104648Y-86995
X107188Y-86995
X109728Y-86995
X100370Y-66780
X100370Y-81280
X102870Y-81280
X105370Y-66780
X105370Y-81280
X139700Y-78740
X139700Y-81280
X139700Y-83820
X139700Y-86360
X139700Y-88900
X142240Y-78740
X142240Y-81280
X142240Y-83820
X142240Y-86360
X142240Y-88900
X82590Y-52810
X82590Y-67310
X85090Y-67310
X87590Y-52810
X87590Y-67310
X118150Y-80750
X118150Y-95250
X120650Y-95250
X123150Y-80750
X123150Y-95250
T6
X133510Y-121920
X141810Y-121920
X144910Y-121920
X80170Y-121920
X88470Y-121920
X91570Y-121920
X80170Y-147320
X88470Y-147320
X91570Y-147320
X80170Y-134620
X88470Y-134620
X91570Y-134620
X133510Y-147320
X141810Y-147320
X144910Y-147320
X97950Y-134620
X106250Y-134620
X109350Y-134620
X115600Y-147320
X123900Y-147320
X127000Y-147320
X97950Y-121920
X106250Y-121920
X109350Y-121920
X115730Y-134620
X124030Y-134620
X127130Y-134620
X133510Y-134620
X141810Y-134620
X144910Y-134620
X115600Y-121920
X123900Y-121920
X127000Y-121920
X97950Y-147320
X106250Y-147320
X109350Y-147320
T5
G00X79490Y-60460
M15
G01X79490Y-59160
M16
G05
G00X90690Y-60460
M15
G01X90690Y-59160
M16
G05
G00X115050Y-88400
M15
G01X115050Y-87100
M16
G05
G00X126250Y-88400
M15
G01X126250Y-87100
M16
G05
G00X132830Y-102370
M15
G01X132830Y-101070
M16
G05
G00X144030Y-102370
M15
G01X144030Y-101070
M16
G05
G00X97270Y-74430
M15
G01X97270Y-73130
M16
G05
G00X108470Y-74430
M15
G01X108470Y-73130
M16
G05
T0
M30
